<?xml version="1.0" encoding="UTF-8"?>
<svg id="Layer_1" data-name="Layer 1" xmlns="http://www.w3.org/2000/svg" version="1.1" viewBox="0 0 1920 1080">
  <defs>
    <style>
      .cls-1 {
        fill: #fcfcfc;
        stroke-width: 0px;
      }
    </style>
  </defs>
  <path class="cls-1" d="M-1387.3,550.6c-.8,17.9-8,33-21.4,45.4-13.6,12.4-29.7,18.6-48.6,18.6s-30.9-3.5-43.8-10.5c-15.5-8.4-25.3-20.6-29.5-36.6-1.2-4.5-.6-9.3,1.8-13.3,2.3-4.1,6.2-7,10.8-8.1,4.5-1.2,9.3-.6,13.3,1.8,4.1,2.3,7,6.2,8.1,10.8,1.8,6.7,6.7,11.9,14.7,15.7,7.7,3.4,16.1,5.1,24.6,5,8.9.2,17.5-3,24.1-8.8,6.6-5.3,10.5-13.2,10.8-21.6.2-5.2-1.8-10.3-5.5-13.9-6.2-6.6-16.6-10-31.2-10.2h-.8c-24.5-.4-43.2-7.4-56.2-21.1-10.7-11.4-15.7-24.6-15-39.7.8-18,7.9-33.2,21.4-45.6,13.5-12.4,29.7-18.6,48.6-18.6,16.3,0,30.9,3.5,43.8,10.5,15.5,8.4,25.3,20.6,29.5,36.6,1.2,4.5.5,9.4-2,13.3-2.2,4.1-6.1,7-10.6,8.1-4.5,1.2-9.3.6-13.3-1.8-4.1-2.3-7-6.2-8.1-10.8-1.8-6.7-6.7-11.9-14.8-15.7-7.7-3.4-16-5.1-24.4-5-8.9-.2-17.6,3-24.3,8.9-6.7,5.9-10.2,13.1-10.6,21.6-.2,5.3,1.8,10.4,5.5,14.1,6.2,6.5,16.6,9.9,31.2,10h.8c24.5.4,43.2,7.5,56.2,21.3,10.7,11.3,15.7,24.5,15,39.7"/>
  <path class="cls-1" d="M-1009,399.6c9.6,0,17.4,7.8,17.4,17.4v120.8c0,21.2-7.5,39.3-22.5,54.3s-33,22.5-54.1,22.5-39.3-7.5-54.3-22.5c-15-15-22.5-33.1-22.5-54.3v-120.8c.2-9.6,8.2-17.2,17.8-17,9.3.2,16.7,7.7,17,17v120.8c0,23.1,18.7,41.9,41.9,41.9s41.9-18.7,41.9-41.9h0v-120.9c0-9.6,7.8-17.4,17.4-17.4"/>
  <path class="cls-1" d="M-831.9,550.6c-.8,17.9-7.9,33-21.4,45.4-13.5,12.4-29.7,18.6-48.6,18.6s-30.9-3.5-43.8-10.5c-15.5-8.4-25.3-20.6-29.5-36.6-1.2-4.5-.6-9.3,1.8-13.3,2.3-4.1,6.2-7,10.8-8.1,4.5-1.2,9.3-.6,13.3,1.8,4.1,2.3,7,6.2,8.1,10.8,1.8,6.7,6.7,11.9,14.7,15.7,7.7,3.4,16.1,5.1,24.6,5,8.9.2,17.5-3,24.1-8.8,6.5-5.3,10.5-13.2,10.8-21.6.2-5.2-1.8-10.3-5.5-13.9-6.2-6.6-16.6-10-31.2-10.2h-.7c-24.5-.4-43.2-7.5-56.2-21.2-10.7-11.4-15.7-24.6-15-39.7.8-18,7.9-33.2,21.4-45.6s29.7-18.6,48.6-18.6c16.3,0,30.9,3.5,43.8,10.5,15.5,8.4,25.3,20.6,29.5,36.6,1.2,4.5.5,9.4-1.9,13.3-2.2,4.1-6.1,7-10.6,8.1-4.5,1.2-9.3.6-13.3-1.8-4.1-2.3-7-6.2-8.1-10.8-1.8-6.7-6.7-11.9-14.8-15.7-7.7-3.4-16-5.1-24.4-5-8.9-.2-17.6,3-24.3,8.9-6.7,5.9-10.2,13.1-10.6,21.6-.2,5.3,1.8,10.4,5.5,14.1,6.2,6.5,16.6,9.9,31.2,10h.7c24.5.4,43.2,7.5,56.2,21.3,10.7,11.3,15.7,24.5,15,39.7"/>
  <path class="cls-1" d="M-753.9,434.7h-44.5c-4.7,0-9.3-1.8-12.6-5.2-6.8-6.9-6.8-18,0-24.9,3.3-3.4,7.9-5.3,12.6-5.2h124.6c9.8,0,17.7,7.9,17.7,17.7s-7.9,17.7-17.7,17.7h-44.7v162.2c0,4.7-1.8,9.3-5.2,12.6-6.9,6.8-18,6.8-24.9,0-3.4-3.3-5.3-7.9-5.2-12.6v-162.2Z"/>
  <path class="cls-1" d="M-322.2,614.6c-29.7,0-55-10.5-76-31.6-21.1-21-31.6-46.3-31.6-76s10.5-55.1,31.6-76.2c21-21,46.3-31.5,76-31.5,29.7,0,55.1,10.5,76.2,31.5,21,21.1,31.5,46.5,31.5,76.2s-10.5,55-31.5,76c-21.1,21.1-46.5,31.6-76.2,31.6M-322.2,434.7c-19.9,0-36.9,7-51,21.1-14.1,14.1-21.2,31.1-21.3,51.1,0,19.9,7.1,36.9,21.3,51,14.2,14.1,31.2,21.2,51,21.3,19.9,0,36.9-7.1,51.1-21.3,14.1-14.1,21.1-31.1,21.1-51,0-19.9-7-37-21.1-51.1-14.2-14.1-31.2-21.1-51.1-21.1"/>
  <path class="cls-1" d="M-1202,614.5c-9.8,0-17.8-8-17.8-17.8v-71.8h-92.4v71.8c0,4.7-1.8,9.3-5.1,12.6-7,7-18.3,6.9-25.2,0-3.3-3.3-5.2-7.8-5.2-12.6v-179.1c0-9.8,8-17.8,17.8-17.8,4.7,0,9.3,1.9,12.6,5.2,3.3,3.3,5.2,7.9,5.1,12.6v71.8h92.3v-71.8c0-9.9,8-17.8,17.9-17.8,9.8,0,17.8,8,17.8,17.8v179.1c0,9.8-8,17.8-17.8,17.8"/>
  <path class="cls-1" d="M-486.7,614.5c-9.8,0-17.8-8-17.8-17.8v-71.8h-92.3v71.8c0,4.7-1.8,9.3-5.1,12.6-7,7-18.3,6.9-25.2,0-3.3-3.3-5.2-7.8-5.2-12.6v-179.1c0-9.8,8-17.8,17.8-17.8,4.7,0,9.3,1.9,12.6,5.2,3.3,3.3,5.2,7.9,5.1,12.6v71.8h92.3v-71.8c0-9.9,8-17.8,17.8-17.8s17.8,8,17.8,17.8v179.1c0,9.8-8,17.8-17.8,17.8"/>
  <path class="cls-1" d="M-650.4,556c-4.4,0-8-3.6-8.1-8.1-4.6-24.9-4.7-52,0-81.5.2-4.5,3.9-7.9,8.3-7.8,4.2.1,7.6,3.5,7.8,7.8,3.4,27.1,3.4,54.5,0,81.5,0,4.4-3.6,8-8.1,8.1Z"/>
  <path class="cls-1" d="M-450,556c-4.4,0-8-3.6-8.1-8.1-4.6-24.9-4.7-52,0-81.5.2-4.5,3.9-7.9,8.3-7.8,4.2.1,7.6,3.5,7.8,7.8,3.4,27.1,3.4,54.5,0,81.5,0,4.4-3.6,8-8.1,8.1Z"/>
  <path class="cls-1" d="M-1365.8,556c-4.4,0-8-3.6-8.1-8.1-4.5-24.9-4.7-52,0-81.5.2-4.5,3.9-7.9,8.3-7.8,4.2.1,7.6,3.5,7.8,7.8,3.4,27.1,3.4,54.5,0,81.5,0,4.4-3.6,8-8.1,8.1Z"/>
  <path class="cls-1" d="M-1165.3,556c-4.4,0-8-3.6-8.1-8.1-4.6-24.9-4.7-52,0-81.5.2-4.5,3.9-7.9,8.3-7.8,4.2.1,7.6,3.5,7.8,7.8,3.4,27.1,3.4,54.5,0,81.5,0,4.4-3.6,8-8.1,8.1Z"/>
</svg>