<?xml version="1.0" encoding="UTF-8"?>
<svg id="Layer_1" data-name="Layer 1" xmlns="http://www.w3.org/2000/svg" version="1.1" xmlns:xlink="http://www.w3.org/1999/xlink" viewBox="0 0 1049 1080.3">
  <defs>
    <style>
      .cls-1 {
        fill: none;
      }

      .cls-1, .cls-2, .cls-3 {
        stroke-width: 0px;
      }

      .cls-2 {
        fill: url(#linear-gradient);
      }

      .cls-2, .cls-3 {
        isolation: isolate;
        opacity: .3;
      }

      .cls-3 {
        fill: url(#linear-gradient-2);
      }

      .cls-4 {
        clip-path: url(#clippath);
      }
    </style>
    <clipPath id="clippath">
      <rect class="cls-1" x=".4" y=".8" width="1121.9" height="1078.8"/>
    </clipPath>
    <linearGradient id="linear-gradient" x1="-2113" y1="151.9" x2="-1036.9" y2="-240.4" gradientTransform="translate(-1155.7 663.2) rotate(-180) scale(1 -1)" gradientUnits="userSpaceOnUse">
      <stop offset="0" stop-color="#107595"/>
      <stop offset="1" stop-color="#fcf594"/>
    </linearGradient>
    <linearGradient id="linear-gradient-2" x1="-2152.8" y1="173.3" x2="-1012.3" y2="-242.4" gradientTransform="translate(-1155.7 663.2) rotate(-180) scale(1 -1)" gradientUnits="userSpaceOnUse">
      <stop offset="0" stop-color="#107595"/>
      <stop offset="1" stop-color="#fcf594"/>
    </linearGradient>
  </defs>
  <g class="cls-4">
    <g>
      <path class="cls-2" d="M-4.8-97.2l-20.2,1298.5,1027.3-85.2c-92.7-325.7-268.1-431.7-438.5-447.8-170.4-16.1-176.6-363.7,9.3-403.5,185.9-39.8,99.6-297.5,99.6-297.5L-4.8-97.2Z"/>
      <path class="cls-3" d="M-30.6-108.9l-55.1,1349.5,1146.4-129.6c-92.7-325.7-285.5-170.6-453.2-356.4-184.7-204.6-183.8-495-26-600.2,171.9-114.6,191.8-198,191.8-198L-30.6-108.9Z"/>
    </g>
  </g>
</svg>