<svg id="Layer_1" data-name="Layer 1" xmlns="http://www.w3.org/2000/svg" xmlns:xlink="http://www.w3.org/1999/xlink" viewBox="0 0 1920 1080"><defs><style>.cls-1,.cls-4{fill:none;}.cls-2{opacity:0.5;}.cls-3{clip-path:url(#clip-path);}.cls-4{stroke:#7ecdc5;stroke-linecap:round;stroke-linejoin:round;stroke-width:0.5px;}</style><clipPath id="clip-path"><rect id="SVGID" class="cls-1" x="4.2" y="9.78" width="1918.17" height="1069.41"/></clipPath></defs><g class="cls-2"><g class="cls-3"><path class="cls-4" d="M2820.13,562.9c-204.13-.07-212.78,33.2-416.85,43.2C2283.66,611,2205.87,613.76,2064.6,553c-188.89-84.7-276.53-182.11-482-248.19-158.58-55.39-258.79-146.7-442.92-44.28-95,56.7-154.66,121.82-247.51,186.93C754.41,539.26,688.93,634.24,553.49,665.57c-127,23.15-213.4-32.36-351.73-74.65-79.07-22.67-124.25-24.27-208.42-23-223.9,4.46-113.82-5.32-299.62-5"/><path class="cls-4" d="M2820.13,562.9c-209.75-.13-219.86,33.15-429.86,44.4C2114.12,620.07,2032.75,546,1778,409.67c-170.75-89.58-119.81-39-325.66-133.54-255.31-115-329-14.22-547.13,144.85C737.88,539.17,684.41,624,553.49,657.49c-127,26.08-213.24-28.82-351.73-70.54C123.18,564.76,77.49,563-6.66,565c-227.43,6.69-89.81-2.51-299.62-2.06"/><path class="cls-4" d="M2820.13,562.9c-279.17-.43-459.93,101.74-729.48,12-97.41-34.17-166.57-73.16-273.56-127.63-199.07-100-191-64.62-312.65-120.78-121.39-58.2-207.09-115.67-338.7-81.75-89.28,27.29-157.47,82.41-234.48,139.79-211,155.36-234.58,212-351.72,256.89-122,40.44-206.7-1.55-338.7-46.25C55,534.34-7.85,576.34-215.09,562.73c-27.1-.43,3,0-91.19.17"/><path class="cls-4" d="M2820.13,562.9c-205.61-.42-213.27,27-416.85,44.7C2146.2,628,2057.2,574.42,1817.09,463.67c-216.12-98.24-192.95-50.8-325.66-117.29-120.53-62.53-206.52-126.58-338.71-99.92-91,22.79-157.12,74.42-247.51,139.75C750.54,496.75,690.73,599.6,553.49,641.32c-190.6,48-269.27-91.16-547.13-82.78-252.59,9.63-109.74,4-312.64,4.36"/><path class="cls-4" d="M2820.13,562.9c-235-.6-293.66,46-521.05,51.84C2023.54,616.6,1864.45,465,1608.66,415.28,1519.35,397.39,1480,364.89,1374.16,304c-157.23-87.89-250.06-84.94-416.84,28C731.18,488.75,672.88,622.82,501.38,643.56c-155.46,11.21-250.48-85.15-442.91-89-110.86-.27-37.81,7.59-364.75,8.37"/><path class="cls-4" d="M2820.13,562.9c-207.06-.73-225.67,24.34-416.85,45.87-262.1,27.44-356.64-29.78-599.23-117.08-204.65-72.28-196.33-30.07-312.62-93.18-121.83-69.89-206.18-155-338.71-155.06-211,10.94-397,268.63-534.1,353.19C415.82,711.16,300.46,559.91,71.5,551.56-37.19,549.79-14.2,562-306.28,562.9"/><path class="cls-4" d="M2820.13,562.9c-213.05-.48-197,17.23-403.81,44.9-251.76,31.61-346.81-13-586.22-90.93-227.47-72.88-218.78-29.69-325.66-85-122.84-69.1-205.77-167.5-338.7-187.86-228.41-22.66-403,259.47-560.15,352C405.67,702.9,295.36,551.09,58.47,548.18c-113,.69-109.2,13.73-364.75,14.72"/><path class="cls-4" d="M2820.13,562.9c-211-.56-199.4,15.44-403.81,45.4-249.44,34.5-349.23-9.54-586.22-75.71-227.32-62.23-222.79-19.84-325.66-74.47-120.8-70.37-205.82-180-338.7-213.61-228-45.11-392,232.14-547.12,335.5-202.13,123.87-319-28.17-547.12-34.9-115.21-1-139.21,16.7-377.78,17.79"/><path class="cls-4" d="M2820.13,562.9c-210.77-.65-197.85,13.12-403.81,45.9-254.75,38.49-360.56-9.25-599.23-63.45-214-47-214.35-7.44-312.65-61C1379.27,409,1291.25,282.21,1152.72,241.17,922.27,186.31,774.18,472.6,605.59,580c-199.11,115.74-311.4-37.08-547.12-38.17-118,1.76-153.22,20.3-364.75,21.08"/><path class="cls-4" d="M2820.13,562.9c-197.4-.7-176.14,6-390.8,44.18-254.23,43.64-362.25,1.2-599.23-43.08-227.1-41-227.9,1.13-325.66-53.37-124.67-77.58-213.34-215.53-351.72-270.08-233.1-77.86-373,216.54-547.13,331.56C410,690.34,296.31,543.73,71.5,538.68-51,538.59-101.1,562-306.28,562.9"/><path class="cls-4" d="M2820.13,562.9c-346.22-1.44-405.28,91.33-716.46,58.52-105.63-12.13-178.78-29.24-286.58-44-222.35-28.71-224.47,14.88-325.66-49.7-182.54-127.94-309.67-399.21-547.14-270.27-145.37,86.64-199,214.42-338.7,309.17-108.66,67.49-187.06,55-312.64,15.09C13.11,491.73,8.53,561.3-306.28,562.9"/><path class="cls-4" d="M2820.13,562.9c-189.83-.91-168.29.32-390.8,45.39-249,49.07-374.16,8.68-599.23-13.87-228.56-21.29-231.39,21.43-325.66-33-124.61-81.49-213.25-238.32-351.72-317C917.51,125.55,788.52,433.82,605.59,561.14c-202.2,129-310.62-33.42-560.15-27.47-116.81,5-183.36,28.22-351.72,29.23"/><path class="cls-4" d="M2820.13,562.9c-360-2-377.5,86-703.43,70.12-106.95-6-177.89-17.21-286.6-23.39-224.31-11-226.14,28.15-312.62-15.14-182.14-106.92-319-452.07-547.14-370.12-139.73,59.92-201,198.22-338.69,311.94-206.19,159-320.33,4-547.13-5.44-131.12-2.3-209.07,30.77-390.8,32"/><path class="cls-4" d="M2820.13,562.9c-148.29-.69-151.81-8.87-377.76,43.64-253.57,57.63-389.54,21.28-612.27,18.3-217.77-1.2-228.58,37.57-312.62-4.82-186.83-111.51-326.54-493.61-560.16-400.27C821,284.2,759.28,429.61,618.62,540.64,417.41,687.8,301.68,531.6,71.5,528c-129.63.91-208,33.63-377.78,34.94"/><path class="cls-4" d="M2820.13,562.9c-153.28-.81-157.89-9.36-377.76,44.1-249.43,59.76-385.62,26.25-612.27,32.94-227.63,8.62-235.4,52.22-325.66-2.48-183.06-128.35-322-510.88-547.12-427.53C823.85,270,759.69,421.3,618.62,535.18,417.39,685.8,302.39,528.65,71.5,525.35c-132.39,1.16-212.73,36.13-377.78,37.55"/><path class="cls-4" d="M2820.13,562.9c-116.1-.68-155.2-10.39-325.66,31.63-327,82.83-388.08,40.46-664.37,59.09-227.1,17.28-236.19,61.48-325.66,6.81-187-132.87-329.29-548.81-560.15-449.74C814,277.35,749.64,433.5,605.59,542.71,407.26,681,297.75,521.89,58.47,523.73c-132.4,4-207.29,37.62-364.75,39.17"/><path class="cls-4" d="M2820.13,562.9c-115.85-.77-157.34-11.17-325.66,31.82-317.39,82.92-368.49,46.07-638.32,70-230.76,22.34-246,64.61-325.66,33.36C1341.13,602,1197.41,143.93,970.34,196.1c-131.25,42-197.51,198.59-338.69,323.61-204.4,169.23-320.44,11.88-547.13,2.43-141-2.41-228.73,39-390.8,40.76"/><path class="cls-4" d="M2820.13,562.9c-117.71-.87-159.55-11.87-325.66,32-322.8,87.46-390.86,49.21-651.33,84.22-236.07,33.77-248.48,83.24-338.7,27.26-127.1-92.79-221.72-315.11-364.75-453.18C903.69,42.85,803.78,396.46,592.57,547.6c-194.64,127-301.38-33.87-547.13-27-131.73,6.55-205.28,40.45-351.72,42.26"/><path class="cls-4" d="M2820.13,562.9c-117-.94-161.05-12.78-325.66,32.2-329.79,92.51-401.51,52-664.37,99.58-224.75,42.9-238.16,89.4-325.66,34.68-187.34-138.58-334.52-616.94-560.15-534C819.1,253.54,751,421.54,605.59,536.07,408.33,679,298.48,517.51,58.47,518.55-77.77,522.26-159,560.9-306.28,562.9"/><path class="cls-4" d="M2820.13,562.9c-119-1-163.42-13.33-325.66,32.42-321.47,93.24-383.29,56.56-638.32,107.2-229.87,48-246.56,94-325.66,64.18C1340.24,670.37,1193,151.79,970.34,183.19,842,214.61,775.08,381.05,631.65,512.65,428,687.41,313.8,527.8,84.52,517.19-63.74,514-152.37,560.62-306.28,562.9"/><path class="cls-4" d="M2820.13,562.9c-118-1.13-163.87-14-325.66,32.9-148,44.22-134.46,48.42-416.85,80.76-425.82,50.63-445.44,146.14-547.13,108.73-194.83-97.67-344.19-649-573.17-597.67C832,229,764.42,399.74,618.62,525.15c-200,159.57-311.64-2.36-547.12-8.59-143.79-.33-231,43.94-377.78,46.34"/><path class="cls-4" d="M2820.13,562.9c-116.89-1.23-164.51-14.69-325.66,33.38-164.76,50.66-119.62,45.3-429.87,86.87-423.13,58.58-437.52,168.65-547.12,114.26-193.6-121.23-344.76-675.95-573.19-604.48-122.18,51.39-192.23,226.86-338.7,343.94-196.52,144.53-305.42-19-547.12-20.76-141.08,2.3-223.11,44.28-364.75,46.79"/><path class="cls-4" d="M2820.13,562.9c-118-1.33-165.81-15.1-325.66,33.86-193.1,61.06-114.55,43.19-429.87,91.44C1653.25,752.8,1627.27,870,1517.48,816.06,1325,695.84,1171.05,127,944.29,193.94,823,243.23,752.33,420.68,605.59,538.2,409.34,682.77,299.92,518.7,58.47,515.69c-144.36,1.65-222.38,44.49-364.75,47.21"/><path class="cls-4" d="M2820.13,562.9c-117.18-1.41-166.27-15.8-325.66,34.34-206.13,67-101,39.82-429.87,96-401,70.32-437.12,194.92-547.12,141.45C1325.41,715.05,1169.68,132.27,944.29,195,824.76,241.83,751,422.87,605.59,539.54c-196,144.56-304.78-20-547.12-24.27C-87,516.21-166,560-306.28,562.9"/><path class="cls-4" d="M2820.13,562.9c-117-1.52-166.86-16.36-325.66,34.84-223.86,74.62-89.68,36.54-429.87,100.33-412.23,79.44-441,220.36-560.16,146.46-129.73-98.2-230.6-376.7-377.78-559.7-233-270.6-318.92,121.53-547.12,274.81C389.1,674.74,287.39,509.18,32.42,515.37c-135.49,6.36-209.35,44.7-338.7,47.53"/><path class="cls-4" d="M2820.13,562.9c-117-1.61-167.27-16.55-325.66,35.49-233.64,79.38-90.27,36-429.87,102.81-402.1,81.5-441.41,228.8-560.16,156.23C1379.69,764,1282.58,503.28,1139.69,312.1,901.81,11.83,818.21,390.4,592.57,555.41c-192.51,128-298-37.47-547.13-39.39-143.11,2.22-216.65,43.78-351.72,46.88"/><path class="cls-4" d="M2820.13,562.9c-117.66-1.71-167.93-16.66-325.66,36.13-242.54,84-90.41,35.37-429.87,105.3-399.24,84.85-439.69,238.54-560.16,166-124.36-92.19-221.52-352.92-364.75-547.15C901.23,17.69,819.19,395.74,592.57,559.92,400.33,686.48,295.27,521.17,45.44,517c-143,1-218.07,42.69-351.72,45.92"/><path class="cls-4" d="M2820.13,562.9c-119.57-1.83-169.67-16.39-325.66,36.78-230.42,81.27-80.82,35-416.85,105-387.49,83.52-447.7,236.69-560.14,186.29-191.79-113.76-351.75-720.31-573.19-672.35-119.13,40.14-190.4,220.4-338.7,336.5-195.12,140.07-302-24.71-547.12-36.81-149.82-3.83-228.57,41.16-364.75,44.62"/><path class="cls-4" d="M2820.13,562.9c-116.41-1.87-168.5-17.1-325.66,37.43-59,21.17-81.15,31.28-130.25,46.86-83.68,24.66-179.56,36.41-299.62,63.39C1693.33,796.79,1631,953.39,1517.48,903.72c-191.66-112-352.7-722.31-573.19-677.85-118.9,38.45-189.92,218.34-338.7,333.82C411.1,698,303.68,533.62,58.47,519.36c-149.6-5.15-231.35,40-364.75,43.54"/><path class="cls-4" d="M2820.13,562.9C2702.79,561,2651,545.77,2494.47,601c-251.9,92-131.27,45.19-416.85,109.31-361.3,84.05-439.88,239.94-547.13,210.79C1337.7,839,1177.38,217.56,957.32,231.6c-121,22.63-190.17,199.57-338.7,323C420.92,706.52,314.08,543.56,71.5,521.52-85,511-169.33,559.13-306.28,562.9"/><path class="cls-4" d="M2820.13,562.9c-116.43-2-169-17-325.66,38.7-58.21,21.41-80.9,31.95-130.25,47.9-79.13,23.68-171.54,35.43-286.6,61.22-359.92,83.84-437.57,244.46-547.13,216.47-195.92-80.05-361.38-718.93-586.2-680C826,282.09,754.22,459.79,605.59,571.72,411.3,705.55,305.48,542.53,58.47,523.08-93,514.69-172.83,559.14-306.28,562.9"/><path class="cls-4" d="M2820.13,562.9c-117.19-2.1-169.39-16.74-325.66,39.32-59.25,22-81.19,32.29-130.25,48.17-80.06,24-172.16,35.14-286.6,60.78C1705,798,1635.1,974.26,1517.48,928.23,1321.74,823,1156.21,201,931.26,264.07,814.55,310.74,741.69,487,592.57,587.57c-120.4,73.38-203.64,38.29-338.7-14.36C-14.84,470.89-123.8,557.65-306.28,562.9"/><path class="cls-4" d="M2820.13,562.9c-110.48-2-166.22-15.76-312.62,35.22-56.7,20.51-80,31.58-130.28,49-83,26.93-166.35,35.66-286.58,61.63-362.78,81.17-447.43,255.78-560.16,230.74-195.74-73.23-362.83-698.36-586.2-665.82C825.92,305,754.38,478.28,605.59,585.84,411.77,713.72,306.87,553.2,58.47,527.94c-152.81-12-233.16,31.11-364.75,35"/><path class="cls-4" d="M2820.13,562.9c-110.86-2.1-166.46-15.54-312.62,35.81-56.18,20.48-80.54,32-130.28,49.25-83.39,27.11-166.87,35.42-286.58,61.18C1730.59,789.6,1644.26,969,1530.49,945.57c-191.56-68.36-356.82-663.11-573.17-660.48-119.76,15.78-191.4,185.35-338.7,298.59C422.1,722.79,315.78,564.87,71.5,531.85c-160.44-18.14-240.09,26.94-377.78,31"/><path class="cls-4" d="M2820.13,562.9c-110.77-2.17-166.76-15.25-312.62,36.36-57.32,21-80.13,32.06-130.28,49.44-83.77,27.23-168.38,35.19-286.58,60.39-359.27,79.61-444.11,263.36-560.16,241.53-191.36-64.73-357.79-651.16-573.17-651.29-120,14.15-190.67,180.59-338.7,291.84C422.42,726.79,316.33,570.43,71.5,534.59-90,514.46-169.61,558.78-306.28,562.9"/><path class="cls-4" d="M2820.13,562.9c-117.53-2.32-170.15-15.37-325.66,41.55-229.65,86.73-102.2,40.79-403.82,102.22-354.82,75.47-442.92,263.44-560.16,244-191.32-60-358.83-630.39-573.17-633-121.07,12.53-190,174-338.7,282.1C422.66,730.61,316.35,576.68,71.5,538c-160.89-22-242,20.83-377.78,24.86"/><path class="cls-4" d="M2820.13,562.9c-117.46-2.35-169.92-14.88-325.66,42-227,85.47-109,42.12-403.82,99.39-352.08,71.69-441.22,263.57-560.16,246.37C1339.63,895.49,1170.71,341,957.32,336,835.87,346.82,767.4,503.9,618.62,608.35,422.79,734.48,317,583.07,71.5,541.5-89.22,517.65-171,558.94-306.28,562.9"/><path class="cls-4" d="M2820.13,562.9c-117.19-2.37-169.92-14.36-325.66,42.36-229.62,86.15-126.7,45.29-403.82,96.57-349.18,68-439.44,263.62-560.16,248.78-195-51.5-368-611.7-586.2-595.32-119.2,22-190,177.44-338.7,269.74-111,62.42-190.8,41.52-312.64-8.82-328-137.1-389.73-59.37-599.23-53.31"/><path class="cls-4" d="M2820.13,562.9c-117.67-2.41-170.15-13.72-325.66,42.77-225.58,84.32-125.57,44.87-403.82,93.75-347.29,64.47-437,263.64-560.16,251.19-190.4-45.55-362.74-568.1-573.17-578-122,7.39-190.17,156-338.7,252.89-195.48,116.71-300-29.61-547.12-77.11C-89,520.74-172,559.08-306.28,562.9"/><path class="cls-4" d="M2820.13,562.9c-120.89-2.5-171.86-12.48-325.66,43.11-68.85,25.6-92.31,36.47-143.29,50.29-83.06,20.19-169.08,24.11-273.56,42.42C1733.31,763.28,1647,974.36,1517.48,946.8,1325.08,881,1155.11,382.54,944.29,392.24c-119.77,17.9-190,164.28-338.7,249.31C494,699.19,413.83,676.75,293,626-34.47,486.91-102.59,557.26-306.28,562.9"/><path class="cls-4" d="M2820.13,562.9c-119.87-2.46-170.7-12.08-325.66,43.19-204.28,74.85-130.46,47.38-390.8,83.19-333.53,49.29-440.33,246-560.14,255.77-189.85-9.66-365.44-495.38-573.19-530.81-124.76-8.73-191.75,126.25-338.69,220.64C432.82,752.65,327.8,614.24,84.52,558.27c-168.71-35.89-253.13,1-390.8,4.63"/><path class="cls-4" d="M2820.13,562.9c-132-2.69-177.3-10.26-338.67,48-194.28,71.37-150.79,43.72-390.81,75.09-330.8,46.92-433.31,256.21-560.16,253.23-195.33-28.87-374-507.07-586.2-504C823.6,448.43,753.85,582.3,605.59,657.72c-113.31,51.78-194.26,27-312.64-22.78C-32,496.68-81.89,557.34-306.28,562.9"/><path class="cls-4" d="M2820.13,562.9c-133.26-2.69-177.75-9.22-338.67,48-196.49,70.88-161.88,43.84-390.81,69.85C1760.29,722.11,1661.4,933.49,1530.49,934c-191.88-22.09-368-458.29-573.17-477.32C838,456.56,772.87,572,631.65,652.75,433.08,757.11,329.55,626.4,84.52,565.69c-169-39.12-251.41-6-390.8-2.79"/><path class="cls-4" d="M2820.13,562.9c-133.72-2.7-178-8.27-338.67,48-193.83,68.64-159.79,42.3-390.81,64.6C1762.92,711.16,1664,924.64,1530.49,928.83,1338,912.92,1161.1,499.59,957.32,478.38c-120.13-2-184.76,107.67-325.67,183.3-198.53,97.69-301.52-29.31-547.13-92.27-169.52-40.83-248-9.61-390.8-6.51"/><path class="cls-4" d="M2820.13,562.9c-122.91-2.44-171.22-8.56-325.66,43.46-211.39,73.15-167.49,44.95-403.82,63.4-323.29,29.36-424,244.79-560.16,253C1337,913.31,1159.06,523.67,957.32,500.34c-120.14-3.94-185.59,99.94-325.67,170C433.22,761,330.83,638,84.52,573c-169.34-42.22-251.76-12.85-390.8-10.07"/><path class="cls-4" d="M2820.13,562.9c-93.46-1.94-138.25-5.82-234.47,16.4-102,25.53-150.89,52.58-234.48,69.33-151,25.6-283.6-12.75-455.94,55.87-242.43,103.83-288.08,268.35-455.94,184.34-170.12-95.78-307.36-330.74-469-363.94-157.37-20-236.8,150-429.88,179C388.52,719.81,301,636.81,97.55,579.5c-178.3-47.93-258.36-19.18-403.83-16.6"/><path class="cls-4" d="M2820.13,562.9c-93.79-1.88-138.47-5.28-234.47,16.67-100.57,24.87-152.51,51.92-234.48,67.11-154,23.69-283.37-20.07-455.94,47-228.6,96-282.21,255.61-442.9,196.66-170.48-73.15-307.81-293.85-469-339.62C824.33,517,742,675.28,553.49,706.85,399,726.05,307.34,644.59,110.58,586.31-77.34,532.66-153.2,560.54-306.28,562.9"/><path class="cls-4" d="M2820.13,562.9c-150.3-2.76-178.79-4-364.72,55.26-148.93,46.53-170.45,29.67-351.74,29-306.84,2.6-405.24,194-547.13,242.47C1366.59,937.15,1186,644,996.4,577.57,770.71,513.19,704,809.5,345.06,677.41,127.73,594.27,44.8,543.5-202.07,558.38c-51.83,3.3-60.07,3.94-104.21,4.52"/><path class="cls-4" d="M2820.13,562.9c-198.37-3.89-211.68,10.07-390.8,62.42-140.34,39.24-198.3,14.5-351.71,14.46C1775,644.67,1684,856.37,1530.49,885.69c-196.67,21.47-373-249.6-560.15-291.62-129.23-20.91-194.19,59-338.69,106.58C515.6,735,434,715.1,319,670.1-44.92,524.54-46.27,560.1-306.28,562.9"/><path class="cls-4" d="M2820.13,562.9c-186-3.42-204.8,7.62-377.76,57.83-145.4,40.73-186,17.71-351.72,11.23-301-7.26-393,194.1-547.12,240.8-196.79,44.18-377.77-200.51-560.16-252.91C759.45,568.2,695,814.34,332,677.38-50.44,529-24.4,560.56-306.28,562.9"/><path class="cls-4" d="M2820.13,562.9c-189.21-3.18-208,9.7-377.76,56.87-137,36.56-171.9,17.56-338.7,4.26-298.57-19.95-391.53,169.07-547.13,231.7-198.62,65.89-381.57-150-560.14-210.1-229.88-66.11-297.43,164.5-651.34,37C-37.64,540.21,13.61,561-306.28,562.9"/><path class="cls-4" d="M2820.13,562.9c-205.93-3.16-220.8,16.11-390.8,59.22-134,32-182.92,7-338.68-7.76-297.12-23.38-377.35,171.75-547.12,233-207,61.5-384.22-132.76-560.16-183.41C755.91,608.82,692,810.15,332,678.14-47.54,535.71-30.23,562-306.28,562.9"/><path class="cls-4" d="M2820.13,562.9c-285.09-4.2-327.13,63.29-482,71.43-158.95,3-276.67-65.55-442.9-12.67-192.28,68.65-258.34,220-442.9,230.09-178.32,2.69-308.49-113.92-455.94-162C826.7,640.8,746.4,724.6,566.51,728c-163.43-1.41-252.92-68.2-469-131.2-173.69-49.23-242.37-34-403.83-33.85"/><path class="cls-4" d="M2820.13,562.9c-178.28-2.41-200.27,9.67-364.72,50.87-139.83,33.58-175.92,15.54-338.71-12.93-297.8-48.64-366.76,116.57-547.12,209.53C1352,911.85,1172.17,773,1009.42,715.92c-242.26-77.8-312.18,86.47-651.34-27.86C-31.34,552.83,25.24,563.51-306.28,562.9"/><path class="cls-4" d="M2820.13,562.9c-195-2.38-215.15,16-377.76,53.06-230.46,49.23-353-84.78-560.14-16.23-217.66,80.85-310.34,318.16-651.35,220.5-100.08-30.71-160.61-66-247.51-91.1-137.26-35.61-208-5.8-338.7,3.19-221.09,11.42-318-73.22-586.2-143.11-144.25-35.74-215.32-25.89-364.75-26.31"/><path class="cls-4" d="M2820.13,562.9c-197-2.13-219.24,18-377.76,52.18C2297,644.29,2247.06,611.63,2090.65,579c-278.33-53.21-349.31,120.73-547.12,215.05C1307.2,898.9,1161.21,803,996.4,751.73c-248.82-71.86-306.13,45-651.34-70.81-383.53-131.19-369.2-116.59-651.34-118"/><path class="cls-4" d="M2820.13,562.9c-185.24-1.73-209.64,15-364.72,48.64-147.81,30.14-191.32,2.16-351.74-38.32-280.44-66.92-347.52,93.56-547.13,199.69-251.71,127.46-382.54,52-560.14-2.35C735.46,695.2,691.5,794.44,332,674.35-42.26,547.77-53.31,564.72-306.28,562.9"/><path class="cls-4" d="M2820.13,562.9c-184.1-1.67-209.5,16-364.72,47.91-137.39,26.35-179,4.57-338.71-42.42-283.3-80-343.1,65.14-547.12,182.33-247.55,137.07-362,105-547.13,46.61C729.05,706.64,697,788.25,358.08,680.68-35.42,553.89-18.39,565.6-306.28,562.9"/><path class="cls-4" d="M2820.13,562.9c-261.78-2.06-326.9,59.07-469,57.09-163.58-8.63-277.11-111.08-442.9-82.65-150.62,32.68-199.4,130-429.89,247.78-161.63,80.4-257.65,87-416.86,42.37-333.16-96.57-285.23-55.72-508-97.84-183.2-36.46-293.89-92.83-508-142-133.07-29-201.49-23-351.72-24.72"/><path class="cls-4" d="M2820.13,562.9c-187.27-1.24-221.72,20.24-364.72,46.55-241.78,40.8-347.34-115.64-547.13-85.46-128.7,25.43-195.79,108.06-325.67,188.2-230.8,139.42-323.74,186.51-547.13,124.7C719.42,747,778.22,774.54,579.54,734c-219.61-46.27-424-135.93-625.29-162.08-88.43-10.23-136.51-7.39-260.53-9"/><path class="cls-4" d="M2820.13,562.9c-187.38-1-222.76,21.26-364.72,46.15-243.94,38.88-346.64-123.53-547.13-97.88-126.59,22.22-191.71,101.3-325.67,185.07-164.63,102-251.06,167.62-390.81,175.49-92.73,2.07-155.09-20.65-273.56-54.32C659.93,742.87,688.32,760.62,514.41,715.6,237.13,642.54,84.47,570.13-163,564.27c-45.27-.78-59.3-.27-143.29-1.37"/><path class="cls-4" d="M2820.13,562.9c-254.22-1-328.65,59.86-469,51.8-165.12-16.24-277.27-133.66-442.9-116.35-117.7,18-147.8,66.25-482,285.69-260.16,166.79-354.21,87.7-664.38-4.89C-55.75,540.94-22.79,566.85-306.28,562.9"/><path class="cls-4" d="M2820.13,562.9c-187.37-.52-228.69,23.84-364.72,45.35-249.07,35.06-355.08-147.92-560.17-121-90,16.38-148.77,62.35-234.48,124.5-59.67,42.55-58.73,38.83-117.23,78.43-216.58,150-294.76,250.31-560.16,174-172.43-51-100.61-44.38-377.78-128.81C-22,548-23.52,567.09-306.28,562.9"/><path class="cls-4" d="M2820.13,562.9c-187.36-.28-230.61,24.9-364.72,44.94-246,32.33-346.71-146.79-547.13-135.13-105.82,11.56-152.45,57.67-351.74,193.15-124.38,87.61-206.44,180.29-338.69,222.49-177.76,49.29-331.58-52.07-534.1-126.85C440.65,673.13,160,601.74,6.36,577.57c-109-15.82-170.41-12.45-312.64-14.67"/><path class="cls-4" d="M2820.13,562.9c-186.75,0-232.2,25.85-364.72,44.69-141.66,17.48-200.6-20.2-338.71-89.43-174.79-85.77-257.33-77.93-416.85,34.11-118,84.11-100.06,66.83-156.32,107.91-125,94.82-212,200.7-351.73,241.25C929.08,965.92,859.88,741.12,71.5,587.74c-144.21-27.06-204.22-22.1-377.78-24.84"/><path class="cls-4" d="M2820.13,562.9c-355.8-.28-373.49,124-651.33-22-81.68-43.49-148.46-82.46-234.47-90.46-125.76-5.37-192.85,61.63-351.72,167.41-194.8,133.61-305.47,344.55-560.16,291.44C820.65,861.42,762.74,760.83,384.14,655,19.3,555-120.88,565.59-306.28,562.9"/><path class="cls-4" d="M2820.13,562.9c-236.37,0-318.05,57.4-455.91,47.36C2194.61,590.82,2086.41,451,1921.29,439.64c-84-1.41-141.2,30.44-208.43,74.82-190.74,129.45-168.36,110.87-299.61,236.61C1285.32,872.3,1180.41,959,996.4,911.31,745.3,839.75,732.62,697.15,71.5,583.48c-145.43-24.07-204.73-18.29-377.78-20.58"/><path class="cls-4" d="M2820.13,562.9c-174.46.21-222.38,24.4-351.71,43.14-149.21,19.11-209.9-20.23-351.72-102.61-173.18-98.69-255.68-102.11-416.85,5.38-20.31,13.77-123.79,83.64-143.31,98.29C1438,701.65,1352.66,829.05,1217.85,900.37c-202.77,97.16-362.65-49.58-547.12-145.93C472.05,653,313,621.25,84.52,583.44c-155.95-25-211-18.39-390.8-20.54"/><path class="cls-4" d="M2820.13,562.9c-232.86.5-318,58.51-455.91,46.21-176.64-23.32-284.48-179.24-455.94-190.88-83.8-1.13-141.36,32.15-208.43,76.09-139.24,92.95-151.28,96.55-247.51,197.94-150.52,160-259.5,285.36-455.94,236.07C826.16,880.08,788,797.64,553.49,695.92,398,630.67,255.73,606.73,71.5,579.22-73.89,558.38-128.57,564.8-306.28,562.9"/><path class="cls-4" d="M2820.13,562.9c-232.29.68-317.2,59.13-455.91,45.93-171.17-23.7-277.13-174.46-442.93-198.79-83.55-7.81-140.67,20.35-208.43,62.41C1556.06,573.09,1535.5,590.79,1452.34,682,1299.85,851.17,1190.53,982.81,996.4,934.85,826.11,886.8,783.81,795.51,553.49,691.41c-157.16-68.53-308.11-91.48-495-116.23C-78.9,557.94-133.37,564.39-306.28,562.9"/><path class="cls-4" d="M2820.13,562.9c-237.06.76-327.87,64.21-469,44.35-168.64-31.46-277.21-185.93-442.9-205.63-83.3-5.32-140.42,24.86-208.43,67.47-163.74,105-162.15,105.68-299.61,262.91-118.63,134.28-229.08,254.72-416.87,202-166-52.28-215.29-151.19-442.91-253.18-149.51-64.4-293.23-85.21-482-108.17-138.31-15.92-192.78-8.9-364.75-9.77"/><path class="cls-4" d="M2820.13,562.9c-163.23.57-211.28,22.9-338.67,42.43C2212.91,642.22,2139,450.12,1934.33,398.89c-102.38-20.27-173.17,9.86-351.72,135.57-126.52,94.82-209.36,252.46-351.73,357.94-220.33,151.36-383.49-32.67-560.15-145.68C472.26,622.93,330.75,603,84.52,573.12c-158.72-18.53-209.83-10-390.8-10.22"/><path class="cls-4" d="M2820.13,562.9c-344.93,1.32-388.84,133.66-651.33-39.66-252.3-170-307.35-198.85-586.19-1.12-130.14,98.64-216.72,271.56-364.76,378-218,144.38-374.52-44.46-560.15-164.41C463.55,613.7,318.77,595.18,71.5,568.94c-150.63-15.15-204.72-6.23-377.78-6"/><path class="cls-4" d="M2820.13,562.9c-347.29,1.44-391.09,138.61-664.34-50-239.73-168.08-306.1-193.89-573.18-3.14-183.81,140.86-310,476-560.16,441.8C799.77,910.17,721.29,691.81,371.11,607.64c-251.9-56.91-509.84-45.52-677.39-44.74"/><path class="cls-4" d="M2820.13,562.9c-344.68,1.38-393.14,139.91-664.34-50.69C1913.65,340,1857.64,317.49,1608.66,480.67c-200.31,135.66-318.82,479.51-560.16,474.38C815.87,937.2,741.16,702,397.16,609c-72.86-18.5-132.48-26.28-208.42-34.25-278.28-28-243.94-14.1-495-11.86"/><path class="cls-4" d="M2820.13,562.9c-333.24,1.07-396.32,135.86-651.33-40.75-94.48-67-150.89-115-234.47-144-114.87-33.9-191.37,7.78-312.65,85.36-214,139.9-323.61,479-560.15,489.16-236.59-3.57-316.92-254.15-664.37-348.09-73.12-18.51-132.89-26-208.42-33.45-272.08-25.82-246.69-11.92-495-8.27"/><path class="cls-4" d="M2820.13,562.9c-332.77.76-397.77,137-651.33-40-245.35-175.54-303.25-227.1-560.14-59.49-199,135-318.41,488.71-560.16,486.52C811.69,934.38,735.64,685.73,384.14,597c-247.25-58.29-556.26-36.79-690.42-34.05"/><path class="cls-4" d="M2820.13,562.9c-330.53.51-399.59,137.89-651.33-39.17-245.31-177-305.38-234.68-560.14-68.89-198.73,134.9-317.93,493.3-560.16,492.59C811.44,933.06,734.1,680.8,384.14,592.58c-255.25-59.94-608.67-31.81-690.42-29.68"/><path class="cls-4" d="M2820.13,562.9c-345,.21-399.11,145.25-664.34-47.85-227.15-168.29-302.94-234.68-560.16-60-188.46,137.21-314.5,502.64-560.15,489.08-235.25-26.12-312.05-276.66-664.37-359C125.34,531.9-186.67,559.09-306.28,562.9"/><path class="cls-4" d="M2820.13,562.9c-349.38-.33-399.56,146.82-664.34-46.49-223.43-166.14-299-237.73-547.13-77-197.57,134.2-317.73,499.66-560.16,501.41C811,928.64,730.88,672,384.14,584.53,137.35,526.73-204.2,559-306.28,562.9"/><path class="cls-4" d="M2820.13,562.9c-347.5-1.23-401.38,146.57-664.34-44.15-210.17-155.48-300-251.15-560.16-74.7-187.53,136.76-314.16,501.86-560.15,489.72C799.8,909.05,720.4,661.54,371.11,578.82,125.9,525-172.37,556.78-306.28,562.9"/><path class="cls-4" d="M2820.13,562.9c-342.89-2.06-404.07,145.72-664.34-41.81-203.79-150-300.62-257-560.16-81.24C1408.34,576.41,1281.74,939.1,1035.48,927.4c-234.7-24-317.39-268.11-664.37-351.25-251.32-55.85-569-19-677.39-13.25"/><path class="cls-4" d="M2820.13,562.9c-223-1.93-314.74,60.17-455.91,52.39-256.93-24.91-369.94-363.2-664.37-238.91-103.61,47.32-152.43,93.69-208.42,160-150.54,184-264.72,393.39-455.95,384.65-278.12-27.8-322-339.48-859.77-373.31-241.62-13.94-270.72,2.37-482,15.19"/><path class="cls-4" d="M2820.13,562.9c-214.43-2.41-304.08,54.65-442.9,53.51C2120.52,604.56,1999.07,274,1725.9,363c-88.88,32.51-154.18,80.6-208.42,138.94-151.79,171.48-264.86,399.72-455.95,413.15-284.3,3.45-339.38-337-885.82-370.18-236.43-13-269.3,3.32-482,18"/><path class="cls-4" d="M2820.13,562.89c-220.86-3.19-315.3,58.18-455.91,53.07C2108,596.23,1988.79,259.42,1699.85,371.43c-96.63,41.13-148.84,87.91-208.42,157.71-150.18,181.5-264.36,386.37-455.95,378.18C756.1,880.6,698.88,570.8,162.68,541.7c-223.83-11-258,5-469,21.19"/><path class="cls-4" d="M2820.13,562.89c-221.32-4.16-314.76,56.24-455.91,52.72-179-11.53-288-175.93-455.94-245.89-163.58-60.41-312.56,38-416.85,158.58-149.78,178.49-264,378.65-455.95,370.38-278.8-26.28-349.16-329.63-872.8-359-219.91-11-258.42,5.41-469,23.22"/><path class="cls-4" d="M2820.13,562.88c-224.19-5.18-312.89,54.31-455.91,52.38-176.06-9.12-276.94-158.44-442.93-235.94-160.73-68.27-306.13,12-416.85,133.3-154,175.67-269.87,386.09-469,377.42C765.29,865,666.39,566.81,162.68,537.61c-218.7-11.23-263.39,6.45-469,25.25"/><path class="cls-4" d="M2820.13,562.87c-346.06-9.48-415.48,142.65-677.38-34.23C1955.63,399,1834,269.87,1595.63,429.21c-190.59,137.33-314.94,474.67-573.18,451C788.19,848.15,687.27,641.89,345.06,560.16c-235.68-52.6-446.85-17.63-651.34,2.68"/><path class="cls-4" d="M2820.13,562.87c-221.92-7-313.93,50.35-455.91,51.68C2183.29,609.71,2077,456.44,1908.28,382c-167.77-66.85-305.83,20.55-416.85,143.84-148.83,169.85-262.87,355.47-455.95,347-277.29-25-394.15-313.55-885.82-339.94-204.7-9.64-255,8.46-455.94,30"/><path class="cls-4" d="M2820.13,562.86c-222.93-8.14-313.65,47.76-455.91,50.71-182.31-2.52-285.54-150.64-455.94-226.61-406.11-164.2-514.85,492.84-872.8,477C756.09,839.15,622.85,554.18,136.63,530.39c-192.93-8.3-248.25,10.05-442.91,32.41"/><path class="cls-4" d="M2820.13,562.84c-223.26-9.42-313.59,44.36-455.91,49-176.65-.08-279.4-134.25-442.93-212.93-409-182.26-518.62,456.63-872.79,456.57-278.27-12.37-444.94-298.33-898.84-325.9C-50.6,519-110.1,538.79-306.28,562.77"/><path class="cls-4" d="M2820.13,562.83c-343-16.43-424.27,123.17-664.34-14.18-194.12-115.35-326.3-265.15-560.16-111C1410.27,569,1287.77,857.11,1035.48,845.82,793,825.31,648.82,636.64,319,553.15c-247.1-58.79-467.95-10.82-625.28,9.59"/><path class="cls-4" d="M2820.13,562.81c-345.81-18.47-426.3,118.94-664.34-11.49-94.12-53.69-155.75-105.16-247.51-146-316-129-441.13,219.79-677.4,377.3-215.61,133.46-409-7.78-638.31-121.77-234-114.94-352-133.77-521.07-137.49-144.26-1.82-213.59,16.81-377.78,39.32"/><path class="cls-4" d="M2820.13,562.8c-226.24-13.38-310.62,34-455.91,43.79-184.53,7.31-287.32-120.18-455.94-195.11-400.87-164.23-496.68,433.23-872.8,416.22-323.67-26-508.28-304.77-990-306.18-129.69,1.08-197.93,18.94-351.72,41.16"/><path class="cls-4" d="M2820.13,562.78C2470,539.88,2388.82,672,2155.79,556.12c-94.88-49.36-154.87-97.39-247.51-138.2-400.2-163.09-490.06,418.29-872.8,401.33-336.56-26-526.84-292.67-977-299.25-139.28-.51-215.17,20.25-364.75,42.66"/><path class="cls-4" d="M2820.13,562.76c-364.42-26.25-434.24,107.88-677.38-11.5C1946,450.44,1811.42,314.13,1595.63,454.34c-184.84,128.37-302.81,368-560.15,357.15C766.31,792,551,620.53,293,547.7,60.73,486-142.4,537-306.28,562.64"/><path class="cls-4" d="M2820.13,562.75c-372.08-28.79-436.39,101.64-677.38-9.57-206.55-99.83-340.17-236.38-560.14-84.42-184.41,135.09-297.49,351.9-560.16,334.08C728.7,775.56,533.24,620.46,293,548.35,60.52,482.62-144.41,536.3-306.28,562.61"/><path class="cls-4" d="M2820.13,562.73c-382.34-32.26-436.75,96.35-677.38-7.63-201.12-91.33-341.81-231-560.14-81-187.28,136.1-296.09,337.65-560.16,321-330.7-28.32-505.54-178.91-742.53-250-226-63.65-430.8-8.79-586.2,17.5"/><path class="cls-4" d="M2820.13,562.71c-386.47-35.34-439.75,90-677.38-5.69-204.11-86.73-344.25-225.07-560.14-77.5-193.75,139.62-295.51,328.68-573.19,306.9-365.24-34.95-496.19-166.86-729.5-240.91-227.18-67.75-437-9.13-586.2,17.06"/><path class="cls-4" d="M2820.13,562.7c-393.94-38.93-441.55,83.32-677.38-4.53-207.87-82-346.52-218.35-560.14-73.06C1388.74,623.74,1289,794.78,1022.45,781.05,630.82,754,529.73,634.48,293,550.42,65.1,473.83-137.78,532-306.28,562.55"/><path class="cls-4" d="M2820.13,562.69c-402.79-42.9-443.67,75.68-677.38-4.12-210.83-76.69-348.68-210.84-560.14-67.66-197.56,140.23-292.07,300.56-573.19,284.31-135.86-9.57-199.86-12.31-325.67-51.91C531.71,673.1,441.8,609.73,306,556.23,77,470.17-119,527.52-306.28,562.55"/><path class="cls-4" d="M2820.13,562.68c-416.55-47.21-449.58,72-690.41-8-221.58-78.32-346.3-199.37-560.14-48.73-203.47,149-289.29,277-560.16,264.38-136.51-7.76-214.52-5.9-351.72-51C414.45,635,339.88,520.85,71.5,510.37-74.44,506.66-163.33,535-306.28,562.55"/><path class="cls-4" d="M2820.13,562.68c-434.3-52.75-446.81,66.23-690.41-7.25-226.6-73-347.55-192.45-560.14-43.8-215,155.67-289,265.4-573.18,253.16-121.74-6-207.06,2.92-351.73-45.13C409.57,636.86,336,519.81,71.5,509c-145.59-3.88-234.87,25.22-377.78,53.55"/><path class="cls-4" d="M2820.13,562.67c-442.16-57.26-448.54,59-690.41-6.44-229.52-66.86-348.27-185.91-560.14-38.87C1359.09,668,1282.43,766.92,1009.42,760.42,871.24,756.11,794.08,769,657.7,728.73,514.71,683.27,425.94,612.36,293,554.08c-223.54-93.09-433-25.42-599.23,8.47"/><path class="cls-4" d="M2820.13,562.67c-460.17-63-452.34,55.77-703.43-9.87-96.5-27-155.67-57.35-247.51-83.37-149.55-39.19-213.71-7.79-312.65,62.35-252.75,183.16-299.6,228.77-586.2,224.88-96.08-.68-185.09,17-325.67-26.38C413.15,653.2,339.58,517.9,71.5,506.19-73,502.13-162.25,532.44-306.28,562.56"/><path class="cls-4" d="M2820.13,562.69c-466.35-67.68-447.92,44.2-690.41-7.26-101.58-23.63-163.16-54.47-260.53-81.14-151.34-38.47-213.16-7.88-312.65,62.09-123.6,88.52-218.72,167.13-364.74,202.8-87.54,19.12-144.16,15.36-234.48,16.75C877,758,781.12,778,644.67,736.67c-135-44.5-223.16-119.33-351.72-181.21-209.69-96-393.77-36.86-599.23,7.13"/><path class="cls-4" d="M2820.13,562.7c-136.14-20.84-226.58-36.06-364.72-23-137.23,14.63-190.22,42.6-338.71,12.31-97.4-21.67-153.19-47.89-247.51-72.85-155.41-38.28-214.78-6.4-312.65,61.84-296.42,209.83-336.13,204.31-599.22,214.3-81,4-177.51,27.94-312.65-12.23-134-43.74-223.88-122.67-351.72-187-209.65-100.3-397.32-37.65-599.23,6.53"/><path class="cls-4" d="M2820.13,562.71c-139.49-22.5-236-40.68-377.76-26.88-127.28,14.13-181.09,41.09-325.67,15.76-95.5-18.51-155.83-44.19-247.51-67.59-162.66-38.79-220.19-2.35-312.65,61.57-280.28,196.17-332.9,195.58-586.2,208.28-99.06,6-182.34,33.24-312.64-.61-135-39.38-221.42-118.35-351.72-189.7-217.11-113.91-410.42-46.06-612.26-.9"/><path class="cls-4" d="M2820.13,562.73c-131.87-22-229-43.21-364.72-33.28C2319,541.51,2268,573.36,2116.7,551.19c-95.58-15.79-154.22-39.39-247.51-62.33-180.27-41.58-227.67,2.82-351.71,88.26-247,168.47-323.4,159.9-547.14,175.8C873.05,761,787,792.14,657.7,759.55,516.9,719.28,429,631.66,293,557.32c-205.32-106.72-392.37-42-599.23,5.35"/><path class="cls-4" d="M2820.13,562.75c-144.36-25.3-241.32-47.94-377.76-37.24-125.93,11.94-178.78,42.36-325.67,24.54-95.13-13.31-155-35.67-247.51-57.61-182.27-40.69-226.63,2.55-351.71,87.81C1253,757.6,1159.18,733.73,957.32,755c-91.67,11.11-181.57,44.93-312.65,7.43-140.13-45.12-230.46-139.51-364.75-212-197-100.42-388.6-33.81-586.2,12.23"/><path class="cls-4" d="M2820.13,562.78c-152.3-27.71-244.67-51.27-377.76-42.25-125.1,10.71-177.75,42.42-325.67,27.78-101.32-11.9-164.8-35.45-260.55-56.15-174.57-35.15-216.05,8.08-338.67,90.36-250,165.42-339.92,149.51-547.14,173.22C869.88,768.63,785.68,805.3,657.7,773.06,517.41,732.35,429,637.26,293,557.34,91.83,445-95.88,512.61-306.28,562.75"/><path class="cls-4" d="M2820.13,562.82c-162.65-30.68-253.75-56.72-390.8-46.27-118.51,11.31-174.71,43.12-325.66,28.78-96.34-10.9-155.63-31.32-247.52-50.54-172.35-33.7-214.33,6.78-325.66,81.36-259.36,172.1-356.85,154-560.15,181.68-103.63,15.67-192,57.61-325.67,18.27-226-75.56-300.15-270.68-573.17-281-136.13-2.45-220.32,29.64-377.78,67.69"/><path class="cls-4" d="M2820.13,562.85c-225.56-44.05-297.26-74.87-508-33.11-196.87,37.94-283.14,2.6-455.94-32.32-221.82-42.08-225.21,34.56-442.9,151.64-190.92,99.32-307.13,87.25-455.93,113.13-80.65,15.46-124.53,38-221.46,36.56-269.13-14-362.22-300.85-677.39-305.6-129.4.68-210.95,32-364.75,69.68"/><path class="cls-4" d="M2820.13,562.88c-164.08-33.15-249.2-61.88-377.76-57.28-123.89,7.14-174.41,42.27-325.67,37.49-94.69-4.74-155.1-21.66-247.51-40.5-186.22-36.34-219.38-.19-338.7,78.29-265.18,172-391.27,147.93-573.17,183.7-102.31,22-190.55,67.47-325.67,20.65-139.57-54.37-229.81-165.66-364.75-244C80.65,440.18-116,515.62-306.28,562.88"/><path class="cls-4" d="M2820.13,562.9c-169.48-35-257-67.54-390.8-61.06-119.17,8.55-179,46.11-338.68,38-97-6.65-156.24-24.53-247.51-40.91-172.78-28.65-206.43,14.53-325.66,91.36-253,159.53-382.17,138.88-560.16,177.74-101.8,24.16-190.48,71.7-325.67,23.44C493.16,735.83,401.14,620,266.9,540,80.45,436.26-115,515.12-306.28,562.9"/><path class="cls-4" d="M2820.13,562.9c-160.53-33.71-248.39-67.67-377.76-65.66-122.76,4.83-173,41.33-325.67,41.14-94.64-1.83-155.41-16.87-247.51-34.6-181.47-33.69-215.92-3.3-325.66,69.56-261.79,170.93-390.66,155.11-573.19,195.73-105.53,25.25-192.69,76-325.67,33C516.54,754.64,433.21,654.42,306,563.63c-202.27-138-377.43-59.45-612.26-.73"/><path class="cls-4" d="M2820.13,562.9c-159.09-33.68-247.3-70.35-377.76-69.63C2320.22,497,2270.31,534,2116.7,535.86c-94.48-.56-155-14.64-247.51-32C1686,470.64,1653,500.74,1543.53,573.34c-250.92,163.49-379.35,155.18-560.16,196.47-109.62,26.67-188.59,75.86-312.64,46.38C455.28,754.42,347.27,507.67,110.58,487.14c-153.67-9.62-256.73,35.68-416.86,75.76"/><path class="cls-4" d="M2820.13,562.9c-191.5-41.07-298.38-94.61-469-64.46-160,31.4-223.16,52.55-429.89,15.12-290.16-53.68-251.63-6.95-468.95,115.21-193.55,105.38-314.87,106.33-469,144.67-141.22,37.31-240.32,110.83-416.86.45-174.08-115.71-263.09-272.95-455.93-289-154.42-9-252.95,37.24-416.86,78"/><path class="cls-4" d="M2820.13,562.9c-157.63-34.25-246.29-75.67-377.76-77.57-124.16,1.53-178.41,42.41-338.7,45.76-95.19.28-154.34-13.24-247.52-29.35-182.71-30.33-210.67,5.43-325.66,80.06-250.31,159.34-393.16,148.51-573.17,202.93-102.84,33-185.81,81-312.65,35.35C511.05,765.18,423.84,646.61,293,550.91c-196-135.69-385.31-41.14-599.23,12"/><path class="cls-4" d="M2820.13,562.9c-150.22-32.84-237.52-74.07-364.72-80.3-199.16-4.53-201.73,87.71-586.22,20.22-185.74-31.71-214.21-4.54-325.66,69.27-257.82,167.43-401.87,157.68-586.21,216.79C844.9,827,762.55,875.1,631.65,819.3,498.24,755.6,410.36,631.6,279.92,539.81,91.15,415.12-103.33,512.68-306.28,562.9"/><path class="cls-4" d="M2820.13,562.9c-148.39-32.51-236.93-75.37-364.72-82.61-126.56-3.81-168,34.06-325.69,44.6-262.13,13-362.86-102.6-547.11,19C1310.48,726.38,1194.29,722.62,996.4,780.46,877,817,797.68,873.94,670.73,838.25,456.12,766.19,347.3,493.79,110.58,477.7c-155.27-6.33-258.19,46.13-416.86,85.2"/><path class="cls-4" d="M2820.13,562.9c-146.83-32.24-236.4-76.66-364.72-84.92-126.33-4.74-167.65,33.14-325.69,44.19C1867.06,536,1766.29,420.3,1582.61,541.76,1311.5,724,1194,722.65,996.4,783.92,877.5,822.34,798,880.13,670.73,842.6,456,767.32,347.61,489.71,110.58,475.16-44.77,470-149.49,524.49-306.28,562.9"/><path class="cls-4" d="M2820.13,562.9c-151.05-33.24-244.36-81.85-377.76-87.81-171.35-2.85-225.47,80.34-534.09,28.46-219-37.7-243.78-19.11-351.74,53.64-254.36,169.88-401.27,173.53-586.2,239.26-103.07,38.26-186.26,91.9-312.64,45.74C442.82,751.64,344.36,478.81,97.55,472.28c-150.35,0-251.48,53.48-403.83,90.62"/><path class="cls-4" d="M2820.13,562.9c-144.71-31.89-235.47-79.23-364.72-89.54-126.17-6.57-165.56,31.18-325.69,43.38-263.16,15.6-365-100.18-547.11,20.74-277,187.16-399.32,186.43-599.24,258-105.76,39.39-187.9,96-312.64,55.79C450.16,767.43,350,474.73,97.55,469.84c-150.3,1.11-253.5,56.62-403.83,93.06"/><path class="cls-4" d="M2820.13,562.9c-143.17-31.41-234.83-79.73-364.72-90.77-125.56-7.18-166.17,30.4-325.69,42.17-264.65,15-364.76-100.95-547.11,20.35C1306,722.07,1184,723.42,983.37,798c-111.4,43-195.29,102-325.67,50.63C518.77,785.89,428.34,643.78,293,536.62c-78.93-58.85-125.65-70.28-208.43-69C-60.7,473.71-161.38,528-306.28,562.9"/><path class="cls-4" d="M2820.13,562.9c-140.42-30.57-234.47-79.85-364.72-91.36-126.08-7.67-165.79,29.66-325.69,40.47-263,13.36-365.69-101.55-547.11,19.39-276.61,188-398.19,191.33-599.24,268.47-112.17,44.58-195.56,103.07-325.67,50C442.47,749.63,344.3,465.66,97.55,465.09c-150.69,3.76-255.61,62.45-403.83,97.81"/><path class="cls-4" d="M2820.13,562.9C2681.89,533,2586.36,483,2455.41,471c-126.12-8.16-165.43,28.87-325.69,38.77-263.26,11.79-365.82-102.68-547.11,18.42C1297.67,722.4,1175,723.37,970.34,807c-115.47,48.82-196.4,99.83-325.67,37.83-133.31-71.61-221-210-351.72-314.41-77.19-58-123.79-70.16-208.43-67.27C-60.66,472-166.06,529.75-306.28,562.9"/><path class="cls-4" d="M2820.13,562.9c-136.44-29.22-233.45-80-364.72-92.53-176.47-12-228.8,72.45-534.12,20.79-384.35-67.67-228.44,40.95-677.39,217.42C1128.79,752.87,1058,771,957.32,814.66c-129,57.56-208.44,95.3-338.7,16.14C485.19,742.57,397.08,599.69,266.9,508.42,88.12,393-109.67,516.85-306.28,562.9"/><path class="cls-4" d="M2820.13,562.9c-134.46-28.57-233.18-80.09-364.72-93.12-175.8-12.67-227.54,70.87-534.12,18.15-379.85-67.6-230,39.06-677.39,219.4C1128.33,753,1058.32,771.89,957.32,816.78c-125.79,57.41-202.62,92.43-325.67,22.79-133.37-83-221.22-226.49-351.73-325.14-185-130-381.66,1-586.2,48.47"/><path class="cls-4" d="M2820.13,562.9c-132.15-27.69-232.26-79.43-364.72-92.7-175.58-12.9-223.72,68.78-534.12,14.17-230.7-41.63-257.57-21.64-364.75,52-255.69,175-404.62,192.51-599.22,280.19-125.45,58-202.36,92.75-325.67,21.83-132.76-83.86-222.16-229.28-351.73-327-185.16-129.67-383.8,5.08-586.2,51.49"/><path class="cls-4" d="M2820.13,562.9c-130.82-27-231-78.39-364.72-91.75-127.44-9.4-165.09,26.13-325.69,30.35-260.79,2.57-366-108-547.11,13.85-286,196.95-404.34,202-612.27,293.9C845,866.2,769.3,909,644.67,843.77,512.36,766.81,422.74,622.19,293,518.22c-77.21-58-124.1-68.87-208.43-63-145.87,14.08-254,76.69-390.8,107.65"/><path class="cls-4" d="M2820.13,562.9C2687.49,536,2582,481.52,2442.37,471.13c-124.3-6-173.93,31.55-338.7,28.34-96.58-3.47-155.76-18.5-247.52-34.55-284.61-47.19-203.61,72.45-638.3,245.92-114.28,44.87-173.06,61.91-273.56,109-128.47,61.13-205.76,83-325.67,5.72C480.43,729,388.29,573.42,253.87,488.21c-171.23-98-371.72,32.64-560.15,74.69"/><path class="cls-4" d="M2820.13,562.9c-166.39-33.13-294.56-111.38-482-86.09-235.64,35.66-256.11,23.86-482-15.78-225.36-37.4-219.44,30.63-442.9,155.94-188.88,103.64-297,119.27-495,213.93-185,87-276.74,32-416.86-110.67-196.77-204.51-251.27-301-469-260.35-129.8,27.08-219.94,76.88-338.7,103"/><path class="cls-4" d="M2820.13,562.9C2692,537.84,2583.77,483.63,2442.37,473,2320.63,467,2275,500.47,2116.7,495.91c-95.56-4.27-154.64-19.32-247.51-36.48-295.86-52.15-212.21,68.81-651.34,246.62-114.78,45.77-171.27,62.43-273.56,111-128.31,61.62-205.39,83-325.67,3.88-138.33-98.39-230-254.34-364.75-338.42-170.77-96-371,39.31-560.15,80.38"/><path class="cls-4" d="M2820.13,562.9c-121.47-23.23-226.4-73.76-364.72-87.24-127.16-9.4-168.1,23.56-325.69,19.1-94.79-4.2-155.16-19.09-247.49-36.8-182.46-33.64-221.78-8.3-338.7,72.62-245.08,166.62-390.9,185.26-586.21,276-124.93,59.22-201.55,93.34-325.67,18.9C498.59,738.21,409.88,592.32,279.92,497.31,212,451.47,166.64,438.93,71.5,451.25-69.86,473.13-179.33,535.82-306.28,562.9"/><path class="cls-4" d="M2820.13,562.9c-124-23.14-233.38-75.75-377.76-86.18-122.47-6-167.4,25.49-325.67,15.81-96.67-7.41-156.4-24.13-247.51-40.85-289.69-50-219.54,74.85-638.31,241.81C1110.41,740.68,1052.52,756.05,944.29,807c-130,61.91-205.74,83-325.67,5.08C485.1,718.2,396.74,573.26,266.9,486.76,89.46,378.92-110.5,522-306.28,562.9"/><path class="cls-4" d="M2820.13,562.9c-119.94-21.81-232.2-73.85-377.76-84.16-123.75-6-166.77,24.55-325.67,12.14-103.74-9.66-166.47-29.25-260.55-45.29-276-43.26-213.09,86.07-638.3,249-140,52.81-164.86,55.26-299.61,119-123.27,57.39-200,63.07-312.65-15.44-133-99.45-222.17-243.47-351.72-321-170.6-91.6-371.57,47-560.15,85.7"/><path class="cls-4" d="M2820.13,562.9c-119.07-21.1-229.41-71.89-377.76-82.15-127.7-6.12-171.86,25.34-338.7,7.05-99.74-12.37-157-30.83-247.52-46.06-274.52-42.09-215.08,90.27-638.3,248.88-116.93,43.09-171,57.29-273.56,105-129.48,60.94-204.47,84.27-325.67,6.86-133-91.92-222-235.2-351.72-319.24C89.35,378.53-110.74,523.62-306.28,562.9"/><path class="cls-4" d="M2820.13,562.9c-111.4-19.21-219.51-66.57-364.72-79.25-132.44-8.93-168.49,20.56-325.69,5.39-96.5-10.8-156-29-247.49-46.63-171.63-30.94-224.2.68-325.69,70.87-245.35,168.66-392,179.41-586.2,264.71-122,55.15-198.16,101.86-325.67,35.45C511.93,736.72,423.24,596,293,498.84c-76.45-53-123.43-61.78-208.43-51C-61.22,470.1-179.88,538-306.28,562.9"/><path class="cls-4" d="M2820.13,562.9c-111.23-18.62-226.24-67.83-377.76-77.82-127.1-6-166.59,21.36-325.67.74-104.5-15-166.91-36.53-260.55-51.56-272.61-39-219.08,100.84-638.3,247.38-120.89,41.55-171.64,53.27-273.56,99.75-130.48,60.44-204.08,85.45-325.67,10.36-132.93-89-222-229.28-351.72-310.66C89.4,379.88-111.6,525.59-306.28,562.9"/><path class="cls-4" d="M2820.13,562.9c-109.17-17.69-214.78-62.28-364.72-74.56-134.93-8.69-169,18.46-325.69-2.41-104-15.36-166.57-37.18-260.53-53.22-282.73-43.45-231.37,102.19-638.31,239.2C1114.57,710.24,1055.4,723,957.32,765.84c-128,57.41-200.71,95.27-325.67,27.3C500.53,714.75,408.52,575.31,279.92,489.3c-72.31-44.5-119.43-51.39-208.42-37.49C-69.09,477.09-187.2,540.7-306.28,562.9"/><path class="cls-4" d="M2820.13,562.9c-103.73-16.25-212.37-60.08-364.72-72.16-135.88-8.54-169.86,17.28-325.69-6.38-104.65-17.35-165.55-39.58-260.53-55.29-279.43-41-237.19,110.64-638.31,237.68-109.11,33.77-169.27,46.27-260.54,83.9-127.44,54.52-204,106.54-338.69,35.84C501,710.91,408.35,573.56,279.92,489.34,207.11,445.41,159.75,439.16,71.5,453-67.56,478.13-190.16,541.88-306.28,562.9"/><path class="cls-4" d="M2820.13,562.9c-98.22-14.85-202.19-55.11-351.71-68.76-146.71-11.24-176.49,16.26-338.7-11.36-103.35-19-168.1-42.57-260.53-57.35-169-23.66-227.85,27.53-325.66,93.43-238,156.53-387.44,144.39-586.21,227.75-122.72,53.15-197,98.31-325.67,33.24C506.78,710.05,415.41,582.4,293,497.75c-76.82-49.36-123.77-56.88-208.43-45.54-145.15,23-270.29,89.5-390.8,110.69"/><path class="cls-4" d="M2820.13,562.9c-99.78-14.55-205.84-55.59-364.72-67.35-138.6-8.29-170.83,14.88-325.69-14.34-98.39-19.91-158.76-42-247.49-57.41-164.75-25.44-228.69,19.46-325.69,85.6-240.89,161.4-389.61,144.94-586.2,222.25-124.15,51-197.08,103.42-325.67,47.89C435.87,677.94,338.07,425.4,97.55,451.66c-149.12,20.18-281,90.3-403.83,111.24"/><path class="cls-4" d="M2820.13,562.9c-94.84-13.31-186.3-48.07-338.67-63-152.18-13-178.92,10.82-325.67-15.45-225.41-43.58-359.13-133.79-560.16-1.38-262.2,177.65-369.81,157-573.18,218.85-147.83,47.59-211.87,113.48-338.7,83.83-213.24-62.18-331-344-560.15-333.89C-31.07,463.88-174.34,541.21-306.28,562.9"/><path class="cls-4" d="M2820.13,562.9c-94.57-12.74-191.2-48.53-351.71-62-148.19-10.7-176.1,10.68-325.67-21-103.9-23.34-167.31-48.6-260.52-63.35C1718.67,394.44,1650,447.21,1556.54,510c-232.1,152.87-383.66,127.57-573.17,193.2C854.25,750.67,785.23,810,657.7,769.33c-213.42-79.69-313.62-337.48-560.15-312C-51,476.42-187.34,544.09-306.28,562.9"/><path class="cls-4" d="M2820.13,562.9c-92.42-11.93-187.57-46.35-351.71-59.79-153.35-11-180.38,10.09-338.7-28.28-105-26.68-169-52-260.53-63.47-162.82-16.19-232.32,46.67-325.66,107.57C1314.26,663.67,1162,627.79,970.34,695.77c-126.7,47.76-196,105.47-325.67,61.05C512,704.31,424.33,586.37,293,503.68,215.6,458.34,168.66,451.57,84.52,462-61.22,483.45-191.64,545.5-306.28,562.9"/><path class="cls-4" d="M2820.13,562.9c-90.75-11.21-174-41.73-338.67-56.56-157.74-12.66-184.05,6.3-325.67-27.06-233.58-58-347.52-135.72-560.16,5.42C1340,657,1228.69,616.77,1022.45,667.68c-145.94,39.23-202.66,104.83-325.67,93.5C482.42,729.47,358,460.91,136.63,460.88c-154.5,5.75-312.76,83.08-442.91,102"/><path class="cls-4" d="M2820.13,562.9c-90.26-10.63-168.36-39.54-338.67-54.4-164.87-12.95-188.05,5.79-338.71-34.41-100.13-27.85-159.4-52.64-247.51-66.55-150.49-20-226.14,28.31-325.66,95.23C1340.83,653.26,1197,612.41,1009.42,659.55c-141.39,39-199.87,105.87-325.67,90.88-208-36.12-330.49-286-547.12-286.34C-17.77,469.5-177.61,545-306.28,562.9"/><path class="cls-4" d="M2820.13,562.9c-88.94-10-163.76-37.43-338.67-52.67-166.85-13.26-189.65,3.5-338.71-38.76-103.42-30.43-168.52-58.09-260.52-69.27-141.8-13.1-215.78,36.85-312.65,101.43-234,152.67-381.72,97.27-573.18,147C859.51,689.89,799.16,757.65,670.73,740c-210.79-40.31-323.79-284-560.15-270.08-150.6,12.78-298.74,77.38-416.86,93"/><path class="cls-4" d="M2820.13,562.9c-89.82-9.61-157-35.12-338.67-51.09-171.95-13.95-193.47,1.81-351.74-47.22-98.27-31.29-160.93-56.55-247.49-66C1611,377.19,1611,581.49,1243.9,612.2c-102.2,7.59-163.55,5.2-247.5,25.58-140.89,38.3-203,112.71-338.7,92.05C445.93,686.61,344,457.05,97.55,475.78c-148,14.53-292.28,73.08-403.83,87.12"/><path class="cls-4" d="M2820.13,562.9c-89.22-9.07-151-32.86-338.67-49.5-169.59-14-193.41-1.69-338.71-47.62-97.3-31.65-160.2-58.46-247.51-69.57-144.82-14.09-220.92,40.35-325.66,109.36-226.42,145-371.85,79.59-560.16,116.46-142.64,32.18-196.67,103.8-325.67,102.45C474.32,711.47,353.56,483.21,136.63,479c-153.18,2.17-322.11,69.55-442.91,83.93"/><path class="cls-4" d="M2820.13,562.9c-92.52-8.91-139.6-30.11-338.67-47.91-179-15.13-199.33-3.46-364.76-61-92.85-32.74-160.72-58.85-247.51-63.32C1607.3,386.27,1607.1,595.79,1230.88,600c-103.67.37-163.94-4.88-247.51,15.3-133,36.58-193,109.18-325.67,99.25C446.48,688.11,344,471.09,97.55,485.38c-150.17,11.87-294.47,65.24-403.83,77.52"/><path class="cls-4" d="M2820.13,562.9c-75.12-6.83-95.71-17.66-234.47-35.34-127.74-15.63-202.46-17.11-273.57-24.81-179.86-22.95-293.38-115.29-455.94-115.57-190.46,6.84-250.48,133.79-429.86,187-176.41,46.7-298.54-9.6-455.95,31.55-153.19,45.42-233.82,155.4-429.88,69.6C363.94,592,290.88,476.77,84.52,491.08-63.1,504-200.95,551.78-306.28,562.9"/><path class="cls-4" d="M2820.13,562.9c-73.77-6.34-94.16-16.67-234.47-34.22C2440.33,511.16,2359,510.06,2286,498c-173.23-32.83-291.46-127.36-455.94-112.22-183.94,24.36-236.79,151.86-429.86,192.85C1228.51,609.93,1111.3,552.71,957.32,597,809.69,644.68,726.66,754,527.43,668.3c-170.29-78.8-242.87-183-442.91-171.68-147.87,11-287.64,56.08-390.8,66.28"/><path class="cls-4" d="M2820.13,562.9c-71.42-5.79-93.54-15.79-234.47-33.18C2413.83,509.14,2345,510.38,2260,490.88c-167.35-42.25-281.22-130.49-442.9-106-181.61,34.91-230.33,161.94-429.89,193.65-170.08,22.08-288.52-38.75-442.91,10.17C801.17,639.33,716.4,747.5,514.41,662.39c-182-82.22-236.56-174.86-455.94-158.22-141.61,12.76-273,50.25-364.75,58.73"/><path class="cls-4" d="M2820.13,562.9c-76.36-5.82-82.21-13.58-234.47-32.13-95.21-11.32-157-16.17-234.48-25.3C2110.39,475.09,1994.36,336.58,1791,388.26c-144.21,42.64-195.14,130.66-338.7,174.65-128.69,34.61-222.32,5.83-351.73-3.71-261.48-14.67-307.17,172.64-534.1,120.33-126.32-34.25-211.74-114-338.69-155.48-163.5-47.38-392.14,26.66-534.1,38.85"/><path class="cls-4" d="M2820.13,562.9c-76.78-5.48-70.56-11.53-247.49-32.63-126.42-14.45-183.87-19.28-247.51-29-220.94-37.66-348.54-182-560.16-106.3C1627.58,449.7,1581.9,529.53,1439.3,565.08c-129.76,27.65-224.29-7-351.72-17-249-14.17-302.53,179.2-534.09,126.43C422.18,639.4,334.36,557.42,201.76,523.94c-156.19-33.54-380.66,28.85-508,39"/><path class="cls-4" d="M2820.13,562.9c-.26,0-430.46-51.6-495-62.48-221.94-41.27-346.78-187.76-560.16-107.1-136.55,57.27-183.9,137.87-325.67,170.42-129.82,24.94-224.34-13.28-351.72-26.13-248.56-19.42-302,178.2-534.09,135.33-125.89-28.22-210.4-101.75-338.7-138.77C54.52,493.45-178.67,553.61-306.28,562.9"/><path class="cls-4" d="M2820.13,562.9c-.24,0-421.1-49.12-508-66.54-215.43-47.86-342.74-194-560.14-99.29-136.3,64.49-186.56,147.49-338.7,168.26-126.42,12.82-217-27.12-338.69-38.27-240.27-15.45-297.45,187.19-534.1,143.61C414.76,642.72,330,571.48,201.76,538.33,44,502.89-189,555-306.28,562.9"/><path class="cls-4" d="M2820.13,562.9c-14.33-.84-414.22-46.17-521.05-71.42-212.3-55.13-337.46-198.48-560.17-89.86C1608.59,470,1558.42,545,1413.25,562.12c-126.42,10.43-217.13-31.78-338.69-44.31-238.24-17.8-298.72,188-534.1,153.93C410.4,647.86,322.73,574,188.74,542.93c-157.08-31.29-385.88,13.27-495,20"/><path class="cls-4" d="M2820.13,562.9c-32.9-1.78-373-41.34-495-67.15C2109.22,446.31,1986.84,301.83,1778,381.87c-135.34,57.46-187,141.38-325.66,171.65-123.09,21.77-213.18-16.8-338.7-39.52-275.1-44.59-309.78,165.93-547.13,161-124.79-8-208.95-72.2-338.69-114.1-170.4-50.55-412-4.83-534.1,2"/><path class="cls-4" d="M2820.13,562.9c-58.83-2.95-379.72-40.72-508-71.93-214.68-56.92-339-205.54-560.14-99.31-134,69.24-188.15,151.83-338.7,164.05-132.23,5.92-226.75-45.65-351.72-57.63-229.88-14.35-296.3,199.64-534.1,174.41-129.27-18.77-215.82-87.9-351.72-117.35-160.13-30.14-388.21,3.05-482,7.76"/><path class="cls-4" d="M2820.13,562.9c-56.67-2.6-323.55-33.19-469-64.31-234.06-52.7-351.1-204.17-560.14-126.51-136,56.29-189.45,143-325.69,174-127.64,23.58-222.33-22.58-351.71-49.63-266.78-50.29-306.46,153.89-534.1,177.81-129.09,7.8-215.73-53.77-351.72-97.94-172.2-52.1-401.5-19.36-534.1-13.44"/><path class="cls-4" d="M2820.13,562.9c-36.35-1.55-293.93-26-469-65.68-151.95-36.08-212.33-91.28-338.7-132.76-255.55-76.49-342,125.41-534.09,174.83-207.17,44-354.17-108.26-547.13-41.73C812.07,544.82,737.6,646.7,592.57,673.65c-123,17.23-206.65-33.15-338.7-81C67.31,528-137.23,556.11-306.28,562.9"/><path class="cls-4" d="M2820.13,562.9c-70.76-2.78-287.61-27.24-429.86-58.06C2215.92,466,2188.91,430,2051.57,374.63c-276.12-105-358.27,90.47-547.13,153.53-205.72,59.26-357.66-92.91-547.12-45.86C832.6,519.58,769.09,615.37,631.65,664.37c-129.48,40.35-219.54-3.94-351.73-54.56-200.36-75-367-54.77-586.2-46.91"/><path class="cls-4" d="M2820.13,562.9c-62.64-2.26-260.71-22.37-403.81-53.11C2225.1,467.45,2210,438,2064.6,376.21c-279.75-113.07-362.59,76.42-547.12,144C1305.8,587.65,1153,425.77,957.32,475.36c-129,39.21-196.44,144-338.7,193.29-124.23,37.29-211.26-2.81-338.7-51.28C79.11,542.33-85.89,556-306.28,562.9"/><path class="cls-4" d="M2820.13,562.9c-60.8-2-241-19.14-377.76-47.91-190.49-41.6-212.8-67.16-351.72-131.1C1814.24,261,1733.22,414.32,1556.54,501c-213.87,95.26-365.7-62.5-560.14-40.75-140.23,22.36-198.84,120.41-338.7,192-111.29,52.25-191.07,40.83-312.64-2.8-195.41-72.05-242.81-97.73-651.34-86.54"/><path class="cls-4" d="M2820.13,562.9c-65.75-1.95-233.87-17.43-364.72-45.33-309.89-68.57-381.7-190.25-560.17-183.88C1758.1,345,1681.55,433.27,1569.58,491.74c-209.36,99.89-355.54-45.92-547.13-41.06-248,17.43-310,315.9-638.31,218.9-183.82-58-221.69-117.5-690.42-106.68"/><path class="cls-4" d="M2820.13,562.9c-66.2-1.8-223.82-15.07-351.71-42.23-324.29-72-369.48-179.64-547.13-189.47-136.66-1.39-216.23,78.42-325.66,142.26-216,118.24-363.84-28.47-560.15-28.74C772.07,455.41,716.73,771,384.14,675.93c-169.28-52.06-233.86-122.16-690.42-113"/><path class="cls-4" d="M2820.13,562.9c-554.49-13.66-684.38-212.85-885.8-232.92-143.32-8-225.22,74.91-338.7,139.09-209.52,110.73-352.39-25.29-547.13-29.9-266.34,4.26-333.76,326.68-651.34,246.69C229.92,639.42,150.54,555-306.28,562.9"/><path class="cls-4" d="M2820.13,562.9c-557.32-12.36-674.81-213.77-885.8-234.85C1791,320,1709,402.62,1595.63,464.67c-213.19,108.71-360.52-37.33-560.15-30.64C768.32,454.08,708.24,775.84,384.14,688.55,233.85,644.43,121.07,555.9-306.28,562.9"/><path class="cls-4" d="M2820.13,562.9c-565.61-11.24-678.61-225.07-898.84-237.52-143.49-1.75-223.79,84.83-338.68,141.29-205.94,92-348.89-48.07-547.13-38-270.57,25-329.75,350.11-651.34,266.16-132-37.83-278.63-137.17-690.42-132"/><path class="cls-4" d="M2820.13,562.9c-565.47-9.84-672-226.53-898.84-239.46-136.8-1.77-215.65,76.15-325.66,132.44C1383.73,556,1241,409.31,1035.48,423.35c-269.54,29.51-331.41,349.54-638.32,281.1-140-35.39-293.3-145.19-703.44-141.55"/><path class="cls-4" d="M2820.13,562.9c-573.2-9-678.3-235.26-911.85-239.75-137.06,3.41-214.35,83.27-325.67,133.05-206.24,83-356-63.36-560.16-35.42-270.88,48.32-328.81,372.07-651.34,282C259.8,668.89,76.29,560.43-306.28,562.9"/><path class="cls-4" d="M2820.13,562.9c-577.34-8.09-675.21-233.31-911.85-239.61-137.26,2.32-213.91,79.92-325.67,126.91-199.18,74.84-345.23-60.85-547.13-35.42C756.84,460.94,695.59,789.64,384.14,711.51,270.35,679.66,73.78,560.88-306.28,562.9"/><path class="cls-4" d="M2820.13,562.9c-191.6-2.36-274-16-364.72-40.41-191.51-53.65-240.18-90.1-351.74-143.95-279.51-131.38-361.68,10-534.09,70.21-195.81,59.4-342.41-75.47-547.13-35.64C744.46,478.22,686.76,801.44,371.11,713c-100-30.72-312-151.35-677.39-150.05"/><path class="cls-4" d="M2820.13,562.9c-270.69-2.88-384-19.74-703.43-177.39-294.63-142-362.67-2.61-547.12,56.89C1376.21,496,1229.71,363,1022.45,409.27,740.94,483.09,683.78,805.89,371.11,718,273.73,688,53.89,562.26-306.28,562.9"/><path class="cls-4" d="M2820.13,562.9c-245.88-2.2-367-8.67-690.41-170.3-69.35-34.19-129.68-61.26-208.43-68.26-144.22-7-223.93,68.76-338.68,107.86-197.45,58.41-344.71-81.07-560.16-26.76-287.08,83.31-340.74,405.1-651.34,317.69C212.8,674,177.85,612.82-189,568.19c-49.66-5.56-64.82-5.29-117.24-5.29"/><path class="cls-4" d="M2820.13,562.9c-271.23-2.13-345-1.76-716.46-179.71-291.22-136-367.84,9.84-547.13,48.85-186.82,32.36-332.91-95.64-547.12-25.87C722,510.36,672.74,822,358.08,722.34,201.26,668.58,160.83,609.64-202.07,567c-42-4.33-58.42-4.06-104.21-4.1"/><path class="cls-4" d="M2820.13,562.9C2583.9,561.26,2490.28,574.77,2116.7,393c-295.94-141-370.8-11-547.12,29.34-186.35,34.25-329.42-94.9-547.13-23.86C728,505.06,675,819,371.11,729.6c-167.4-54.24-177.54-110-560.15-160.75-49.55-6.09-64.77-5.87-117.24-6"/><path class="cls-4" d="M2820.13,562.9c-237-1.68-256.57,7.93-482-68.12-192.78-66.54-290.78-162-455.91-164.17C1696,335,1645.11,445,1439.3,413c-155.57-27.31-268.32-82.7-442.9-7.18C781.25,506,723.77,672.12,553.49,736.05c-160.68,51.08-266.36-55.48-455.94-112C2.93,597.45-179.24,563.2-306.28,562.9"/><path class="cls-4" d="M2820.13,562.9c-229.52-1.33-247.83,14.69-495-70-189.85-66.69-294.06-166.75-469-159.41-181.43,14-218.25,107.57-429.86,66.26-181.12-37.88-273.33-74.59-442.92,10-215.42,114-271,278.88-442.91,334-159.17,41.81-261.33-67-455.94-122.38-97.31-26.21-275.14-58.35-390.8-58.52"/><path class="cls-4" d="M2820.13,562.9c-163.23-.61-218.73,11.63-351.71-22-201.68-54.49-289.58-110.06-390.8-155.15-276.19-119.23-363.79,10.69-534.09,17.51-183.17-.09-312.18-120.55-547.13-2.49-296.65,157.85-343.13,444-651.34,328.93-95-37.75-143.15-71.48-247.51-103.46-82.95-23.92-276.6-63-403.83-63.29"/><path class="cls-4" d="M2820.13,562.9c-166.7-.82-220.43,16.05-364.72-22-209.31-58.28-270.1-102.8-390.81-154.7-275.39-113.84-357,15.75-534.11,8.84-183.14-13.93-304.71-127.82-547.12,10.42C687.56,581.91,644.68,852.82,332,725.14,236.59,684.19,189.08,651.65,84.52,621.7c-84.44-22.77-267.65-58.52-390.8-58.8"/><path class="cls-4" d="M2820.13,562.9c-168.16-.62-218.41,19.21-364.72-18.27-330.33-89.8-406.28-202.49-612.27-201.32-141.31,4.95-200.53,56.44-325.66,42.17-122.18-17.9-205.62-68.78-338.71-56.66-245.25,31.34-426.91,290.8-547.12,378.39-203.26,136.93-321-22.12-547.13-86.39-64.86-17.28-261.66-57.63-390.8-57.92"/><path class="cls-4" d="M2820.13,562.9c-168.55-.42-216,22.46-364.72-14.58C2228.47,488.13,2176,443,2038.53,388.41c-268.28-102.14-344.79,20.77-534.09-13.94-202-42.66-294.42-129.63-547.12,44.4C665.61,624.72,629.91,865.6,306,714.15,159.61,643.84,124.43,609.62-215.09,566.34c-34.09-3.4-52.87-3.35-91.19-3.44"/><path class="cls-4" d="M2820.13,562.9c-170.29-.21-213.84,25.63-364.72-10.89-334.63-86.54-409-197.2-625.31-201.53-153.66.81-196.52,46.77-338.67,11.69C1275,304.1,1197.09,241,944.29,427.22,760.1,565,730.25,652.42,605.59,729.35c-196,109.09-306.3-58.29-547.12-116.85C16.73,603-183.12,563.2-306.28,562.9"/><path class="cls-4" d="M2820.13,562.9c-167-.15-206.39,27.15-351.71-4.14-327.75-77-408.4-188.71-625.28-204.3-153.79-7.3-204.28,36.41-338.7,1.83-216.37-61.13-292.34-132.65-547.12,60.09-207.71,159.55-226,238-351.73,315.63-199,110.57-306.7-66.47-560.15-123.22-29.1-6.12-233.2-45.6-351.72-45.89"/><path class="cls-4" d="M2820.13,562.9c-166.05-.1-205.2,30.09-351.71.25-327-73.14-413.75-186.7-638.32-204.26-160.21-9.08-197.25,30.23-338.67-15.45C1271.07,268.23,1199,223.19,957.32,414.89,732.09,595.48,710.08,684,579.54,747.4,388.23,828,293.71,653.35,19.39,601.71-218,559.49-258.34,563.08-306.28,562.9"/><path class="cls-4" d="M2820.13,562.9c-168-.06-202.13,33.33-351.71,4.69-316.79-67.2-405.82-173.7-625.28-202.15-161-17.54-206.26,18.76-338.7-26.42-121.63-44.29-206.81-98.5-338.7-58.67-96.91,34-163.8,95.87-286.59,198.25C758.46,581.79,687.32,712.51,553.49,759,369.78,810.7,288.66,645,6.36,597.71c-238.21-37.77-248.84-34.59-312.64-34.81"/><path class="cls-4" d="M2820.13,562.9c-232.14,0-175.24,58.27-495-27.31C2146,486.9,2037.26,405.11,1856.15,373c-96-15.23-152-9.32-234.47-14.44-85.29-7.2-125.31-33-221.44-72.41-181.66-71.1-274.68-17.39-416.87,103.19C755.9,584.92,848.76,511.66,709.81,653.64,445.63,913.69,339.7,665,58.47,605.15c-51.25-10-273.23-39.39-273.56-39.44-31.39-2.82-49.7-2.69-91.19-2.81"/><path class="cls-4" d="M2820.13,562.9c-98.68,0-78.36-.67-143.29,11.05-147.69,25-206.74,4.89-338.7-29.13-157.83-40.24-218.81-83.42-364.72-134.14-158-52.68-237.24-43.48-351.74-55.62-203.58-25.92-304-215.1-547.12-43.53-49.23,36.58-76.35,62-143.3,122.31C744.78,599.92,817.75,549,696.78,668.44c-222.47,210-336.92,43.87-547.12-40.05-114.38-42-395-65.32-455.94-65.49"/><path class="cls-4" d="M2820.13,562.9c-99.22.05-79-.69-143.29,12.11-141.07,26.5-201,10.29-325.66-21.21-217.82-53.86-295.38-120.07-482-165.92-103.38-23.85-161.52-23.47-247.51-36.36-164.5-28.06-258.78-162.34-429.88-112.33-83.53,29.21-146.66,87.69-208.43,145.18-228.44,214.47-17.19.82-260.54,259.71C572.83,798.7,484.12,803.31,306,705.4c-208.84-117-187-96.62-521.07-140.08-29.62-2.46-49-2.32-91.19-2.42"/><path class="cls-4" d="M2820.13,562.9c-107.85.13-71.24-1.83-156.3,15.88-142.9,27.65-202,7.26-325.69-21.77-194-44.25-287.46-114.89-482-165.21-106.09-26.13-163.52-28-247.49-45.93-155.51-37.42-255.61-179.87-429.89-113.4-91.23,40.22-153.94,109.83-247.51,199.88-67.86,64.22-61.57,52-117.24,112.11C700.82,669.89,617.58,782.31,475.33,769.88c-152.51-22.23-230.39-145-442.91-176.19-.26,0-260.29-29.7-260.54-29.72-27.85-1.05-37.73-1-78.16-1.07"/><path class="cls-4" d="M2820.13,562.9c-109,.1-70.11-2.5-156.3,17.22-143.51,30.69-201.1,11-325.69-16.66-147.93-31.48-229.82-76.9-377.76-131-175.93-62.88-255.81-62.94-364.75-93.66-86.35-28.67-141.87-80.37-234.48-118.53-187.79-69-288.08,73-442.91,224-208.87,198.52-280,351.84-455.94,323.24C340.49,740.84,255.87,651.11,123.6,609.17,41.17,586-21,587.32-136.93,574.84c-98-11.28-55.16-11.78-169.35-11.94"/><path class="cls-4" d="M2820.13,562.9c-112,.07-69.54-3.08-156.3,18.55-144.42,33.86-201.09,14.57-325.69-11.54C2189,540.5,2107,495.83,1947.34,436.71c-187.62-68.31-293.61-76.24-377.76-112.36-186.53-89.06-282.39-253.21-534.1-2.6-60.14,61.34-87.61,94.58-143.3,146.94C787.34,563.45,750.56,632.86,657.7,710.4,445.65,874.28,322.25,659.64,110.58,601.9c-38.9-9.29-63.84-12.39-104.22-16.19-306.91-26.05-182.49-22.59-312.64-22.81"/><path class="cls-4" d="M2820.13,562.9c-121.58.09-62.79-4-169.34,23.2C2500.48,622,2435,594,2325.13,574c-135.54-25.41-229.14-72-390.8-133.29-186.91-69.74-287.9-84.93-364.75-121.47-82.22-43.12-136.56-96.2-221.47-130C1155,123,1052.46,315.13,892.18,468.79c-164,149.87-247.73,343.55-442.91,294.29-118.56-36.19-199.36-123-325.67-161.34-79.4-21-137.28-17.88-247.51-27-127.55-11.56-40.7-11.7-182.37-11.89"/><path class="cls-4" d="M2820.13,562.9c-121.92,0-62.29-4.68-169.34,24.8-152.28,39.48-217.72,10.93-325.66-7.07-144.42-24.9-252.62-78.42-429.89-146.34-309.12-117.36-264.71-72.37-429.89-189.72-65.71-46.17-126.91-87.22-208.42-82.4-131.25,17.6-214,148.31-338.69,280.66C859.76,502.65,876.89,477,814,548,667.44,717.19,580.26,838.66,371.11,728.59c-142.76-79-182.26-131.07-338.69-145.65-53.85-4.2-80.9-3.91-143.3-7.93C-272,563.29-136.61,562.9-306.28,562.9"/></g></g></svg>