<svg id="Layer_1" data-name="Layer 1" xmlns="http://www.w3.org/2000/svg" viewBox="0 0 1920 1080"><defs><style>.cls-1{fill:#00a9a4;}</style></defs><path class="cls-1" d="M456.35,571.88q-1.23,27.24-21.76,46.11-20.7,18.87-49.3,18.87-24.81,0-44.44-10.66-23.58-12.78-30-37.12a17.6,17.6,0,0,1,1.82-13.55,17.25,17.25,0,0,1,11-8.21,17.57,17.57,0,0,1,13.54,1.82,17.3,17.3,0,0,1,8.22,11q2.73,10.2,14.91,16a59.37,59.37,0,0,0,25,5,35.76,35.76,0,0,0,24.49-9,29.6,29.6,0,0,0,11-21.91,18.86,18.86,0,0,0-5.63-14.15q-9.44-10-31.65-10.35h-.76q-37.29-.62-57.06-21.46-16.29-17.34-15.22-40.32,1.21-27.39,21.76-46.26t49.3-18.87q24.79,0,44.43,10.65,23.59,12.78,30,37.13a17.19,17.19,0,0,1-2,13.55,16.71,16.71,0,0,1-10.8,8.21,17.53,17.53,0,0,1-13.54-1.83,17.22,17.22,0,0,1-8.22-10.95q-2.75-10.2-15.07-16a58.18,58.18,0,0,0-24.8-5,36.34,36.34,0,0,0-24.65,9q-10.2,9-10.8,21.91a19.29,19.29,0,0,0,5.63,14.3q9.43,9.9,31.65,10.2h.76q37.28.62,57.06,21.61,16.28,17.19,15.22,40.32"/><path class="cls-1" d="M840.32,418.65A17.65,17.65,0,0,1,858,436.3V559q0,32.26-22.82,55.08t-54.94,22.83q-32.25,0-55.08-22.83T702.3,559V436.3a17.66,17.66,0,0,1,35.31,0V559a42.53,42.53,0,1,0,85.06,0V436.3a17.65,17.65,0,0,1,17.65-17.65"/><path class="cls-1" d="M1020,571.88q-1.21,27.24-21.76,46.11-20.7,18.87-49.3,18.87-24.81,0-44.43-10.66-23.6-12.78-30-37.12a17.56,17.56,0,0,1,1.83-13.55,17.21,17.21,0,0,1,11-8.21,17.57,17.57,0,0,1,13.54,1.82,17.23,17.23,0,0,1,8.22,11q2.74,10.2,14.92,16a59.35,59.35,0,0,0,25,5,35.8,35.8,0,0,0,24.5-9,29.6,29.6,0,0,0,11-21.91,18.9,18.9,0,0,0-5.63-14.15q-9.45-10-31.66-10.35h-.76q-37.27-.62-57.06-21.46Q873,506.91,874.08,483.93q1.21-27.39,21.76-46.26t49.31-18.87q24.79,0,44.43,10.65,23.58,12.78,30,37.13a17.27,17.27,0,0,1-2,13.55,16.75,16.75,0,0,1-10.81,8.21,17.53,17.53,0,0,1-13.54-1.83A17.26,17.26,0,0,1,985,475.56q-2.73-10.2-15.06-16a58.21,58.21,0,0,0-24.8-5,36.37,36.37,0,0,0-24.66,9q-10.18,9-10.8,21.91a19.37,19.37,0,0,0,5.63,14.3q9.43,9.9,31.65,10.2h.76q37.29.62,57.07,21.61,16.28,17.19,15.21,40.32"/><path class="cls-1" d="M1099.26,454.26h-45.19a17.44,17.44,0,0,1-12.79-5.33,18,18,0,0,1,0-25.26,17.43,17.43,0,0,1,12.79-5.32h126.45a18,18,0,0,1,0,35.91h-45.35V618.9a17.43,17.43,0,0,1-5.33,12.78,18,18,0,0,1-25.26,0,17.42,17.42,0,0,1-5.32-12.78Z"/><path class="cls-1" d="M1537.44,636.86q-45.2,0-77.15-32.11-32.11-32-32.11-77.15t32.11-77.3q31.95-31.95,77.15-31.95t77.29,31.95q32,32.11,32,77.3t-32,77.15q-32.1,32.1-77.29,32.11m0-182.6q-30.29,0-51.74,21.45-21.62,21.62-21.61,51.89t21.61,51.74q21.45,21.6,51.74,21.6t51.88-21.6q21.47-21.47,21.46-51.74t-21.46-51.89q-21.6-21.45-51.88-21.45"/><path class="cls-1" d="M644.32,636.8a18.18,18.18,0,0,1-18.1-18.11V545.8H532.48v72.89a17.68,17.68,0,0,1-5.17,12.78,18.11,18.11,0,0,1-30.89-12.78V436.85a18.08,18.08,0,0,1,30.89-12.78,17.68,17.68,0,0,1,5.17,12.78v72.89h93.74V436.85a18.11,18.11,0,0,1,36.21,0V618.69a18.18,18.18,0,0,1-18.11,18.11"/><path class="cls-1" d="M1370.43,636.8a18.2,18.2,0,0,1-18.11-18.11V545.8h-93.73v72.89a17.69,17.69,0,0,1-5.18,12.78,18.11,18.11,0,0,1-30.89-12.78V436.85a18.08,18.08,0,0,1,30.89-12.78,17.69,17.69,0,0,1,5.18,12.78v72.89h93.73V436.85a18.11,18.11,0,0,1,36.22,0V618.69a18.2,18.2,0,0,1-18.11,18.11"/><path class="cls-1" d="M1204.25,577.34a8.28,8.28,0,0,1-8.19-8.18c-4.62-25.27-4.79-52.77,0-82.77a8.19,8.19,0,0,1,16.38,0,332.13,332.13,0,0,1,0,82.77,8.28,8.28,0,0,1-8.19,8.18Z"/><path class="cls-1" d="M1407.75,577.34a8.28,8.28,0,0,1-8.19-8.18c-4.62-25.27-4.79-52.77,0-82.77a8.19,8.19,0,0,1,16.38,0,332.13,332.13,0,0,1,0,82.77,8.28,8.28,0,0,1-8.19,8.18Z"/><path class="cls-1" d="M478.14,577.34a8.28,8.28,0,0,1-8.18-8.18c-4.63-25.27-4.79-52.77,0-82.77a8.19,8.19,0,0,1,16.37,0,331.18,331.18,0,0,1,0,82.77,8.28,8.28,0,0,1-8.19,8.18Z"/><path class="cls-1" d="M681.64,577.34a8.28,8.28,0,0,1-8.18-8.18c-4.63-25.27-4.79-52.77,0-82.77a8.19,8.19,0,0,1,16.37,0,331.18,331.18,0,0,1,0,82.77,8.28,8.28,0,0,1-8.19,8.18Z"/></svg>