<?xml version="1.0" encoding="UTF-8"?>
<svg id="Layer_1" data-name="Layer 1" xmlns="http://www.w3.org/2000/svg" version="1.1" viewBox="0 0 519.3 1050.5">
  <defs>
    <style>
      .cls-1, .cls-2, .cls-3, .cls-4, .cls-5 {
        fill: #000;
      }

      .cls-1, .cls-6 {
        stroke-width: 0px;
      }

      .cls-7, .cls-2, .cls-3, .cls-4, .cls-8, .cls-5 {
        isolation: isolate;
      }

      .cls-9 {
        fill: #231f20;
        stroke: #000;
        stroke-miterlimit: 10;
      }

      .cls-2, .cls-4, .cls-8 {
        font-size: 43.2px;
      }

      .cls-2, .cls-8 {
        font-family: RockwellNova-Bold, 'Rockwell Nova';
        font-weight: 700;
      }

      .cls-6, .cls-8 {
        fill: #00a9a4;
      }

      .cls-3 {
        font-size: 25.7px;
      }

      .cls-3, .cls-4 {
        font-family: Microsoft-Yi-Baiti, 'Microsoft Yi Baiti';
        font-style: italic;
      }

      .cls-5 {
        font-family: ArialMT, Arial;
        font-size: 47.2px;
      }
    </style>
  </defs>
  <g class="cls-7">
    <g class="cls-7">
      <g class="cls-7">
        <g class="cls-7">
          <g class="cls-7">
            <text class="cls-2" transform="translate(41.3 150.2) scale(.8 1)"><tspan x="0" y="0">6 Powerful</tspan></text>
          </g>
        </g>
      </g>
    </g>
    <g class="cls-7">
      <g class="cls-7">
        <g class="cls-7">
          <g class="cls-7">
            <text class="cls-8" transform="translate(257.6 150.2) scale(.8 1)"><tspan x="0" y="0">Exercises</tspan></text>
          </g>
        </g>
      </g>
    </g>
    <g class="cls-7">
      <g class="cls-7">
        <g class="cls-7">
          <g class="cls-7">
            <text class="cls-2" transform="translate(451.1 150.2) scale(.8 1)"><tspan x="0" y="0">to</tspan></text>
          </g>
        </g>
      </g>
    </g>
    <g class="cls-7">
      <g class="cls-7">
        <g class="cls-7">
          <g class="cls-7">
            <text class="cls-2" transform="translate(41.3 196.3) scale(.8 1)"><tspan x="0" y="0">Loose BELLY FAT</tspan></text>
          </g>
        </g>
      </g>
    </g>
  </g>
  <g>
    <path class="cls-1" d="M53.1,235.3c1.4,0,2.7.4,3.8,1.1s2,1.7,2.7,2.9c.6,1.2,1,2.5,1,4s-.3,2.8-1,4.1c-.7,1.2-1.5,2.2-2.7,3s-2.4,1.1-3.8,1.1-2.2-.2-3.2-.7-1.8-1.1-2.4-1.9v2.3h-5.7v-2.7h2.7v-16.7h-2.7v-2.7h5.7v8.9c1.5-1.7,3.4-2.6,5.6-2.6h0ZM52.5,248.7c1,0,1.8-.3,2.6-.8s1.3-1.2,1.7-2,.6-1.7.6-2.7-.2-1.8-.6-2.6-1-1.4-1.7-1.9-1.6-.7-2.5-.7-1.8.2-2.5.7-1.3,1.1-1.7,1.9-.6,1.7-.6,2.7.2,1.8.6,2.6,1,1.4,1.8,1.9,1.6.7,2.5.7l-.2.2h0Z"/>
    <path class="cls-1" d="M68.1,238.4l3.3,8.7,3.2-8.7h-2.1v-2.7h7.4v2.7h-2.3l-7.6,19.6h-5.1v-2.6h3l1.8-4.5-5-12.4h-2.6v-2.7h7.7v2.7h-1.8,0Z"/>
    <path class="cls-6" d="M90,248.1l2.4-2.9c1.7,1.6,3.9,2.7,6.1,2.7s4.1-1.2,4.1-3-1.5-2.6-3.7-3.5l-3.2-1.4c-2.3-1-4.8-2.8-4.8-6.2s3.3-6.6,7.9-6.6,5.4,1.1,7.3,3l-2.1,2.6c-1.5-1.3-3.1-2-5.1-2s-3.7,1-3.7,2.8,1.8,2.5,3.7,3.3l3.2,1.3c2.8,1.2,4.8,2.9,4.8,6.3s-3.2,7-8.5,7-6.2-1.3-8.5-3.4h0Z"/>
    <path class="cls-6" d="M111.2,227.6h4.2v9.5h9.5v-9.5h4.2v23.5h-4.2v-10.4h-9.5v10.4h-4.2v-23.5Z"/>
    <path class="cls-6" d="M135,240.8v-13.2h4.2v13.5c0,5.1,1.9,6.8,4.8,6.8s4.9-1.7,4.9-6.8v-13.5h4v13.2c0,7.7-3.4,10.8-8.9,10.8s-8.9-3-8.9-10.8h-.1Z"/>
    <path class="cls-6" d="M156.7,248.1l2.4-2.9c1.7,1.6,3.9,2.7,6.1,2.7s4.1-1.2,4.1-3-1.5-2.6-3.7-3.5l-3.2-1.4c-2.3-1-4.8-2.8-4.8-6.2s3.3-6.6,7.9-6.6,5.4,1.1,7.3,3l-2.1,2.6c-1.5-1.3-3.1-2-5.1-2s-3.7,1-3.7,2.8,1.8,2.5,3.7,3.3l3.2,1.3c2.8,1.2,4.8,2.9,4.8,6.3s-3.2,7-8.5,7-6.2-1.3-8.5-3.4h.1Z"/>
    <path class="cls-6" d="M182,231.1h-6.8v-3.5h17.8v3.5h-6.8v20h-4.2v-20Z"/>
    <path class="cls-6" d="M196.9,227.6h4.2v9.5h9.5v-9.5h4.2v23.5h-4.2v-10.4h-9.5v10.4h-4.2v-23.5Z"/>
    <path class="cls-6" d="M219.5,239.3c0-7.6,4.2-12.1,10.4-12.1s10.4,4.5,10.4,12.1-4.2,12.3-10.4,12.3-10.4-4.7-10.4-12.3ZM236,239.3c0-5.3-2.4-8.5-6.1-8.5s-6.1,3.2-6.1,8.5,2.4,8.7,6.1,8.7,6.1-3.4,6.1-8.7Z"/>
  </g>
  <g class="cls-7">
    <g class="cls-7">
      <g class="cls-7">
        <g class="cls-7">
          <g class="cls-7">
            <text class="cls-4" transform="translate(89.9 306.8) scale(.8 1)"><tspan x="0" y="0">Reading time : 5 minutes</tspan></text>
          </g>
        </g>
      </g>
    </g>
  </g>
  <g class="cls-7">
    <g class="cls-7">
      <g class="cls-7">
        <g class="cls-7">
          <g class="cls-7">
            <text class="cls-3" transform="translate(29.9 399.5)"><tspan x="0" y="0">Losing belly fat can often seem like a daunting</tspan></text>
          </g>
        </g>
      </g>
    </g>
    <g class="cls-7">
      <g class="cls-7">
        <g class="cls-7">
          <g class="cls-7">
            <text class="cls-3" transform="translate(29.9 434.3)"><tspan x="0" y="0">task. Especially with the plethora of fat diets and</tspan></text>
          </g>
        </g>
      </g>
    </g>
    <g class="cls-7">
      <g class="cls-7">
        <g class="cls-7">
          <g class="cls-7">
            <text class="cls-3" transform="translate(29.9 469.4)"><tspan x="0" y="0">quick-fix solutions out there. However,sustainable</tspan></text>
          </g>
        </g>
      </g>
    </g>
    <g class="cls-7">
      <g class="cls-7">
        <g class="cls-7">
          <g class="cls-7">
            <text class="cls-3" transform="translate(29.9 504.3)"><tspan x="0" y="0">and effective belly fat loss hinges on a</tspan></text>
          </g>
        </g>
      </g>
    </g>
    <g class="cls-7">
      <g class="cls-7">
        <g class="cls-7">
          <g class="cls-7">
            <text class="cls-3" transform="translate(29.9 539.2)"><tspan x="0" y="0">combination of dietary choices,regular physical</tspan></text>
          </g>
        </g>
      </g>
    </g>
    <g class="cls-7">
      <g class="cls-7">
        <g class="cls-7">
          <g class="cls-7">
            <text class="cls-3" transform="translate(29.9 574.1)"><tspan x="0" y="0">activity, and overall lifestlye adjustments.</tspan></text>
          </g>
        </g>
      </g>
    </g>
    <g class="cls-7">
      <g class="cls-7">
        <g class="cls-7">
          <g class="cls-7">
            <text class="cls-3" transform="translate(29.9 644)"><tspan x="0" y="0">First and foremostm diest plays a crucial role.</tspan></text>
          </g>
        </g>
      </g>
    </g>
    <g class="cls-7">
      <g class="cls-7">
        <g class="cls-7">
          <g class="cls-7">
            <text class="cls-3" transform="translate(29.9 679)"><tspan x="0" y="0">Embracing a diet rich in whole foods like lean</tspan></text>
          </g>
        </g>
      </g>
    </g>
    <g class="cls-7">
      <g class="cls-7">
        <g class="cls-7">
          <g class="cls-7">
            <text class="cls-3" transform="translate(29.9 714)"><tspan x="0" y="0">proteins, fruits,vegetables, and whole grains can</tspan></text>
          </g>
        </g>
      </g>
    </g>
    <g class="cls-7">
      <g class="cls-7">
        <g class="cls-7">
          <g class="cls-7">
            <text class="cls-3" transform="translate(29.9 749)"><tspan x="0" y="0">significantly impact your body composition.</tspan></text>
          </g>
        </g>
      </g>
    </g>
    <g class="cls-7">
      <g class="cls-7">
        <g class="cls-7">
          <g class="cls-7">
            <text class="cls-3" transform="translate(29.9 783.8)"><tspan x="0" y="0">Cutting back on refines sugar and porocessed</tspan></text>
          </g>
        </g>
      </g>
    </g>
    <g class="cls-7">
      <g class="cls-7">
        <g class="cls-7">
          <g class="cls-7">
            <text class="cls-3" transform="translate(29.9 818.7)"><tspan x="0" y="0">foods helps regulate your insulin levels and reduce</tspan></text>
          </g>
        </g>
      </g>
    </g>
    <g class="cls-7">
      <g class="cls-7">
        <g class="cls-7">
          <g class="cls-7">
            <text class="cls-3" transform="translate(29.9 853.8)"><tspan x="0" y="0">calories intake without compromising on essential</tspan></text>
          </g>
        </g>
      </g>
    </g>
    <g class="cls-7">
      <g class="cls-7">
        <g class="cls-7">
          <g class="cls-7">
            <text class="cls-3" transform="translate(29.9 888.6)"><tspan x="0" y="0">nutrients.Incorporating healthy fats such as those</tspan></text>
          </g>
        </g>
      </g>
    </g>
    <g class="cls-7">
      <g class="cls-7">
        <g class="cls-7">
          <g class="cls-7">
            <text class="cls-3" transform="translate(29.9 923.6)"><tspan x="0" y="0">rom avocados,nuts and olive oil can also aid in</tspan></text>
          </g>
        </g>
      </g>
    </g>
    <g class="cls-7">
      <g class="cls-7">
        <g class="cls-7">
          <g class="cls-7">
            <text class="cls-3" transform="translate(29.9 958.6)"><tspan x="0" y="0">fat loss by promoting satiety and proviiding your</tspan></text>
          </g>
        </g>
      </g>
    </g>
    <g class="cls-7">
      <g class="cls-7">
        <g class="cls-7">
          <g class="cls-7">
            <text class="cls-3" transform="translate(29.9 993.5)"><tspan x="0" y="0">body with necessary nutrients.</tspan></text>
          </g>
        </g>
      </g>
    </g>
  </g>
  <path class="cls-9" d="M211.6,36.8h96.1c7.1,0,12.9,5.8,12.9,12.9h0c0,7.1-5.8,12.9-12.9,12.9h-96.1c-7.1,0-12.9-5.8-12.9-12.9h0c0-7.1,5.8-12.9,12.9-12.9Z"/>
  <g class="cls-7">
    <text class="cls-5" transform="translate(27.5 359.9) scale(.3 -1)"><tspan x="0" y="0">____________________________________________________________</tspan></text>
  </g>
</svg>