<svg id="Layer_1" data-name="Layer 1" xmlns="http://www.w3.org/2000/svg" xmlns:xlink="http://www.w3.org/1999/xlink" viewBox="0 0 1920 1080"><defs><style>.cls-1,.cls-10,.cls-12,.cls-13,.cls-3,.cls-4,.cls-6{fill:none;}.cls-2{clip-path:url(#clip-path);}.cls-10,.cls-13,.cls-14,.cls-18,.cls-3,.cls-4,.cls-5,.cls-6,.cls-8{stroke:#1a2e35;}.cls-13,.cls-14,.cls-18,.cls-3,.cls-4,.cls-5,.cls-6,.cls-8{stroke-linejoin:round;}.cls-4{stroke-width:2px;}.cls-5,.cls-7{fill:#1a2e35;}.cls-13,.cls-14,.cls-18,.cls-5,.cls-6,.cls-8{stroke-linecap:round;}.cls-15,.cls-8{fill:#fff;}.cls-9{fill:#6e90bd;}.cls-10,.cls-12{stroke-miterlimit:10;}.cls-11{fill:#00a9a4;}.cls-12{stroke:#5ae4a7;}.cls-13{stroke-width:3px;}.cls-14{fill:#fc8864;}.cls-16{opacity:0.3;}.cls-17{opacity:0.15;}.cls-18,.cls-19{fill:#006769;}</style><clipPath id="clip-path"><rect class="cls-1" x="-658.83" y="-280.13" width="1986.83" height="1146.87" rx="104.91"/></clipPath></defs><g class="cls-2"><path class="cls-3" d="M1399.36,249.94A10.41,10.41,0,1,1,1389,239.53,10.41,10.41,0,0,1,1399.36,249.94Z"/><path class="cls-3" d="M1414.8,327h-51.7V286.19A25.85,25.85,0,0,1,1389,260.34h0a25.85,25.85,0,0,1,25.85,25.85Z"/><line class="cls-4" x1="1388.95" y1="239.53" x2="1388.95" y2="189.11"/><path class="cls-3" d="M1056.54,249.94a10.41,10.41,0,1,1-10.41-10.41A10.41,10.41,0,0,1,1056.54,249.94Z"/><path class="cls-3" d="M1072,327h-51.7V286.19a25.86,25.86,0,0,1,25.85-25.85h0A25.85,25.85,0,0,1,1072,286.19Z"/><line class="cls-4" x1="1046.13" y1="239.53" x2="1046.13" y2="189.11"/><path class="cls-5" d="M1220.68,229a61.18,61.18,0,1,0,61.18,61.18A61.18,61.18,0,0,0,1220.68,229Zm0,116.88a55.71,55.71,0,1,1,55.71-55.7A55.7,55.7,0,0,1,1220.68,345.86Z"/><circle class="cls-6" cx="1220.68" cy="290.16" r="6.73"/><path class="cls-7" d="M1216.44,295.35l-8.93,13.39,3,1.51,9.58-13.42A6.7,6.7,0,0,1,1216.44,295.35Z"/><path class="cls-7" d="M1227.41,290.29a6.71,6.71,0,0,1-1.9,4.55l28.11,24.43,3-2Z"/><polygon class="cls-8" points="1370.68 649.66 1414.01 649.66 1419.43 589.58 1365.27 589.58 1370.68 649.66"/><polygon class="cls-5" points="1370.68 649.66 1414.01 649.66 1419.43 589.58 1365.27 589.58 1370.68 649.66"/><path class="cls-7" d="M1420,540.39a.89.89,0,0,0-1.24-.33l-18.38,10.63,9.53-18.85a.92.92,0,0,0-.4-1.22.9.9,0,0,0-1.22.4l-8.53,16.89c.47-15.28-1.34-33.24-2.3-42.75-.33-3.23-.57-5.57-.57-6.35a.91.91,0,1,0-1.81,0c0,.87.23,3.12.57,6.53,1,10.17,3,30.08,2.16,45.8l-16.61-19.73a.91.91,0,0,0-1.39,1.16l17.7,21,0,0,0,0,.06,0a55.85,55.85,0,0,1-2,12L1382.47,553a.91.91,0,1,0-1.27,1.3L1395,567.63a58.14,58.14,0,0,0-2.2,7.56l-.06,0-16.18-8.62a.89.89,0,0,0-1.22.37.91.91,0,0,0,.37,1.23l16.59,8.84.12.05a54,54,0,0,0-.87,12.5.89.89,0,0,0,.9.86h0a.91.91,0,0,0,.86-1,52.52,52.52,0,0,1,1-13.07l14.23-7.12a.9.9,0,0,0,.41-1.21.92.92,0,0,0-1.22-.41l-12.91,6.45a57.77,57.77,0,0,1,2-6.43,54.67,54.67,0,0,0,2.64-14.39l20.19-11.69A.9.9,0,0,0,1420,540.39Z"/><path class="cls-9" d="M1397.71,525.71s10.16-8.89,11.43-17.14-3.18-14-1.91-17.78,5.08-10.16,1.91-15.24-19.05-17.14-19.05-17.14a30.35,30.35,0,0,1-3.81,11.43c-3.18,5.08-1.27,11.42,0,15.87s-7,9.52-2.54,15.87,4.44,7,4.44,12.07S1390.72,524.44,1397.71,525.71Z"/><path class="cls-9" d="M1386.91,539.05a10.94,10.94,0,0,0-1.27-9.53c-3.17-4.44-6.35-1.9-7.62-7s-3.17-8.26-6.34-10.8-3.18-1.9-5.72-3.81-3.17-4.44-5.71-6.35S1352,499,1352,499s1.91,5.08,1.91,8.26-2.54,8.25,1.27,12.06,7,2.54,9.52,7S1371,538.41,1386.91,539.05Z"/><path class="cls-9" d="M1388.18,558.73s.64-8.25-7-11.43-8.89-12.06-17.14-14-14.61,0-15.24,5.08a109.36,109.36,0,0,0-.64,11.43s3.81-6.35,7.62-5.71,6.35,0,10.8,7S1381.83,562.54,1388.18,558.73Z"/><path class="cls-9" d="M1385,572.7c-1.91-.64-5.72-12.7-17.14-14s-26.67,3.81-26.67,3.81,7,3.81,17.14,8.89S1385,572.7,1385,572.7Z"/><path class="cls-9" d="M1399,572.06s5.08-12.06,13.33-14.6,10.8,1.27,15.24,4.45,7.62,5.07,7.62,5.07-5.08-1.9-10.16,3.18-12.06,6.35-18.41,5.71S1399,572.06,1399,572.06Z"/><path class="cls-9" d="M1411,545.4s0-3.18,3.81-10.16,4.45-14,12.07-15.24,8.25-1.91,12.7-5.08,15.24,2.54,17.78,5.08a32.36,32.36,0,0,1,3.8,4.44s-8.25-.63-11.42,3.18-10.16,7-13.34,8.25-6.35-1.27-9.52,3.81S1421.2,546.67,1411,545.4Z"/><path class="cls-9" d="M1406,536.51s-5.71-9.53-3.17-14.61,7.62-7,7-10.16-3.17-7,0-11.43,5.72-2.54,9.53-5.08a114.86,114.86,0,0,0,9.52-7.62s1.27,13.34,0,19.69-5.08,7-5.08,12.06-2.54,8.26-5.71,12.07S1406,536.51,1406,536.51Z"/><line class="cls-10" x1="1359.85" y1="509.43" x2="1356.82" y2="506.11"/><line class="cls-10" x1="1386.91" y1="539.05" x2="1364.21" y2="514.19"/><path class="cls-6" d="M1394.48,470.74a32.92,32.92,0,0,0-1.06-3.76"/><path class="cls-6" d="M1397.71,525.71s.51-29.93-2.09-48.54"/><line class="cls-10" x1="1423.94" y1="499.75" x2="1425.92" y2="495.69"/><line class="cls-10" x1="1405.96" y1="536.51" x2="1421.08" y2="505.59"/><path class="cls-10" d="M1445.78,521.09a16.16,16.16,0,0,1,2.23-.15h4.42"/><path class="cls-10" d="M1411,545.4c1,.15,6.68-7.42,16.46-15a58.27,58.27,0,0,1,11.8-7.37"/><path class="cls-10" d="M1350.26,542a7.88,7.88,0,0,0-1.33,3.86"/><path class="cls-10" d="M1388.18,558.73s-5.49-.87-15.27-11c-9.09-9.39-16.55-10.59-20.09-8.44"/><path class="cls-10" d="M1423.13,563.27c1.52.25,2.88.63,4,.9"/><path class="cls-10" d="M1399,572.06s2,.94,9.9-5a18.43,18.43,0,0,1,9.1-3.92"/><path class="cls-10" d="M1350.51,563.07c-2.73,0-4.42.15-4.42.15"/><path class="cls-10" d="M1385,572.7s-1.06-1.27-13.36-6a58.42,58.42,0,0,0-16.7-3.47"/><rect class="cls-5" x="991.38" y="651.17" width="436.85" height="15.35"/><rect class="cls-6" x="990.5" y="655.36" width="432.15" height="322.91"/><rect class="cls-6" x="999.28" y="680.58" width="194.63" height="74.06"/><rect class="cls-6" x="1214.58" y="680.58" width="194.63" height="74.06"/><rect class="cls-6" x="999.28" y="771.87" width="194.63" height="186.02"/><rect class="cls-6" x="1214.58" y="771.87" width="194.63" height="186.02"/><rect class="cls-5" x="1069.9" y="708.14" width="55.12" height="15.5"/><rect class="cls-5" x="1283.48" y="708.14" width="55.12" height="15.5"/><rect class="cls-6" x="1185.02" y="570.81" width="134.81" height="79.92"/><rect class="cls-6" x="1185.02" y="579.98" width="134.81" height="61.58"/><rect class="cls-6" x="1194.33" y="580.2" width="116.18" height="61.15"/><rect class="cls-6" x="1279.9" y="580.2" width="30.62" height="61.15"/><path class="cls-6" d="M1289.68,610.44a2.9,2.9,0,1,1-2.9-2.9A2.9,2.9,0,0,1,1289.68,610.44Z"/><circle class="cls-6" cx="1295.85" cy="610.44" r="2.9"/><circle class="cls-6" cx="1304.91" cy="610.44" r="2.9"/><path class="cls-6" d="M1289.68,619.14a2.9,2.9,0,1,1-2.9-2.9A2.9,2.9,0,0,1,1289.68,619.14Z"/><circle class="cls-6" cx="1295.85" cy="619.14" r="2.9"/><circle class="cls-6" cx="1304.91" cy="619.14" r="2.9"/><path class="cls-6" d="M1289.68,627.84a2.9,2.9,0,1,1-2.9-2.9A2.9,2.9,0,0,1,1289.68,627.84Z"/><path class="cls-6" d="M1298.75,627.84a2.9,2.9,0,1,1-2.9-2.9A2.9,2.9,0,0,1,1298.75,627.84Z"/><path class="cls-6" d="M1307.81,627.84a2.9,2.9,0,1,1-2.9-2.9A2.9,2.9,0,0,1,1307.81,627.84Z"/><rect class="cls-6" x="1273.49" y="584.16" width="5.8" height="52.23"/><rect class="cls-6" x="1009.75" y="546.94" width="121.09" height="103.8"/><rect class="cls-6" x="1012.93" y="598.28" width="25.39" height="52.19"/><rect class="cls-6" x="1062.3" y="614.22" width="17.63" height="36.24"/><rect class="cls-6" x="1041.84" y="576.41" width="17.63" height="74.05"/><rect class="cls-6" x="1012.93" y="598.28" width="25.39" height="16.22"/><rect class="cls-6" x="651.35" y="291.02" width="339.32" height="687.25"/><rect class="cls-6" x="651.35" y="770.14" width="339.32" height="8.61"/><rect class="cls-6" x="814.98" y="291.02" width="12.06" height="479.12"/><rect class="cls-6" x="787.26" y="382.67" width="12.97" height="273.35"/><path class="cls-5" d="M787.26,382.67s-14,137.22,0,273.35Z"/><rect class="cls-6" x="815.79" y="651.16" width="12.97" height="273.35" transform="translate(34.43 1610.1) rotate(-90)"/><path class="cls-5" d="M685.59,794.32s137.22,14,273.35,0Z"/><rect class="cls-6" x="842.36" y="382.67" width="12.97" height="273.35"/><path class="cls-5" d="M841.28,382.67s-14,137.22,0,273.35Z"/><rect class="cls-11" x="632.52" y="222.04" width="227.85" height="251.08" rx="7"/><path class="cls-8" d="M662.21,242v12.45a5.31,5.31,0,1,1,0,4.29v9.56a5.31,5.31,0,1,1,0,4.3v9.55a5.31,5.31,0,1,1,0,4.3V296a5.31,5.31,0,1,1,0,4.29v9.56a5.31,5.31,0,1,1,0,4.3v9.55a5.31,5.31,0,1,1,0,4.3v9.56a5.31,5.31,0,1,1,0,4.29v9.56a5.31,5.31,0,1,1,0,4.3v9.55a5.31,5.31,0,1,1,0,4.3v9.56a5.31,5.31,0,1,1,0,4.29V393a5.31,5.31,0,1,1,0,4.3v9.55a5.31,5.31,0,1,1,0,4.3v9.56a5.31,5.31,0,1,1,0,4.29v9.56a5.31,5.31,0,1,1,0,4.3V449.1H821V242Z"/><path class="cls-7" d="M714.8,270.12l-.12,8,.54,14.21.51,11.11c0,2-.59,3-1.78,3a1.59,1.59,0,0,1-1.51-1,4.74,4.74,0,0,1-.48-2.14l.48-9.87q0-3.19-.42-9.63t-.42-9.63l.09-5.4q0-4.44-.57-5.76l-3.36.33a2.27,2.27,0,0,1-1.4-.47,1.45,1.45,0,0,1-.62-1.21c0-.49.49-.91,1.48-1.25a16.31,16.31,0,0,1,3.62-.78,55.17,55.17,0,0,1,6.25-.43,2.14,2.14,0,0,1,1.37.5,1.52,1.52,0,0,1,.62,1.25,1.47,1.47,0,0,1-.54,1.2,2.06,2.06,0,0,1-1.33.43l-2.2-.12a5,5,0,0,0-.64,0A63,63,0,0,1,714.8,270.12Z"/><path class="cls-7" d="M737.52,287.35l-.54,7.82v.27a16.82,16.82,0,0,0-.39,3.71,10.72,10.72,0,0,1-.7,3.85,9.06,9.06,0,0,1-2.11,3.29,4.29,4.29,0,0,1-3.11,1.44,4.77,4.77,0,0,1-3.08-1.15,9.16,9.16,0,0,1-2.29-2.94,23.9,23.9,0,0,1-1.6-4.29,44,44,0,0,1-1.07-4.86c-.25-1.58-.46-3.24-.62-5q-.36-4-.35-6.24c0-1.48,0-2.74,0-3.8s0-2-.06-2.85v-3.05c0-1.19,0-2.25.1-3.2s.14-2,.28-3.06a25.59,25.59,0,0,1,.49-2.9,16.13,16.13,0,0,1,.82-2.46,8,8,0,0,1,1.21-2,4.46,4.46,0,0,1,3.47-1.75,7.23,7.23,0,0,1,3.35.71,5.93,5.93,0,0,1,2.34,2.28c.63,1,1.18,2.06,1.66,3a15.27,15.27,0,0,1,1.11,4.12c.27,1.76.49,3.19.65,4.27a44.65,44.65,0,0,1,.33,4.74q.12,4.14.12,6.46Zm-5.47-22.62a6.69,6.69,0,0,0-1.54-2.44,2.71,2.71,0,0,0-1.83-.86,2,2,0,0,0-1.49.63,4.91,4.91,0,0,0-1,1.8,24.61,24.61,0,0,0-.72,2.49,22.32,22.32,0,0,0-.49,3.06c-.11,1.16-.2,2.21-.28,3.15s-.11,2-.15,3.08q-.06,2.81-.09,4.38v.27a68.55,68.55,0,0,0,.63,8.92q.63,4.79,1.31,7.83a20.31,20.31,0,0,0,1.83,5.18c.76,1.42,1.62,2.13,2.56,2.13s1.52-.78,2.09-2.33a25.29,25.29,0,0,0,1.2-5.79c.41-4.11.61-7,.62-8.65s0-2.87,0-3.64,0-1.87-.09-3.33-.13-2.83-.26-4.11-.27-2.69-.46-4.24a32.34,32.34,0,0,0-.76-4.13A30.16,30.16,0,0,0,732.05,264.73Z"/><path class="cls-7" d="M764.36,283.25l.15,1.3a28.26,28.26,0,0,1-2.33,10.32q-2.65,6.79-6.28,9.63a6.9,6.9,0,0,1-4.22,1.66,4.15,4.15,0,0,1-2.08-.53,1.7,1.7,0,0,1-.94-1.59c.91-.94,1.36-3.37,1.36-7.27q0-3.43-.57-10.23t-.58-10.17l.18-6.76a19.21,19.21,0,0,0-.68-4.4,19.14,19.14,0,0,1-.67-3.9c0-1.43,1.57-2.15,4.73-2.15h.94q6.3,0,9.15,7.07,2,4.92,2,13.58v2.87A1.16,1.16,0,0,0,764.36,283.25ZM753,296.65v5.92a13.72,13.72,0,0,0,4-4.21,22.34,22.34,0,0,0,2.63-5.91,46,46,0,0,0,1.69-12.22q0-7-1.75-11.05t-4.41-5.49a7.66,7.66,0,0,0-3.68-.81v.06q0,5.58.74,16.81T753,296.65Z"/><path class="cls-7" d="M783.88,287.35l-.54,7.82v.27a16.82,16.82,0,0,0-.39,3.71,10.72,10.72,0,0,1-.7,3.85,9.06,9.06,0,0,1-2.11,3.29,4.29,4.29,0,0,1-3.11,1.44,4.75,4.75,0,0,1-3.08-1.15,9.16,9.16,0,0,1-2.29-2.94,23.9,23.9,0,0,1-1.6-4.29,44,44,0,0,1-1.07-4.86c-.25-1.58-.46-3.24-.62-5q-.36-4-.35-6.24c0-1.48,0-2.74,0-3.8s0-2-.06-2.85v-3.05c0-1.19,0-2.25.1-3.2s.14-2,.27-3.06a27.85,27.85,0,0,1,.5-2.9,16.13,16.13,0,0,1,.82-2.46,8.29,8.29,0,0,1,1.2-2,4.5,4.5,0,0,1,3.48-1.75,7.23,7.23,0,0,1,3.35.71,5.93,5.93,0,0,1,2.34,2.28c.63,1,1.18,2.06,1.66,3a15.27,15.27,0,0,1,1.11,4.12c.27,1.76.49,3.19.65,4.27a44.65,44.65,0,0,1,.33,4.74q.12,4.14.12,6.46Zm-5.47-22.62a6.69,6.69,0,0,0-1.54-2.44,2.71,2.71,0,0,0-1.83-.86,2,2,0,0,0-1.49.63,4.91,4.91,0,0,0-1,1.8,24.61,24.61,0,0,0-.72,2.49,20.88,20.88,0,0,0-.49,3.06c-.11,1.16-.2,2.21-.28,3.15s-.12,2-.16,3.08q-.06,2.81-.09,4.38v.27a68.65,68.65,0,0,0,.64,8.92q.63,4.79,1.31,7.83a19.94,19.94,0,0,0,1.83,5.18c.76,1.42,1.62,2.13,2.56,2.13s1.52-.78,2.09-2.33a25.29,25.29,0,0,0,1.2-5.79q.6-6.17.62-8.65c0-1.66,0-2.87,0-3.64s0-1.87-.09-3.33-.14-2.83-.26-4.11-.27-2.69-.46-4.24a34.19,34.19,0,0,0-.76-4.13A30.16,30.16,0,0,0,778.41,264.73Z"/><line class="cls-10" x1="687.23" y1="335.8" x2="787.64" y2="335.8"/><line class="cls-10" x1="687.23" y1="357.07" x2="787.64" y2="357.07"/><line class="cls-10" x1="687.23" y1="378.35" x2="787.64" y2="378.35"/><line class="cls-10" x1="687.23" y1="399.62" x2="787.64" y2="399.62"/><line class="cls-10" x1="687.23" y1="420.89" x2="787.64" y2="420.89"/><rect class="cls-10" x="790.19" y="323.89" width="19.57" height="17.87"/><rect class="cls-10" x="790.19" y="346.01" width="19.57" height="17.87"/><rect class="cls-10" x="790.19" y="368.14" width="19.57" height="17.87"/><rect class="cls-10" x="790.19" y="390.26" width="19.57" height="17.87"/><rect class="cls-10" x="790.19" y="412.38" width="19.57" height="17.87"/><line class="cls-12" x1="806.56" y1="320.35" x2="792.89" y2="345.49"/><line class="cls-12" x1="790.19" y1="323.89" x2="809.76" y2="341.76"/><line class="cls-12" x1="806.01" y1="390.85" x2="790.16" y2="404.51"/><line class="cls-12" x1="793.44" y1="388.12" x2="807.1" y2="408.34"/><line class="cls-12" x1="684.25" y1="277.24" x2="700.69" y2="283.16"/><line class="cls-12" x1="687.54" y1="264.74" x2="702" y2="273.95"/><line class="cls-12" x1="806.57" y1="266.06" x2="790.13" y2="274.61"/><line class="cls-12" x1="806.57" y1="277.89" x2="790.79" y2="287.76"/><polyline class="cls-13" points="860.67 358.42 902.61 358.42 902.61 399.16"/><path class="cls-14" d="M1046,971.64s-9.21,9.54-13.3,12.27-14.65,5.45-16,8.52,1.71,5.46,1.71,5.46,1,3.4,6.82,5.11,15,0,15,0,10.91,2.73,19.43.68,13.29-10.23,19.77-10.91,12.27-2.72,14.66-8.86-12.27-11.25-22.5-15S1046,971.64,1046,971.64Z"/><path class="cls-6" d="M1037.12,990.39a86.83,86.83,0,0,1-10.23,2.72c-4.09.69-8.18,3.75-6.82,7.5"/><path class="cls-6" d="M1018.37,997.89s0-5.8,8.52-7.5"/><path class="cls-6" d="M1017.35,994.82s-.34-5.11,9.54-6.82"/><path class="cls-14" d="M1131.65,985.8s1.59,4.59-1.82,10.72a9.59,9.59,0,0,0,3.06,13c2.73,1.71,7.5,2,9.55.69s2.73-1,2.73-1a72.69,72.69,0,0,0,12.27.69c5.11-.35,10.9-.35,11.93-5.46s-2.73-8.52-2.73-10.56.34-9.55.34-9.55-15-13.63-22.84-14S1131.42,982.23,1131.65,985.8Z"/><polyline class="cls-6" points="1145.16 1009.13 1146.53 1003.34 1146.53 999.93"/><path class="cls-6" d="M1151,1009.47a23.63,23.63,0,0,0,2.39-6.47l.34-2.73"/><path class="cls-6" d="M1159.14,1009.13a24,24,0,0,0,1-6.81v-2.39"/><path class="cls-6" d="M1164.59,1008.79A16.81,16.81,0,0,0,1166,1003c0-2.73-1-1.36-1-1.36"/><path class="cls-15" d="M1042.67,688.52s-2.76,51.73.69,75.18-1.38,73.8-1.38,100,4.83,81.39,5.52,87.6-4.14,22.76-4.14,22.76a280.07,280.07,0,0,0,29.66,11c15.86,4.83,24.83,2.76,27.59-2.76s-4.14-78.63-4.14-94.5,10.35-94.49,10.35-100.7V773.36s11.72,96.56,14.48,120,2.76,50.35,3.45,58.63,6.9,33.8,6.9,33.8,2.07-3.45,11.72-4.14,24.14,6.9,24.14,6.9a41.77,41.77,0,0,0,11-19.32c2.76-11.72,2.76-26.21,2.76-37.24s2.76-85.53,2.76-111.74S1182.69,694,1182.69,694s-77.25,5.52-99.33,2.76A284.91,284.91,0,0,1,1042.67,688.52Z"/><path class="cls-16" d="M1087.75,876.94c3.37-.17,6.52-.31,9.37-.26.18-2.12.39-4.42.62-6.88-3.2-.08-6.64.08-10.33.25-7.35.36-15.69.76-23.75-1a106.75,106.75,0,0,1-21.67-7.54c0,.74,0,1.48,0,2.19,0,1.69,0,3.5.06,5.4a109.43,109.43,0,0,0,20.16,6.68C1071.15,877.74,1080,877.31,1087.75,876.94Z"/><path class="cls-16" d="M1087.75,843.54a91.54,91.54,0,0,1,12.8-.06c.25-2.28.51-4.57.78-6.85a95.15,95.15,0,0,0-13.92,0c-7.35.35-15.69.75-23.75-1a104.79,104.79,0,0,1-20.43-7c-.12,2.49-.24,5-.35,7.39a109.24,109.24,0,0,0,19.32,6.32C1071.15,844.34,1080,843.92,1087.75,843.54Z"/><path class="cls-16" d="M1087.75,866c3.78-.18,7.27-.34,10.38-.22.23-2.21.46-4.5.71-6.87-3.51-.16-7.32,0-11.42.21-7.36.36-15.7.76-23.76-1a106,106,0,0,1-21.41-7.42c-.09,2.61-.16,5.11-.21,7.47a109.43,109.43,0,0,0,20.16,6.68C1071.15,866.85,1080,866.42,1087.75,866Z"/><path class="cls-16" d="M1087.75,899.44c3.3-.16,6.37-.3,9.17-.26-.15-2.58-.26-4.9-.34-6.89-2.87,0-5.92.12-9.16.27-7.36.36-15.7.76-23.76-1a106,106,0,0,1-21.08-7.27c.12,2.52.26,5.11.41,7.73a108.84,108.84,0,0,0,19.21,6.27C1071.15,900.25,1080,899.82,1087.75,899.44Z"/><path class="cls-16" d="M1087.75,910.33c3.56-.17,6.88-.33,9.86-.25-.16-2.41-.31-4.72-.45-6.89-3-.05-6.28.09-9.75.26-7.35.36-15.69.76-23.75-1a105,105,0,0,1-20.48-7c.16,2.57.32,5.16.49,7.74a106.73,106.73,0,0,0,18.53,6C1071.15,911.14,1080,910.71,1087.75,910.33Z"/><path class="cls-16" d="M1087.75,943.73a99.78,99.78,0,0,1,12.12-.13q-.21-3.44-.45-6.93a117.19,117.19,0,0,0-12,.18c-7.35.35-15.69.76-23.75-1a102.06,102.06,0,0,1-18-5.93c.22,2.77.44,5.35.64,7.72a104.2,104.2,0,0,0,15.94,4.94C1071.15,944.53,1080,944.11,1087.75,943.73Z"/><path class="cls-16" d="M1087.75,932.84a111.82,111.82,0,0,1,11.4-.18q-.24-3.48-.47-6.92c-3.47-.15-7.22,0-11.26.22-7.36.35-15.7.75-23.76-1a103.14,103.14,0,0,1-18.91-6.29c.2,2.66.4,5.25.59,7.73a106.21,106.21,0,0,0,16.86,5.3C1071.15,933.64,1080,933.22,1087.75,932.84Z"/><path class="cls-16" d="M1087.41,970.25c-7.35.35-15.69.75-23.75-1A100.89,100.89,0,0,1,1046,963.5c-.54,2.52-1.14,4.92-1.63,6.8A106,106,0,0,0,1062.2,976c9,1.95,17.77,1.52,25.55,1.15a83.72,83.72,0,0,1,13.48,0c0-1.91,0-4.26,0-6.94A96.41,96.41,0,0,0,1087.41,970.25Z"/><path class="cls-16" d="M1062.2,700.82c9,1.95,17.77,1.52,25.55,1.14,7.1-.34,13.24-.64,17.58.92,6.72,2.39,21.38,5.79,38.86,5.79a114.71,114.71,0,0,0,38.61-6.33c0-3.5-.08-6-.1-7.33-27.77,10.78-58.43,6.16-71.55,2.47-11.58.21-21.75.07-27.79-.68-3.57-.45-7.06-1-10.39-1.53a58,58,0,0,1-9.31-1.18,87.55,87.55,0,0,1-9-2.48c-7.4-1.72-12-3.09-12-3.09s-.12,2.17-.27,5.78A108.92,108.92,0,0,0,1062.2,700.82Z"/><path class="cls-16" d="M1181.18,944.67c.07-2.53.1-5,.11-7.37-20.28,7.47-41.9,6.93-57,4.68.1,2.73.19,5.12.28,7a140.36,140.36,0,0,0,19.63,1.4A115.74,115.74,0,0,0,1181.18,944.67Z"/><path class="cls-16" d="M1177.8,971.91c-17,5.49-34.73,5.64-48.44,4.13.66,2.88,1.25,5.4,1.66,7.15,1.26.12,2.54.23,3.85.32a25.3,25.3,0,0,1,8.5-1.85,33.17,33.17,0,0,1,11.39,1.74,115.65,115.65,0,0,0,19.26-3.19A40.15,40.15,0,0,0,1177.8,971.91Z"/><path class="cls-16" d="M1087.75,832.65c5.34-.26,10.13-.49,14,.07.26-2.3.53-4.58.79-6.83-4.49-.62-9.54-.39-15.15-.12-7.36.35-15.7.75-23.76-1a103.72,103.72,0,0,1-19.93-6.75q-.17,3.71-.34,7.38a108,108,0,0,0,18.81,6.1C1071.15,833.45,1080,833,1087.75,832.65Z"/><path class="cls-16" d="M1087.75,810.14c6.58-.32,12.32-.57,16.58.62.29-2.43.56-4.75.8-6.91-5.09-1.19-11-.91-17.72-.59-7.35.35-15.69.76-23.75-1a103.75,103.75,0,0,1-19.16-6.41c0,2.44-.11,4.92-.19,7.42A107.24,107.24,0,0,0,1062.2,809C1071.15,810.94,1080,810.52,1087.75,810.14Z"/><path class="cls-16" d="M1126.93,964.86c.49,2.38,1,4.83,1.53,7.18a139.88,139.88,0,0,0,15.73.9,116.86,116.86,0,0,0,34.62-5c.53-2.48,1-5.05,1.3-7.69C1161.33,966.86,1141.54,966.74,1126.93,964.86Z"/><path class="cls-16" d="M1062.2,798.11c9,1.94,17.77,1.52,25.55,1.14,7.1-.34,13.24-.64,17.58.91l.21.08c.3-2.66.56-5,.76-7-5.35-1.53-11.66-1.25-18.88-.9s-15.7.75-23.76-1a102.83,102.83,0,0,1-19.07-6.36c0,2.43,0,4.93,0,7.49A107,107,0,0,0,1062.2,798.11Z"/><path class="cls-16" d="M1107.65,760.28c-5.63-2-12.4-1.68-20.23-1.31-7.36.36-15.7.76-23.76-1a106,106,0,0,1-21.52-7.48c.15,2.76.35,5.38.58,7.82a108.58,108.58,0,0,0,19.48,6.39c9,1.95,17.77,1.52,25.55,1.14,7.1-.34,13.24-.64,17.58.92,6.72,2.4,21.38,5.79,38.86,5.79a114.38,114.38,0,0,0,39.41-6.62l-.09-7.35C1152.66,770.92,1118,764,1107.65,760.28Z"/><path class="cls-16" d="M1107.65,737.77c-5.63-2-12.39-1.68-20.24-1.3-7.35.35-15.69.75-23.75-1a106.71,106.71,0,0,1-22-7.71c0,2.53,0,5.07,0,7.6a109.35,109.35,0,0,0,20.53,6.84c9,1.95,17.77,1.52,25.55,1.15,7.1-.35,13.24-.64,17.58.91,6.72,2.4,21.38,5.79,38.86,5.79a114.56,114.56,0,0,0,39.14-6.51q0-3.74-.09-7.35C1152.46,748.37,1117.92,741.44,1107.65,737.77Z"/><path class="cls-16" d="M1109.35,794.24c.28,2.34.59,4.83.9,7.44a134.38,134.38,0,0,0,33.94,4.27,114.3,114.3,0,0,0,39.75-6.74q0-3.56-.07-7.38C1154.43,803.76,1121.4,798,1109.35,794.24Z"/><path class="cls-16" d="M1107.65,771.17c-5.63-2-12.39-1.69-20.24-1.31-7.35.36-15.69.76-23.75-1a105.48,105.48,0,0,1-20.55-7c.08.63.16,1.26.25,1.86.27,1.86.49,3.9.66,6.06a107,107,0,0,0,18.18,5.84c9,1.95,17.77,1.52,25.55,1.14,7.1-.34,13.24-.63,17.58.92l1.49.5v-4.8s.22,1.81.6,5a130.22,130.22,0,0,0,36.77,5.1,114.15,114.15,0,0,0,39.53-6.67c0-2.42,0-4.88-.08-7.36C1152.75,781.82,1118,774.85,1107.65,771.17Z"/><path class="cls-16" d="M1107.65,726.88c-5.63-2-12.4-1.68-20.23-1.31-7.36.36-15.7.76-23.76-1a106.6,106.6,0,0,1-21.93-7.67c0,2.46-.07,5-.09,7.55a110.4,110.4,0,0,0,20.56,6.85c9,2,17.77,1.52,25.55,1.15,7.1-.35,13.24-.64,17.58.91,6.72,2.4,21.38,5.79,38.86,5.79a114.72,114.72,0,0,0,39-6.46q-.06-3.78-.1-7.34C1152.35,737.47,1117.91,730.55,1107.65,726.88Z"/><path class="cls-16" d="M1087.75,966.24a85.66,85.66,0,0,1,13.33,0c-.08-2.18-.18-4.51-.3-7a101.82,101.82,0,0,0-13.36.1c-7.36.35-15.7.75-23.76-1a98.47,98.47,0,0,1-16.12-5.12,47.63,47.63,0,0,1-.88,7.08,104.1,104.1,0,0,0,15.54,4.77C1071.15,967,1080,966.61,1087.75,966.24Z"/><path class="cls-16" d="M1107.65,707.28c-5.63-2-12.39-1.69-20.24-1.31-7.35.36-15.69.76-23.75-1a106.48,106.48,0,0,1-21.39-7.41c-.08,2.19-.17,4.7-.26,7.45a109.51,109.51,0,0,0,20.19,6.69c9,1.95,17.77,1.52,25.55,1.14,7.1-.34,13.24-.63,17.58.92,6.72,2.4,21.38,5.79,38.86,5.79a114.59,114.59,0,0,0,38.75-6.38c0-2.67-.06-5.13-.09-7.33C1152.16,717.82,1117.88,710.93,1107.65,707.28Z"/><path class="cls-16" d="M1181.4,926.38c-20.49,7.57-42.35,7-57.5,4.65.1,2.49.18,4.85.25,7.05a139.21,139.21,0,0,0,20,1.46,115.55,115.55,0,0,0,37.12-5.81V932C1181.31,930.82,1181.34,928.87,1181.4,926.38Z"/><path class="cls-16" d="M1121.73,897.28q.38,3.56.66,7.14a139.66,139.66,0,0,0,21.8,1.73,115.36,115.36,0,0,0,38-6.1c.07-2.41.15-4.89.22-7.43C1160.6,901,1137.13,899.9,1121.73,897.28Z"/><path class="cls-16" d="M1119,874.29c.31,2.54.6,5,.87,7.2a139.81,139.81,0,0,0,24.3,2.15,114.82,114.82,0,0,0,38.63-6.33c.07-2.48.14-5,.22-7.45C1159.78,879,1134.42,877.26,1119,874.29Z"/><path class="cls-16" d="M1122.7,908.34c.17,2.38.33,4.75.47,7.09a139.13,139.13,0,0,0,21,1.6,115.29,115.29,0,0,0,37.62-6c.07-2.35.15-4.83.22-7.42C1160.83,911.66,1138,910.82,1122.7,908.34Z"/><path class="cls-16" d="M1117.68,863.13l.87,7.23a139.7,139.7,0,0,0,25.64,2.39,114.63,114.63,0,0,0,39-6.44c.07-2.51.13-5,.2-7.46C1159.3,868.4,1133,866.27,1117.68,863.13Z"/><path class="cls-16" d="M1110.72,805.54c.29,2.39.59,4.86.89,7.39a136,136,0,0,0,32.58,3.91,113.94,113.94,0,0,0,39.84-6.78c0-2.28,0-4.75-.06-7.38C1155.56,814.23,1123.77,809.29,1110.72,805.54Z"/><path class="cls-16" d="M1113.53,828.8c.3,2.42.59,4.86.89,7.3a137.42,137.42,0,0,0,29.77,3.25,114.09,114.09,0,0,0,39.75-6.75c0-2.67.08-5.16.1-7.44C1157.48,836,1128,832.38,1113.53,828.8Z"/><path class="cls-16" d="M1114.89,840q.45,3.66.88,7.28a138.43,138.43,0,0,0,28.42,3,114.36,114.36,0,0,0,39.53-6.66q.09-3.89.16-7.46C1158.17,846.53,1129.72,843.47,1114.89,840Z"/><path class="cls-17" d="M1144.9,981.63c-.49-24.83-1.24-60.94-1.7-73.72-.52-14.56-6.45-72.18-10-106.6-1.29-12.52-2.3-22.41-2.34-23.27,0-2.06-6.81-61.45-9-80.82l-5.19.15c3.73,32.41,9,78.48,9,80.67,0,.69.48,5.42,2.37,23.79,3.31,32.11,9.46,91.88,10,106.26.45,12.82,1.21,49.19,1.7,74a35.78,35.78,0,0,1,3.63-.44C1143.87,981.62,1144.38,981.62,1144.9,981.63Z"/><path class="cls-17" d="M1134.49,969.76c.27-17.3-4.16-95.08-6.54-133.79-2.51-40.79-12.17-118.71-14.67-138.53l-5.2.09c2.38,18.81,12.19,97.71,14.71,138.75,3.31,53.81,6.77,118.5,6.53,133.39a66.6,66.6,0,0,0,.29,7.48c1.15,5,2,8.65,2,8.65s.89-1.47,4.19-2.68A53.05,53.05,0,0,1,1134.49,969.76Z"/><path class="cls-17" d="M1183.13,833.22c0-23-4.81-113.56-6.18-138.79l-5.16.33c1.37,25.28,6.17,115.63,6.17,138.46,0,18,1,64.65,1.63,95.5.31,14.82.55,26.52.55,28.65,0,.54,0,1.23.07,2a240.89,240.89,0,0,0,1.1-27.38c0-7.45,1.25-43.79,2.07-74.7C1183.23,847.36,1183.13,838.87,1183.13,833.22Z"/><path class="cls-17" d="M1163.53,986.67V955.19c0-10.89-2-35-4.25-62.86-1.82-22.3-3.89-47.57-5.19-69.43-2.48-41.48-6-108.57-7-126.73l-5.16.25c1,18.11,4.54,85.26,7,126.79,1.31,21.91,3.37,47.22,5.2,69.54,2.27,27.78,4.23,51.76,4.23,62.44V984.6C1160.3,985.3,1162.07,986,1163.53,986.67Z"/><path class="cls-17" d="M1056.07,920.82c-2.9-30.37-2.9-80.06-2.9-123.9,0-36.88.51-89.47.68-105.51-1.94-.45-3.67-.88-5.16-1.26-.15,14.37-.68,68.85-.68,106.77,0,44,0,93.78,2.91,124.4,1.71,17.93,2.41,41.12,2.69,57,1.61.63,3.34,1.29,5.21,2C1058.55,964.33,1057.86,939.71,1056.07,920.82Z"/><path class="cls-17" d="M1095.27,923.73c-2.89-30.37-2.89-80.06-2.89-123.91,0-34.77.45-83.49.64-102.38-1.85-.06-3.58-.14-5.16-.24-.19,18.77-.65,67.71-.65,102.62,0,44,0,93.78,2.92,124.4,1.94,20.43,2.58,47.7,2.79,63.18a12.82,12.82,0,0,0,5.13-2.09C1097.82,969.47,1097.15,943.46,1095.27,923.73Z"/><path class="cls-17" d="M1057.39,692.23c-.18,16.95-.67,68.4-.67,104.69,0,44,0,93.78,2.91,124.4,1.83,19.21,2.51,44.45,2.75,60.27,1.68.59,3.41,1.19,5.2,1.78-.23-15.72-.88-42.4-2.8-62.55-2.89-30.37-2.89-80.06-2.89-123.9,0-35.52.47-85.62.65-103.59Q1059.83,692.78,1057.39,692.23Z"/><path class="cls-17" d="M1164.08,809.26c-1.06-9.69-2-18.06-2-18.87,0-1.89-3.06-72-4.06-94.81l-5.16.29c1.55,35.43,4,92.68,4.05,94.52,0,.72.5,5.34,2,19.44,2.85,26.12,7.62,69.84,8.13,83,.55,14.33,1.1,69.65,1.34,94.79a43.83,43.83,0,0,0,5.1-6.63c-.26-27.19-.77-75.13-1.28-88.36S1166.94,835.46,1164.08,809.26Z"/><path class="cls-17" d="M1088.64,987.8c-.21-15.61-.86-42.86-2.81-63.35-2.89-30.37-2.89-80.06-2.89-123.9,0-35.61.48-85.88.66-103.73l-.24,0c-1.66-.21-3.3-.44-4.92-.67-.18,17.23-.67,68.33-.67,104.42,0,44,0,93.78,2.92,124.4,1.92,20.14,2.56,46.93,2.78,62.52A38.79,38.79,0,0,0,1088.64,987.8Z"/><path class="cls-6" d="M1042.67,688.52s-2.76,51.73.69,75.18-1.38,73.8-1.38,100,4.83,81.39,5.52,87.6-4.14,22.76-4.14,22.76a280.07,280.07,0,0,0,29.66,11c15.86,4.83,24.83,2.76,27.59-2.76s-4.14-78.63-4.14-94.5,10.35-94.49,10.35-100.7V773.36s11.72,96.56,14.48,120,2.76,50.35,3.45,58.63,6.9,33.8,6.9,33.8,2.07-3.45,11.72-4.14,24.14,6.9,24.14,6.9a41.77,41.77,0,0,0,11-19.32c2.76-11.72,2.76-26.21,2.76-37.24s2.76-85.53,2.76-111.74S1182.69,694,1182.69,694s-77.25,5.52-99.33,2.76A284.91,284.91,0,0,1,1042.67,688.52Z"/><path class="cls-5" d="M1106.82,773.36,1104.06,734s-1.9,40-2.44,54.57a288.39,288.39,0,0,0,1.08,31.79l4.12-33.25Z"/><path class="cls-6" d="M1126.82,949.93s.69-18.62,6.9-51.73a448.08,448.08,0,0,0,6.89-64.15"/><path class="cls-6" d="M1097.16,912s-7.59-31.73-10.35-42.77-6.2-31.73-6.2-31.73"/><path class="cls-14" d="M962.92,500.07a85.5,85.5,0,0,0-6.67-15.57c-4.08-7-8.15-16.31-10.75-17.79s-18.16-8.9-20.39-10-7.78,3.34-5.56,7.42a13.1,13.1,0,0,0,5.94,5.56,110.94,110.94,0,0,0-2.6,15.93c-.37,6.68-1.48,12.24,1.11,15.94s12.23,7.05,14.83,8.9a54,54,0,0,1,6.3,5.93Z"/><path class="cls-8" d="M926.82,429.75c-.24-17.58-.77-32.64-.77-32.64s-13.2,1.85-22.39,2.05a115.06,115.06,0,0,1-16.33-.78s.17,2.19.38,5.69a2.59,2.59,0,0,1,.92-.17,2.67,2.67,0,1,1,0,5.33,3.19,3.19,0,0,1-.62-.08c.07,1.24.13,2.56.2,3.94a3,3,0,0,1,.42,0,2.67,2.67,0,1,1,0,5.33l-.2,0c0,1,.07,2,.1,3h.1a2.67,2.67,0,0,1,0,5.33c0,.85,0,1.7,0,2.56a2.66,2.66,0,0,1,0,5.31c0,.94,0,1.88,0,2.8a2.65,2.65,0,1,1-.19,5.29c-.06,1-.12,2-.2,2.88a2.63,2.63,0,0,1,2.24.71,2.64,2.64,0,0,1-2.73,4.38c-.09,1.14-.13,2.21-.15,3.24a2.6,2.6,0,0,1,2.18.72,2.67,2.67,0,0,1,0,3.77,2.63,2.63,0,0,1-2,.75c.07.87.15,1.69.26,2.46a2.62,2.62,0,0,1,2.47.66,2.67,2.67,0,0,1,0,3.77,2.59,2.59,0,0,1-1.36.68,16.42,16.42,0,0,0,1.59,3.82s15.7-1.39,26.94-6.06a151.91,151.91,0,0,0,19.19-9.57S927.06,447.33,926.82,429.75Z"/><line class="cls-6" x1="894.87" y1="414.61" x2="920.4" y2="411.64"/><line class="cls-6" x1="895.74" y1="422.96" x2="921.27" y2="419.99"/><line class="cls-6" x1="895.2" y1="432.88" x2="920.93" y2="428.18"/><line class="cls-6" x1="897.01" y1="443.71" x2="921.66" y2="437.68"/><line class="cls-6" x1="896.4" y1="454.21" x2="921.32" y2="445.87"/><path class="cls-5" d="M932.16,395.91a10,10,0,1,1-10-10A10,10,0,0,1,932.16,395.91Z"/><path class="cls-14" d="M958.47,490.8s-4.44-11.49-7-17.42-7-13.34-10-16.68-8.89-7.78-10.37-10.38-7,1.49-4.82,7.05,13,14.45,13,14.45-2.59,9.64-.74,16.31,7.41,10.75,9.27,11.49"/><path class="cls-14" d="M917.52,473s-6.27,6.07,0,8.21,14.64,0,14.64-3.21S920.87,471.56,917.52,473Z"/><path class="cls-14" d="M917.52,481.89s-6.27,6.06,0,8.21,14.64,0,14.64-3.22S920.87,480.46,917.52,481.89Z"/><path class="cls-14" d="M919.5,490.43s-6.54,6.32,0,8.55,15.25,0,15.25-3.34S923,488.94,919.5,490.43Z"/><path class="cls-18" d="M1036.29,476.18s-6.89,10.34-8,20.1,1.15,17.8.58,19.52-5.17,2.3-7.47,10.33S1011,541.64,1011,541.64s-5.74-4.6-8.62-1.15l-2.87,3.44s-14.7-21.38-18.72-26.54a17.63,17.63,0,0,0-10-6.18l-7.92-11.14L943.85,515.8l4,6.89S941.56,533,945,542.78s21.82,25.27,30.43,35.6,20.67,25.84,32.15,25.26,29.78-19,35.52-27.08,7.54-7.94,10.41-15.4-2.29-64.88-5.74-72.35S1036.29,476.18,1036.29,476.18Z"/><path class="cls-18" d="M999.54,543.93s7.44,8.34,7.44,27.65"/><path class="cls-18" d="M1011,541.64a15.94,15.94,0,0,1,5.91,10"/><path class="cls-19" d="M1040.81,532.06c3.5,16.15,7.06,31.32,8.11,36.56,2.3,11.48-5.17,63.73-5.17,85.55s-1.72,42.48-1.72,42.48,19,16.65,60.86,16.65,82.1-14.92,82.1-14.92l-1.15-84.4s-.57-50.53.58-63.16,15.5-83.82,12.63-91.86S1144.8,440,1127.58,440s-28.14-1.72-33.88.58c0,0-23,10.91-36.17,17.8s-24.11,14.35-24.69,27c-.13,3,.58,8.65,1.77,15.66"/><path class="cls-18" d="M1110.93,488.24c29.3-2.58,45-29.74,51-43.14-13.23-3-26.87-5.09-34.39-5.09-17.23,0-28.14-1.72-33.88.58,0,0-23,10.91-36.17,17.8l-.27.14C1063.39,468.58,1080.55,490.92,1110.93,488.24Z"/><path class="cls-14" d="M1102.89,480.2c28.83,4.51,43.52-24.55,48.51-37.29-9.51-1.78-18.31-2.9-23.82-2.9-17.23,0-28.14-1.72-33.88.58,0,0-14.09,6.69-26.54,12.9C1068.63,460.61,1075,475.85,1102.89,480.2Z"/><path class="cls-14" d="M1088.84,458.82,1086.13,429s-17.14,4.06-21.65.45-4.06-26.61-4.06-26.61-7.67-3.16-10.38-7.67,9-12.18,9.47-14.43-.45-3.61-2.7-6.77,5.41-20.75,5.41-20.75.9-3.61,14-9,33.83.45,42.85,6.76,14,21.66,17.59,36.54-.45,24.81-1.35,28.87-1.81,6.32-1.81,8.12,4.52,14,6.77,17.59,4.06,6.77,4.06,6.77"/><polygon class="cls-5" points="1086.13 429.04 1097.75 426.48 1087.84 442.25 1086.13 429.04"/><path class="cls-6" d="M1117.71,406s-6.77,1.35-6.32,2.7.9,5.42-2.25,10.38"/><path class="cls-5" d="M1109.14,319.43s-7.22-8.57-23.91-8.12-27.07,8.12-27.07,8.12h9.47s-12.17-.91-18.49,9,0,10.82,3.16,9.92a52.63,52.63,0,0,1,7.21-1.35s-12.17,7.67-9,14,19,3.61,19,3.61-8.57,2.71,0,5.87,27.52,1.35,27.52,1.35-8.57,6.31-3.61,10.37,12.18,1.81,12.18,1.81-8.12,5.41-5,11.28,9-3.16,11.28-5.42a5.34,5.34,0,0,1,4.51-1.8s5.42,13.08,5.87,14.43-7.67,12.63-5,16.69,14,3.16,14,3.16-10,10.22-3.67,11.12,22.57-1.36,27.08-10.83-2.25-17.14-3.15-21.65,3.15-3.61,7.21-14-1.53-36.94-1.53-36.94,5,2.7,5.41-1.81S1150,327.78,1150,327.78s-.19-8.85-11.92-17-33-1.72-30.69,3.25,4.94,5.82,4.94,5.82Z"/><path class="cls-18" d="M1182.12,506c-1.72.57-10.33,15.5-9.19,23.54s15.51,56.84,19,65.45,14.36,23.54,29.28,17.8,20.1-23,13.21-44.78-19.52-70-24.69-89-14.35-23.54-21.82-25.26"/><path class="cls-18" d="M1230.17,570.13s-16.6-8.3-22.14-8a14.29,14.29,0,0,0-9,4.15l-8.3-2.77-5.53,27,3.8,2.07a11.08,11.08,0,0,0,2.77,10.38c4.5,4.49,13.83,13.83,27.32,13.48s21.44-17.63,21.1-27a36,36,0,0,0-5.54-17"/><path class="cls-14" d="M1167.23,551.11s15.7-3,17.19-.29,9.78,15.16,8.74,21-2.76,16.95-5.53,17.64-8.64-1-8.64-1l-12.8-.69Z"/><line class="cls-6" x1="1166.88" y1="559.76" x2="1182.44" y2="561.14"/><line class="cls-6" x1="1166.54" y1="570.48" x2="1181.75" y2="572.55"/><line class="cls-6" x1="1166.54" y1="578.78" x2="1180.71" y2="580.85"/><rect class="cls-8" x="1130.86" y="544.51" width="36.72" height="47.7" rx="2.02"/><path class="cls-6" d="M1151.89,507.68a8,8,0,0,1,1-5"/><path class="cls-6" d="M1140,541.26s-4.45-3.46,2-8.9,12.36-8.41,12.36-13.35a19.82,19.82,0,0,0-1-5.28"/><path class="cls-6" d="M1163.62,515.22c-1.1-4.17-3.12-8.77-.87-12.52"/><path class="cls-6" d="M1149.9,541.26s-4.45-3.46,2-8.9c2.05-1.74,4.05-3.22,5.82-4.59"/><path class="cls-6" d="M1160.77,540.76s-1.48-2.47,2-5.93,5.44-7.42,4.94-10.38"/><polygon class="cls-5" points="1043.4 543.45 1038.89 580.99 1048.92 568.62 1043.4 543.45"/></g></svg>