<svg xmlns="http://www.w3.org/2000/svg" xmlns:xlink="http://www.w3.org/1999/xlink" viewBox="0 0 1920 1080"><defs><style>.cls-1,.cls-23,.cls-33,.cls-5,.cls-7{fill:none;}.cls-2{fill:#6fb4c4;}.cls-3{fill:#9dd8e5;}.cls-4{fill:#5babba;}.cls-5,.cls-7{stroke:#9dd8e5;}.cls-23,.cls-33,.cls-5,.cls-7{stroke-linecap:round;}.cls-33,.cls-5{stroke-linejoin:round;}.cls-6{fill:#85c5d7;}.cls-23,.cls-7{stroke-miterlimit:10;}.cls-8{clip-path:url(#clip-path);}.cls-9{fill:#01566d;}.cls-10{fill:#f94b8a;}.cls-11{fill:#f7376d;}.cls-12{fill:#01818e;}.cls-13{fill:#00657c;}.cls-14{fill:#75b3c8;}.cls-15{fill:#448399;}.cls-16{fill:#4a94a0;}.cls-17{fill:#d3e8f9;}.cls-18{fill:#36a993;}.cls-19{fill:#fff;}.cls-20{fill:#063c50;}.cls-21{fill:#fcb211;}.cls-22{fill:#052c39;}.cls-23{stroke:#ae3838;stroke-width:0.75px;}.cls-24{fill:#f2f9f9;}.cls-25{fill:#ffa78f;}.cls-26{fill:#b2c9d8;}.cls-27{fill:#212473;}.cls-28{fill:#f9867d;}.cls-29{fill:#043649;}.cls-30{fill:#c7d7e2;}.cls-31{fill:#072d38;}.cls-32{fill:#0f5c60;}.cls-33{stroke:#c7d7e2;}.cls-34{fill:#d3e3ea;}.cls-35{fill:#c1d7e5;}.cls-36{fill:#aec6d6;}.cls-37{fill:#0d939c;}</style><clipPath id="clip-path"><path class="cls-1" d="M1375.63,995.48H758.57C691.21,925.61,642.69,832.34,618.9,729.14c-70.49-305.77,43.16-393.33,145.68-378.65,209.25,30-2.79-107.62,115.11-201.78,103.34-82.56,304.45-47.22,356.56,63.78C1309.75,369,1525.48,293,1546.06,538.22,1557.82,678.23,1514.55,869.41,1375.63,995.48Z"/></clipPath></defs><g id="Floor"><path class="cls-2" d="M778.51,941.68c-10.2-54.49-21.12-109.07-39.54-161.63s-44.65-103.3-82.8-145.45c44.34,106.15,89.18,214.24,98.62,327.92"/><path class="cls-2" d="M766.73,964.09c-12.45-108.4-78.37-210.34-175-270.67,73.32,76.72,126.68,170.16,154.17,270"/><path class="cls-2" d="M770.48,938C734.61,866.12,667.43,808.62,588,781.73c64.43,50,118.33,112,157.67,181.24"/><path class="cls-3" d="M770.32,944A665.14,665.14,0,0,1,727.57,636.5c11.86,107.18,29.67,215.59,78.2,313.22"/><path class="cls-3" d="M768.68,908.3c-28.48-85.57-73.54-166.24-132.31-236.88a1108.26,1108.26,0,0,1,126,286"/><path class="cls-3" d="M766.93,925.1c-21.11-35-42.38-70-68.68-101.71s-58-60.13-96-78.59c66.83,61.82,119.37,137.21,153,219.48"/><path class="cls-3" d="M769.29,948.57c-36.49-59.35-107-98.9-179.91-100.92,66.76,22,125.2,65.61,163,121.78"/><path class="cls-4" d="M1422.42,804.73c3.21-12.7,18.95-28.59,31.11-29.24,3.29-.18,6.8.47,9.73-1.09,7.52-4,4.73-17.85,11.18-23.62,3.91-3.5,9.78-2.68,14.67-.84s9.74,4.55,14.85,4.31,9.33-3.24,13.9-5.28c5.83-2.6,12.67-3.61,18.54-.74s10.1,10.48,8.06,17c-2.42,7.72-11.36,10-16.48,15.89-10.37,11.94-2.82,35.3-14.44,45.78-7.36,6.63-19.24,4.63-26.52,11.37-6,5.52-7,15.28-12.14,21.76-5.62,7.15-15.48,9.08-24,6.78s-16-8.18-22.65-14.64C1428.19,852.15,1416.12,829.59,1422.42,804.73Z"/><path class="cls-5" d="M1531.36,758.48c-22.57,14.8-45.1,29.85-65.55,47.89S1427,845.6,1414.17,870.7"/><path class="cls-5" d="M1484.87,790.82a98.37,98.37,0,0,0-5.27-29.64"/><path class="cls-5" d="M1471.74,801.58c14.36.86,28.36,9.38,36.72,22.35"/><path class="cls-5" d="M1509.32,773a37.51,37.51,0,0,1,17.62,2"/><path class="cls-5" d="M1434.65,839.05a60.12,60.12,0,0,1,32.71,13.71"/><path class="cls-5" d="M1441.29,831.29a125.73,125.73,0,0,0-7-37.15"/><path class="cls-6" d="M1430.47,818.07c10.42-3.71,21.66-5.24,31.45-10.37s18.17-15.52,16.19-26.4c-1.22-6.7-6.17-12.49-6.41-19.3-.29-8.07,5.94-14.67,11.37-20.65s10.78-13.81,8.38-21.52c-1.72-5.5-7.18-9.72-7.28-15.48-.11-7,7.71-11.64,9.68-18.4,1.82-6.22-2.12-13.21-8-16s-13-1.76-18.67,1.39-10,8.21-13.62,13.61c-6.12,9.19-10.93,20.2-20.74,25.25-4.49,2.31-9.61,3.1-14.17,5.26a26.39,26.39,0,0,0-14.57,25.65c.65,6.85,4,13.93,1.45,20.32-1.76,4.41-5.92,7.28-9.35,10.56a40.85,40.85,0,0,0-11.84,35.56c1.63,9.77,9,24.4,19.21,27.86,5.58,1.9,7.85-5.37,11.5-8.64A46.32,46.32,0,0,1,1430.47,818.07Z"/><path class="cls-7" d="M1398.4,873.86A492.35,492.35,0,0,1,1476,688.62"/><path class="cls-7" d="M1454.77,722.3a58,58,0,0,1,17.07-4.82"/><path class="cls-7" d="M1438.37,753.63a89.92,89.92,0,0,0-12-24.08"/><path class="cls-7" d="M1420.66,795.09a180.77,180.77,0,0,1,43.15-6.92"/><path class="cls-7" d="M1416.27,806.22a34.26,34.26,0,0,0-19.88-18.28"/><path class="cls-6" d="M1415.76,913.54c9.26,3.34,17.86,8.64,27.51,10.65s21.28-.4,26.07-9c3-5.31,2.82-12.08,6.5-16.91,4.37-5.72,12.39-6.73,19.51-7.78s15.23-3.4,17.94-10.07c1.93-4.76.55-10.75,3.75-14.77,3.9-4.91,11.88-3.65,17.07-7.18,4.77-3.26,6-10.3,3.52-15.51s-8-8.57-13.63-9.61-11.55,0-17.08,1.67c-9.4,2.86-18.94,7.72-28.55,5.64-4.39-.95-8.37-3.3-12.73-4.39a23.48,23.48,0,0,0-24.53,9.41c-3.43,5.09-5.12,11.85-10.49,14.81-3.71,2-8.2,1.66-12.41,2A36.34,36.34,0,0,0,1390,880.24c-4.41,7.64-7.62,21.88-2.55,30,2.77,4.46,8.45.74,12.81.56A41.34,41.34,0,0,1,1415.76,913.54Z"/><path class="cls-7" d="M1362.13,933.79a438.55,438.55,0,0,1,158.2-83.57"/><path class="cls-7" d="M1486.65,861.37a52.25,52.25,0,0,1,14.48,6.34"/><path class="cls-7" d="M1457.64,873.66a80.22,80.22,0,0,0,5.38-23.35"/><path class="cls-7" d="M1422,892.17a160.7,160.7,0,0,1,33.61,19.65"/><path class="cls-7" d="M1412.69,897.35a30.51,30.51,0,0,0-3.35-23.83"/><g class="cls-8"><rect class="cls-9" x="964.14" y="759.23" width="218.01" height="135.45" rx="10.77"/><path class="cls-10" d="M1170.16,791.29v71.34a24.6,24.6,0,0,1-24.6,24.6H1000.74a24.58,24.58,0,0,1-24.63-24.6V791.29a24.63,24.63,0,0,1,24.63-24.62h144.82a24.61,24.61,0,0,1,23.59,17.65A24,24,0,0,1,1170.16,791.29Z"/><path class="cls-11" d="M1170.16,791.29v71.34a24.6,24.6,0,0,1-24.6,24.6H1000.74A24.56,24.56,0,0,1,985,881.57a24.23,24.23,0,0,1-1-7V803.22a24.61,24.61,0,0,1,24.62-24.61h144.83a24.48,24.48,0,0,1,15.73,5.71A24,24,0,0,1,1170.16,791.29Z"/><rect class="cls-12" x="709.28" y="848.26" width="728.8" height="265.24"/><rect class="cls-9" x="709.28" y="858.64" width="728.8" height="21.63"/><rect class="cls-13" x="688.19" y="838.72" width="769.91" height="19.92"/><rect class="cls-14" x="1142.04" y="829.25" width="179.44" height="9.49"/><rect class="cls-15" x="1231.76" y="829.25" width="179.44" height="9.49"/><polygon class="cls-14" points="1260.34 726.32 1446.46 726.32 1406.04 834 1226.61 834 1260.34 726.32"/><polygon class="cls-16" points="1267.27 726.32 1453.4 726.32 1412.98 834 1233.55 834 1267.27 726.32"/><path class="cls-17" d="M1358.65,780.16c0,5.81-6.8,10.52-15.18,10.52s-15.17-4.71-15.17-10.52,6.79-10.52,15.17-10.52S1358.65,774.35,1358.65,780.16Z"/><rect class="cls-18" x="751.38" y="703.38" width="34.99" height="135.34"/><rect class="cls-19" x="756.62" y="719.83" width="24.51" height="63.05"/><rect class="cls-20" x="761.07" y="726.32" width="15.7" height="2.51"/><rect class="cls-20" x="761.02" y="735.32" width="15.7" height="2.51"/><rect class="cls-20" x="761.02" y="744.33" width="15.7" height="2.51"/><rect class="cls-20" x="761.09" y="753.33" width="15.7" height="2.51"/><rect class="cls-20" x="761.04" y="762.33" width="15.7" height="2.51"/><rect class="cls-20" x="761.04" y="771.33" width="15.7" height="2.51"/><circle class="cls-19" cx="768.87" cy="819.6" r="11.28"/><circle class="cls-20" cx="768.87" cy="819.6" r="8"/><rect class="cls-11" x="793.39" y="703.38" width="34.99" height="135.34"/><rect class="cls-19" x="798.63" y="719.83" width="24.51" height="63.05"/><rect class="cls-20" x="803.08" y="726.32" width="15.7" height="2.51"/><rect class="cls-20" x="803.03" y="735.32" width="15.7" height="2.51"/><rect class="cls-20" x="803.03" y="744.33" width="15.7" height="2.51"/><rect class="cls-20" x="803.1" y="753.33" width="15.7" height="2.51"/><rect class="cls-20" x="803.05" y="762.33" width="15.7" height="2.51"/><rect class="cls-20" x="803.05" y="771.33" width="15.7" height="2.51"/><circle class="cls-19" cx="810.88" cy="819.6" r="11.28"/><circle class="cls-20" cx="810.88" cy="819.6" r="8"/><rect class="cls-21" x="835.3" y="703.38" width="34.99" height="135.34"/><rect class="cls-19" x="840.54" y="719.83" width="24.51" height="63.05"/><rect class="cls-20" x="844.99" y="726.32" width="15.7" height="2.51"/><rect class="cls-20" x="844.94" y="735.32" width="15.7" height="2.51"/><rect class="cls-20" x="844.94" y="744.33" width="15.7" height="2.51"/><rect class="cls-20" x="845.01" y="753.33" width="15.7" height="2.51"/><rect class="cls-20" x="844.96" y="762.33" width="15.7" height="2.51"/><rect class="cls-20" x="844.96" y="771.33" width="15.7" height="2.51"/><circle class="cls-19" cx="852.79" cy="819.6" r="11.28"/><circle class="cls-20" cx="852.79" cy="819.6" r="8"/></g><path class="cls-19" d="M1196.8,301.5S1208.26,338,1171,363.14c0,0,29.67,14.49,47.74,8.84s51.55-34.82,53.46-93Z"/><path class="cls-19" d="M1233,370.93c11.55-4.8,20.11-9.69,27.43-18.93,5.88-7.43,11.78-19.6,11.78-30.3C1264.88,341.87,1251.87,359.38,1233,370.93Z"/><path class="cls-19" d="M1207.18,378.29c-5.84,1.47-11.74,2.95-17.67,2.63-4.84-.26-12-1.67-15.37-7.08,3.62-1.55,11.47,3.45,15.76,4.21A53.58,53.58,0,0,0,1207.18,378.29Z"/><path class="cls-19" d="M1314.3,439c-1.15-1.1,34.71-40.86,34.71-40.86s35.73,30.74,70.54,20.71L1407,481.41S1359.7,482.51,1314.3,439Z"/><path class="cls-19" d="M1398.51,485s-41.2-2.44-77.28-32.67C1321.23,452.33,1345.12,488.41,1398.51,485Z"/><path class="cls-19" d="M1421.91,424.29s-5.36,34.87-9.26,49.49C1412.65,473.78,1423.62,458.91,1421.91,424.29Z"/><path class="cls-19" d="M965.77,202.11s37.26-4.6,47.32-27.18c8.49-19,11.72-30.8,31.18-40.54l63.49,19s-28.71,14.53-39,46.25c-8.66,26.61-43.23,33.85-43.23,33.85Z"/><path class="cls-19" d="M1092.92,172s-17.17,16.47-21.37,36-27.81,28.27-27.81,28.27,25-1.71,31.48-26.16S1091,174.22,1092.92,172Z"/><path class="cls-19" d="M967.8,210.71l44.15,22.8S983.36,226.63,967.8,210.71Z"/><path class="cls-19" d="M951.92,373s-16.63-37.07,19.46-68.17c0,0-33.07-11.56-51.41-3.36s-50,43.13-44.73,104.72Z"/><path class="cls-19" d="M911.85,301.66S871.74,325.42,871,377.58C871,377.58,859.9,327.17,911.85,301.66Z"/><path class="cls-19" d="M945.8,380.88l-54.88,22.83S922.6,398.19,945.8,380.88Z"/><path class="cls-19" d="M739.47,524.52c-1.67-.14,1.13-56.48,1.13-56.48S790.25,469.35,812,438l31.42,59.48S805.54,529.83,739.47,524.52Z"/><path class="cls-19" d="M750.17,528.75s41.33,5.15,86.39-21.32C836.56,507.43,797.88,541.43,750.17,528.75Z"/><path class="cls-19" d="M747.43,462.66s30.2,1.43,54.42-19.09C801.85,443.57,772.79,460.38,747.43,462.66Z"/><path class="cls-22" d="M1194.78,625.31s-7.36,16.78-37.28,23.88c-28.88,6.84-68.43.54-71.16.09-2.73.46-42.27,6.83-71.16.05-29.94-7-37.33-23.8-37.33-23.8l14.44-34.21,50.85,3.94,4.95-5.83,38.2,10.09,38.18-10.17,5,5.82,51.15-4.08Z"/><path class="cls-23" d="M1092.3,656.22s9.77-1.25,14.71-2.88"/><path class="cls-24" d="M1022.16,667.5c10.86-1.66,17.94-2.49,26.92-3.8s22.19-3,21.59-14.19-16.9-11-20.67-10.61-24,1.2-33.54-.08c-2.34-.32-4.1-.51-5.61-.59h0c-4.69-.22-7.18.73-17.88,3-14.16,3-14,9.82-14,9.82s-.34,4.48,5.25,8.07h0a20.42,20.42,0,0,0,3.38,1.72C996.65,664.46,1011.29,669.17,1022.16,667.5Z"/><path class="cls-25" d="M1067.72,649.51s1.65,3.89-7.79,7.21-17.41,6.1-22.25,3.74-6.75-10.64-4.21-15.82,11.76-3.85,16.09-2.67,13.15,1.32,16.15,3.68S1067.72,649.51,1067.72,649.51Z"/><path class="cls-26" d="M984.17,659.09c-5.38-4.78-4.57-10.34,1.48-13.39s24.76-7.37,25.19-7.47c-4.69-.22-7.18.73-17.88,3-14.16,3-14,9.82-14,9.82S978.58,655.5,984.17,659.09Z"/><path class="cls-27" d="M1027.34,656.39a.75.75,0,0,1-.62-.33c-.13-.2-3.19-4.94-.26-9.67a.76.76,0,0,1,1-.24.75.75,0,0,1,.24,1c-2.42,3.9.13,7.89.24,8.06a.75.75,0,0,1-.22,1A.78.78,0,0,1,1027.34,656.39Z"/><path class="cls-27" d="M1024.19,656.76a.74.74,0,0,1-.62-.34c-.13-.2-3.19-4.93-.26-9.66a.75.75,0,0,1,1.27.79c-2.42,3.9.13,7.88.24,8.05a.77.77,0,0,1-.22,1A.78.78,0,0,1,1024.19,656.76Z"/><path class="cls-27" d="M1021,656.76a.75.75,0,0,1-.62-.33c-.13-.2-3.19-4.94-.26-9.67a.76.76,0,0,1,1-.24.75.75,0,0,1,.24,1c-2.42,3.9.13,7.89.24,8.06a.75.75,0,0,1-.22,1A.78.78,0,0,1,1021,656.76Z"/><path class="cls-27" d="M1017.89,657a.74.74,0,0,1-.62-.34c-.13-.2-3.19-4.94-.26-9.66a.75.75,0,0,1,1.27.79c-2.43,3.92.21,8,.23,8.05a.73.73,0,0,1-.21,1A.71.71,0,0,1,1017.89,657Z"/><path class="cls-25" d="M1061.46,659.34c-5.68.37-10.32.58-13.06.66l-2.72.09s-5.39-3.84-6.37-17.83l9.69-3.36,4.11-1.41,5.53.67s4.66,10.41,5.42,13.62C1064.48,653.57,1063,656.79,1061.46,659.34Z"/><path class="cls-28" d="M1061.46,659.34l-13.06.66.6-21.1,4.11-1.41,5.53.67s4.66,10.41,5.42,13.62C1064.48,653.57,1063,656.79,1061.46,659.34Z"/><path class="cls-29" d="M1175.1,638.4c-8.78,4.22-24,8.07-40.74,11.35-36,7.08-78.92,11.57-78.92,11.57l-5.35-26.69,43.63-14.91,78.65-26.87s18.44-8.24,24.67,10.49S1192,630.29,1175.1,638.4Z"/><path class="cls-24" d="M1149.08,667.28c-10.87-1.64-18-2.46-26.93-3.75s-22.2-2.94-21.62-14.15,16.87-11,20.65-10.65,24,1.16,33.53-.15c2.34-.32,4.1-.52,5.62-.6h0c4.7-.23,7.18.72,17.88,2.94,14.17,2.93,14.06,9.78,14.06,9.78s.35,4.49-5.22,8.08h0a20.8,20.8,0,0,1-3.38,1.72C1174.58,664.18,1159.94,668.92,1149.08,667.28Z"/><path class="cls-25" d="M1103.48,649.37s-1.65,3.9,7.8,7.2,17.42,6.06,22.26,3.7,6.72-10.66,4.17-15.83-11.77-3.83-16.1-2.64-13.14,1.35-16.13,3.72S1103.48,649.37,1103.48,649.37Z"/><path class="cls-26" d="M1187.05,658.78c5.37-4.79,4.54-10.34-1.51-13.39s-24.78-7.31-25.21-7.41c4.7-.23,7.18.72,17.88,2.94,14.17,2.93,14.06,9.78,14.06,9.78S1192.62,655.19,1187.05,658.78Z"/><path class="cls-27" d="M1143.87,656.18a.74.74,0,0,0,.62-.34c.13-.2,3.18-4.94.24-9.66a.75.75,0,1,0-1.27.79c2.43,3.89-.11,7.88-.22,8a.74.74,0,0,0,.22,1A.69.69,0,0,0,1143.87,656.18Z"/><path class="cls-27" d="M1147,656.54a.74.74,0,0,0,.62-.34c.13-.2,3.18-4.94.24-9.66a.75.75,0,0,0-1.27.79c2.43,3.89-.11,7.88-.22,8a.74.74,0,0,0,.22,1A.71.71,0,0,0,1147,656.54Z"/><path class="cls-27" d="M1150.17,656.53a.73.73,0,0,0,.62-.33c.13-.2,3.18-5,.24-9.67a.75.75,0,0,0-1.27.8c2.43,3.89-.11,7.88-.22,8a.74.74,0,0,0,.22,1A.78.78,0,0,0,1150.17,656.53Z"/><path class="cls-27" d="M1153.32,656.77a.74.74,0,0,0,.62-.34c.13-.2,3.18-4.94.24-9.66a.76.76,0,0,0-1-.24.75.75,0,0,0-.24,1c2.44,3.92-.19,8-.22,8.05a.75.75,0,0,0,.63,1.16Z"/><path class="cls-25" d="M1109.75,659.2c5.69.36,10.32.55,13.07.63l2.71.08s5.39-3.85,6.34-17.84l-9.69-3.34-4.12-1.41-5.53.68s-4.63,10.43-5.39,13.64C1106.72,653.43,1108.26,656.65,1109.75,659.2Z"/><path class="cls-28" d="M1109.75,659.2l13.07.63-.64-21.1-4.12-1.41-5.53.68s-4.63,10.43-5.39,13.64C1106.72,653.43,1108.26,656.65,1109.75,659.2Z"/><path class="cls-20" d="M1115.78,661.17l5.29-26.71L998.71,592.94s-18.46-8.21-24.65,10.53,5.09,26.95,22,35C1023.81,651.73,1115.78,661.17,1115.78,661.17Z"/><path class="cls-25" d="M1223.93,560.53l-4.18,15.34s-11.64,4.13-33.43,7.82l-.65.1a180.66,180.66,0,0,1-33.43,1.86l5.09-23.39c6.52-.67,15.45-.74,24.86-.68C1197.69,561.66,1214.5,562.06,1223.93,560.53Z"/><path class="cls-28" d="M1182.19,561.58l4.13,22.11-.65.1a180.66,180.66,0,0,1-33.43,1.86l5.09-23.39C1163.85,561.59,1172.78,561.52,1182.19,561.58Z"/><path class="cls-25" d="M1216.41,577a23.63,23.63,0,0,1,6.5-.41c2.56.38,11.93-.52,19.6-5.87s13-6.33,15.26-8.41-2.51-3.15-8.53,0c-4.54,2.39-4.89,1.89-4.89,1.89a109.17,109.17,0,0,1,11.88-7.5c4.58-2.23,5.76-2.67,6.2-3.71s-2.85-3.21-7.21-.62-9.19,4.8-11,5.91c0,0,4.72-3.26,6-4.41s8.17-7.16,9.24-8.08,1.56-1.75,1-2.58-2.11-1.1-5.76,1.89c-4.33,3.56-13.51,9.08-13.51,9.08s4.53-4,3.93-8-10.91-7.42-12-7.27-.88,2.37,1,3.8,5.33,3.14,5.48,4.86-3.78,5.78-5.45,6.28-.49-8.76-.77-10.5-2.62-4.28-4-3.88-.43,4.29-.53,6.75-1.76,6.51-3.87,9.13a21.39,21.39,0,0,0-4.22,7.2c-.73,2.42-3.94,2.67-3.94,2.67Z"/><path class="cls-23" d="M1234.28,557.65s-2.36,5.44-6.33,7.68"/><path class="cls-23" d="M1235.76,557s1.42,6.86,3.7,9.62"/><path class="cls-24" d="M1174.53,560.58l.88,25.85s-23.17,1.7-30.11-.67c-3-1-7-9.94-9.89-17.24s-6.33-17.93-6.33-17.93l-8.17-62.77a29.23,29.23,0,0,1,16.37,8.63c6.44,6.68,17.89,57.51,22.56,62.28C1162.62,561.57,1165.62,559.35,1174.53,560.58Z"/><path class="cls-30" d="M1169.25,559.8s5-2.65,9.78-.13l2.5,25.9s-6.45,3-9.69,1.44Z"/><path class="cls-25" d="M952.52,560.81l4.22,15.33s11.64,4.1,33.44,7.75l.65.1a181.12,181.12,0,0,0,33.44,1.79l-5.15-23.38c-6.52-.65-15.44-.7-24.85-.62C978.76,561.88,962,562.32,952.52,560.81Z"/><path class="cls-28" d="M994.27,561.78l-4.09,22.11.65.1a181.12,181.12,0,0,0,33.44,1.79l-5.15-23.38C1012.6,561.75,1003.68,561.7,994.27,561.78Z"/><path class="cls-25" d="M960.08,577.23a23.79,23.79,0,0,0-6.5-.4c-2.57.39-11.93-.5-19.62-5.82s-13-6.31-15.28-8.39,2.51-3.15,8.54,0c4.54,2.39,4.9,1.89,4.9,1.89a107.91,107.91,0,0,0-11.91-7.47c-4.58-2.22-5.76-2.67-6.2-3.7s2.84-3.22,7.2-.64,9.21,4.78,11,5.89c0,0-4.73-3.25-6-4.4s-8.18-7.14-9.25-8.06-1.56-1.75-1-2.58,2.11-1.11,5.76,1.88c4.34,3.55,13.53,9,13.53,9s-4.54-4-3.94-8,10.89-7.44,11.93-7.29.88,2.37-.94,3.79-5.33,3.16-5.47,4.88,3.79,5.77,5.47,6.26.47-8.75.74-10.49,2.61-4.29,4-3.9.44,4.29.54,6.76,1.77,6.5,3.89,9.12a21.44,21.44,0,0,1,4.24,7.19c.74,2.42,3.94,2.67,3.94,2.67Z"/><path class="cls-23" d="M942.17,558s2.37,5.43,6.34,7.66"/><path class="cls-23" d="M940.68,557.25s-1.4,6.86-3.67,9.63"/><path class="cls-24" d="M1001.92,560.76l-.82,25.85s23.17,1.65,30.11-.74c3-1,7-10,9.86-17.26s6.28-17.94,6.28-17.94l8.05-62.78s-8-1.14-15.45,6.57c-6.43,6.69-18.68,59.64-23.34,64.41C1013.84,561.72,1010.83,559.51,1001.92,560.76Z"/><path class="cls-30" d="M1007.2,560s-5-2.63-9.78-.1L995,585.76s6.45,3,9.68,1.42Z"/><path class="cls-25" d="M1103.88,492,1086,509.49l-17.9-17.5a31.81,31.81,0,0,0,4.38-9.8,49,49,0,0,0,1.6-14.08l23.76,0a47.14,47.14,0,0,0,.54,8.82A36,36,0,0,0,1103.88,492Z"/><path class="cls-28" d="M1098.4,476.91c-4.9,2.46-13.66,5.61-25.9,5.28a49,49,0,0,0,1.6-14.08l23.76,0A47.14,47.14,0,0,0,1098.4,476.91Z"/><path class="cls-28" d="M1122.79,445.77c1.62,3.23-.72,7.68-5.22,9.94s-9.47,1.47-11.09-1.76.72-7.67,5.22-9.93S1121.18,442.55,1122.79,445.77Z"/><path class="cls-28" d="M1049,446.34c-1.57,3.25.84,7.66,5.38,9.85s9.49,1.33,11.06-1.92-.84-7.67-5.38-9.86S1050.6,443.09,1049,446.34Z"/><path class="cls-25" d="M1114,443.38c.14,17.35-12.31,33.23-27.49,33.35s-27.37-15.58-27.5-32.93,12.07-31.5,27.26-31.61S1113.89,426,1114,443.38Z"/><path class="cls-28" d="M1062,440.72a54.81,54.81,0,0,1,2.6-6.23l6.44-.93s0,2.62,4.08,2.76,22.78-1.69,31.18-4.12c0,0,4,3.88,4.54,6.86,0,0,3.44-6.07,0-10.12s-11.43-12.2-13.8-12.2l-24.6,0s-8.14,10.07-8.9,10.26-1.54,2.32-1.54,2.32l-2.69,9.76Z"/><path class="cls-31" d="M1061.18,455.57s-1.13-14.12,4-26L1064.08,414S1046.53,423.09,1061.18,455.57Z"/><path class="cls-31" d="M1112,455.52s1.1-14.12-4-26a172.3,172.3,0,0,1-26.83,4.25c-13.12.82-3.82-3.7-2.7-4.25-.93.34-9.11,3.14-16.46,2.67h0a1.18,1.18,0,0,1-.27,0,18.93,18.93,0,0,1-3.34-.52,9.12,9.12,0,0,1-1.45-.49h0a11.71,11.71,0,0,1-3-1.87,13.92,13.92,0,0,1-3.85-5.41,83.39,83.39,0,0,0,6-7.4l.08-.13c.45-.62.76-1.08.93-1.33a2,2,0,0,0,.14-.2,36.73,36.73,0,0,1,12.41-10.6c12-6.42,34-3.08,39.39,9.73C1109,414,1126.57,423,1112,455.52Z"/><path class="cls-32" d="M1109,414s-11.49-10.31-23.71-10.13a34.81,34.81,0,0,0-26,12.94,73,73,0,0,1-6.87,8.14c0,1.45,1.52,4.39,1.52,4.39a13.92,13.92,0,0,1-3.85-5.41,83.39,83.39,0,0,0,6-7.4l.08-.13c.45-.62.76-1.08.93-1.33a2,2,0,0,0,.14-.2,36.73,36.73,0,0,1,12.41-10.6C1081.62,397.83,1103.59,401.17,1109,414Z"/><path class="cls-24" d="M1131.22,594.07c1.86,2.75-10.77,10.18-45,14h0l-1.35-.15-1.41-.15c-32.2-3.86-44.11-10.93-42.33-13.6a13,13,0,0,0,1.78-5.07c0-.19,0-.36,0-.54-.12-3.25-.36-6.92-.69-10.88-1.51-18.82-4.75-44-4.44-60.22.43-22.67,2.69-27.22,13.36-29.57,5-1.1,13-1.63,20.12-1.9,0,0,3.73,11.69,14.82,11.68s14.8-11.71,14.8-11.71c1.7.06,3.43.13,5.18.23a105.91,105.91,0,0,1,14.94,1.63c10.67,2.33,12.94,6.87,13.42,29.54.06,3.26-2.39,32.44-3.89,53.3-.54,7.55-1,14-1.1,17.77A13.54,13.54,0,0,0,1131.22,594.07Z"/><path class="cls-33" d="M1041.06,567.12q-2.64-26.65-3.71-53.45"/><path class="cls-33" d="M1031.67,531.76a66.1,66.1,0,0,0,6.88,9.17"/><path class="cls-33" d="M1131.18,556.46c0-15,.59-30.33.59-45.34"/><path class="cls-33" d="M1131.35,539.73a35.2,35.2,0,0,0,7-8.17"/><path class="cls-34" d="M1086.17,608.07h0c-34.28-3.75-46.93-11.16-45.09-13.9a13,13,0,0,0,1.78-5.07c0-.19,0-.36,0-.54,5.1,4.57,16.76,10.71,42,8.72,38.9-3.09,45.66-26.62,45.66-26.62-.54,7.55-1,14-1.1,17.77a13.54,13.54,0,0,0,1.88,5.64C1133.08,596.82,1120.45,604.25,1086.17,608.07Z"/><path class="cls-35" d="M1082.4,503s-2.23,21.3,6.13,31.17,15.57,18.66,15.41,40.84l11.82,5.92s-1.23-29.91-13.77-41-14.16-19.49-15-22.14-1.57-13.1-1.57-13.1Z"/><path class="cls-36" d="M1084.68,503l.11,104.94-1.41-.15-.1-104.79Z"/><path class="cls-36" d="M1090,537.64a1.5,1.5,0,1,1-1.49-1.49A1.5,1.5,0,0,1,1090,537.64Z"/><path class="cls-36" d="M1090.05,555.17a1.5,1.5,0,1,1-1.5-1.49A1.5,1.5,0,0,1,1090.05,555.17Z"/><path class="cls-36" d="M1090.07,572.2a1.5,1.5,0,1,1-1.5-1.49A1.5,1.5,0,0,1,1090.07,572.2Z"/><path class="cls-36" d="M1090.08,589.23a1.49,1.49,0,0,1-1.49,1.5,1.5,1.5,0,1,1,0-3A1.49,1.49,0,0,1,1090.08,589.23Z"/><path class="cls-37" d="M1119.66,556.62c-3-10.44-21.37-21.33-26.32-29.59-3.57-6-4.81-15.85-5.23-20.89l5.43-5.44-7.56-3-7.56,3,5.58,5.57c-.46,27.27,13.46,31.8,19,42.57,5.71,11.2,5.53,26.38,5.53,26.38l8.74,6.83,5.31-8.74S1122.71,567.06,1119.66,556.62Z"/><path class="cls-30" d="M1100.79,486A24.55,24.55,0,0,1,1086,497.67a17.64,17.64,0,0,0,12.42,5.3c8,.13,5.45-17,5.45-17Z"/><path class="cls-30" d="M1071.15,486A24.57,24.57,0,0,0,1086,497.67a17.62,17.62,0,0,1-12.41,5.32c-8,.15-5.48-17-5.48-17Z"/></g></svg>