<svg id="Layer_1" data-name="Layer 1" xmlns="http://www.w3.org/2000/svg" viewBox="0 0 1920 1080"><defs><style>.cls-1{fill:#c7eef3;}.cls-2{fill:#f3cda1;}.cls-3{fill:#7bc4cb;}.cls-4{fill:#6e90bd;}.cls-5{fill:#fff;}.cls-6{fill:#80a0c6;}.cls-7{fill:#484882;}.cls-8{fill:#fc8864;}.cls-9{fill:#0e3547;}.cls-10{fill:#3a3a70;}.cls-11{fill:#50d193;}.cls-12{fill:#37af73;}.cls-13{fill:#ef7352;}.cls-14{fill:#db5940;}.cls-15{fill:#00a9a4;}.cls-16{fill:#006769;}.cls-17{fill:#e05a3f;}.cls-18{fill:#349399;}.cls-19{fill:#278082;}.cls-20{fill:#414042;}</style></defs><path class="cls-1" d="M1333.62,865.34H494A14.94,14.94,0,0,1,479,850.4h0A14.94,14.94,0,0,1,494,835.46h839.64a14.94,14.94,0,0,1,14.94,14.94h0A14.94,14.94,0,0,1,1333.62,865.34Z"/><path class="cls-1" d="M1239.61,899.91H880.05a10.52,10.52,0,0,1-10.52-10.52h0a10.52,10.52,0,0,1,10.52-10.53h359.56a10.52,10.52,0,0,1,10.53,10.53h0A10.52,10.52,0,0,1,1239.61,899.91Z"/><path class="cls-1" d="M781.81,929.36H569.25a10.53,10.53,0,0,1-10.52-10.53h0a10.53,10.53,0,0,1,10.52-10.53H781.81a10.54,10.54,0,0,1,10.53,10.53h0A10.54,10.54,0,0,1,781.81,929.36Z"/><path class="cls-1" d="M1397,952.44H1250.83a10.53,10.53,0,0,1-10.53-10.53h0a10.52,10.52,0,0,1,10.53-10.53H1397Z"/><path class="cls-2" d="M1097.19,769.65c-1.61,2.43-3.3,4.76-5.11,7C1093.86,774.41,1095.56,772.08,1097.19,769.65Z"/><path class="cls-3" d="M1142.61,309.13c-11-2.54-33.54,58.81-39.82,76.56l1.07-5.8c.75-4.69,1.47-9.19,2.16-13.46s1.14-8.34,1.66-12.15.83-7.39,1.19-10.69.56-6.34.81-9.08c.51-5.48.65-9.77.83-12.7l.23-4.5s-.1,1.57-.3,4.5-.43,7.23-1,12.71c-.29,2.73-.51,5.77-.94,9.06s-.87,6.87-1.35,10.68-1.19,7.85-1.84,12.12-1.54,8.74-2.36,13.41l-1.62,8.1c.74-19.36,2.22-81.47-9.06-81.59-11.79-.12-3.74,52.63,8.22,85.67-.16.79-.31,1.56-.48,2.36-1.15,5-2.19,10.19-3.52,15.49s-2.6,10.76-4.11,16.3c0,.21-.11.42-.17.63-.55-18.22-3.51-89-16.17-88s0,56.44,15.5,90.54c-.39,1.44-.76,2.88-1.17,4.33-.23.42-.36.64-.36.64l.25-.2c-.83,3-1.68,6-2.55,9-1.63,5.74-3.44,11.54-5.23,17.41-.89,2.75-1.77,5.53-2.66,8.31-2.16-16.89-12-87.62-24.73-85.12s5.29,55.28,24.12,87c-.81,2.52-1.64,5-2.52,7.57-3.39,10.18-7.12,20.41-11,30.6-1.78-16.14-8.88-73.88-19.52-72-10.81,1.86,3.39,46.61,18.75,74.08-.39,1.05-.79,2.09-1.19,3.14-4.17,10.78-8.57,21.46-13.08,31.94-1.56-18-7.5-76.52-18.41-75-11.19,1.6,2.22,48.22,17.37,77.39-.11.27-.23.54-.35.81-3.94,8.92-7.9,17.69-12,26.17-1-17.3-5.23-77.66-16.27-76.46-11.23,1.22.93,48.75,15.27,78.52-.83,1.73-1.66,3.47-2.51,5.18-2.57,5.38-5.31,10.57-7.88,15.7-.7,1.29-1.37,2.57-2,3.86-1-18-5.57-84.33-17.6-83s1.07,52.82,16.58,84.94c-1.61,3.07-3.22,6.11-4.87,9-2.76,5.09-5.54,10-8.28,14.64-.71-13.73-5.12-86.62-17.71-85.26-12.3,1.34,1.41,54.15,17.18,86.16-2.24,3.8-4.44,7.49-6.58,11-2.5,4-4.94,7.86-7.27,11.48-.79,1.17-1.54,2.31-2.29,3.44-.89-16.64-5.76-93.9-19.32-92.43-13.37,1.45,1.4,58.6,18.52,93.62-1.26,1.92-2.5,3.77-3.74,5.51-3.23,4.68-6.26,8.83-9,12.42-2.71-22.49-11.69-88.08-24.27-85.82-13,2.33,3.75,54.69,22.33,88.37l-.76,1-4.48,5.66c-1.33,1.64-2.54,3-3.49,4.14l-2.92,3.44,4.27,4.38,2.88-3.49c.93-1.15,2.1-2.51,3.44-4.22l4.59-6,.08-.1c36.45,5.62,90.6,1.74,87.51-12.16s-68.6,5-86.18,10.35c3.05-4.13,6.51-9,10.27-14.58.69-1,1.38-2.07,2.06-3.13,37.33.45,91.79-11,87.09-24.22s-69.36,15-85.9,22.43c1.14-1.78,2.31-3.62,3.54-5.49q3.48-5.58,7.2-11.76,1.86-3.16,3.78-6.48c37.61-3.31,91.8-20.25,86-32.83s-69.72,22.52-85,31.15c3.43-6,7-12.26,10.43-18.92.86-1.58,1.7-3.22,2.54-4.85,37.54-6.58,90.06-27.61,83.4-39.47-6.54-11.66-65.36,26-82.13,37,1.31-2.56,2.61-5.16,4-7.77,2.52-5.21,5.2-10.48,7.71-15.94.21-.44.42-.9.63-1.35,37.1-11.11,87.46-38,79.64-48.77-7.59-10.46-61.32,31.93-78.18,45.65,4.43-9.49,8.73-19.34,13-29.37,36.41-15.08,85.77-48.1,76.76-57.89s-62.21,42.09-75.83,55.63c4.53-10.93,8.93-22.07,13.09-33.31q.81-2.21,1.6-4.41c33.82-17.75,78.11-53,68.78-61.35-9-8.07-53.81,42.18-67.61,58.11,3.41-9.49,6.7-19,9.69-28.45.87-2.62,1.69-5.24,2.49-7.85,32.34-21.51,73.66-61.67,63.43-68.74-9.87-6.83-50,48-62.36,65.27.66-2.18,1.32-4.37,2-6.53,1.71-5.92,3.44-11.76,5-17.54q1.53-5.72,3-11.3c30.47-25,68.1-69.23,57.16-75-10.45-5.46-44.87,51.54-56.11,70.79l.4-1.57c1.42-5.57,2.66-11.05,3.87-16.39s2.22-10.54,3.3-15.57c.34-1.77.66-3.5,1-5.23C1126.11,360.51,1153.94,311.76,1142.61,309.13Z"/><path class="cls-3" d="M699.92,216.62c13.5-3.62,35.4,58,41.43,75.87-.26-2-.52-4-.78-5.92q-.75-7.2-1.42-13.76-.49-6.58-.94-12.46c-.18-3.92-.34-7.59-.5-11s-.11-6.53-.17-9.35c-.14-5.63.08-10.08.12-13.1s.11-4.64.11-4.64,0,1.61,0,4.64-.13,7.46.11,13.09c.11,2.81.11,5.93.34,9.32s.44,7,.69,10.95.75,8,1.16,12.41,1.09,8.92,1.67,13.7c.41,2.68.82,5.45,1.24,8.26.82-20,4.52-84.3,18.19-85.43,14.28-1.17-.13,54.26-17.54,89.59.13.8.24,1.58.38,2.39.94,5.09,1.75,10.39,2.89,15.76s2.2,10.93,3.53,16.54l.15.64c2.28-18.94,12.13-92.63,27.37-92.73,15.41-.1-5,58.54-26.78,95.28.34,1.46.67,2.92,1,4.39.25.4.38.63.38.63l-.28-.18c.74,3,1.51,6.05,2.29,9.12,1.46,5.81,3.14,11.66,4.78,17.6.84,2.77,1.66,5.57,2.5,8.38,4.1-17.71,22.22-91.93,37.48-90.48S788,344,762.42,378.48c.76,2.54,1.54,5.09,2.38,7.63,3.2,10.26,6.82,20.53,10.59,30.77,3.58-16.9,17.29-77.42,30-76.46,12.92,1-8.24,48.65-29.26,78.49.38,1,.77,2.11,1.16,3.15,4.1,10.82,8.47,21.51,13,32,3.48-18.78,15.86-80,28.93-79.39,13.41.67-7,50.21-27.89,81.81.12.27.24.54.35.81,4,8.9,8,17.65,12.17,26.09,2.73-18,13.21-81,26.47-80.74,13.49.27-5.45,50.64-25.44,82.79.86,1.72,1.71,3.45,2.58,5.14,2.64,5.36,5.5,10.49,8.16,15.59.72,1.28,1.42,2.55,2.13,3.82,2.81-18.73,14.2-88,28.65-87.67s-6,54.88-27.6,89.57c1.69,3,3.36,6,5.1,8.94,2.89,5,5.83,9.85,8.73,14.45,2.08-14.31,13.86-90.3,29-90,14.77.29-6.5,56.28-28.43,90.88,2.37,3.75,4.72,7.37,7,10.84,2.67,3.95,5.28,7.71,7.79,11.26.84,1.14,1.66,2.25,2.46,3.36C853,544.26,865.75,463.7,882,464c16.06.32-6.88,60.9-30.71,98.74,1.36,1.87,2.7,3.69,4,5.38,3.5,4.57,6.8,8.6,9.76,12.09,5.26-23.57,21.94-92.39,37-91.16,15.48,1.27-9.38,57.06-34.86,93.63.27.32.55.65.82.95,1.85,2.05,3.5,3.88,4.93,5.48s2.82,2.9,3.86,4l3.24,3.31-5.56,4.93L871.35,598c-1-1.11-2.32-2.42-3.8-4.07l-5-5.78-.09-.1c-44.63,9.06-109.85,9.83-104.88-4.87s82.61-.85,103.42,3.11c-3.32-4-7.08-8.72-11.14-14.21-.74-1-1.48-2-2.22-3.06-45.23,3.76-110.15-3.3-103.29-17.42s82.64,9.4,102,15.66c-1.23-1.75-2.49-3.55-3.8-5.38q-3.72-5.48-7.68-11.56-2-3.12-4-6.39c-45.24-.1-109.36-12.87-101.19-26.43s82.43,17.18,100.18,24.78c-3.63-5.89-7.34-12.1-11-18.7-.91-1.56-1.77-3.19-2.64-4.81-44.88-3.5-106.6-20.67-97.49-33.56,9-12.66,76.83,21.16,96.16,31.15-1.36-2.54-2.71-5.12-4.12-7.71-2.58-5.19-5.37-10.41-7.92-15.85-.22-.44-.43-.9-.65-1.35-43.93-8.23-102.53-31.64-92.1-43.53,10.11-11.52,71.41,27.69,90.61,40.43-4.52-9.46-8.85-19.29-13.12-29.32-42.75-12.42-99.6-42.29-87.82-53.24s71.6,38.14,86.89,51c-4.52-10.93-8.86-22.1-12.9-33.39-.52-1.47-1-2.95-1.55-4.42-39.38-15.42-89.88-48.08-77.85-57.55,11.65-9.17,61.42,39,76.72,54.28-3.29-9.53-6.43-19.1-9.22-28.64-.82-2.64-1.57-5.29-2.31-7.93-37.25-19.45-83.72-57.44-70.72-65.68,12.56-7.95,56.33,45.31,69.73,62.18-.61-2.21-1.22-4.42-1.83-6.6-1.55-6-3.12-11.89-4.49-17.75q-1.35-5.79-2.6-11.45C715,316.58,673.35,274,687.1,267.12c13.14-6.59,49.76,49.48,61.67,68.45-.11-.53-.24-1.06-.34-1.59-1.24-5.65-2.25-11.23-3.24-16.65s-1.76-10.74-2.62-15.86c-.26-1.81-.49-3.58-.73-5.35C715.35,268.44,686,220.35,699.92,216.62Z"/><path class="cls-4" d="M918.86,828.41c-29-178.58-105.28-190.26-100.4-325.66s69-199.91,69-199.91-24.55,117.88,39.44,204.68C1077.71,712.15,918.86,828.41,918.86,828.41Z"/><path class="cls-5" d="M878.87,321.73a249.39,249.39,0,0,0-10.4,29.94,314.26,314.26,0,0,0-7.11,30.87,282.32,282.32,0,0,0-4.44,63A258.62,258.62,0,0,0,860.34,477,217.72,217.72,0,0,0,868,507.61l1.26,3.74c.42,1.25.83,2.51,1.33,3.72l2.88,7.36c1,2.43,2.14,4.81,3.2,7.22.55,1.19,1.07,2.4,1.64,3.59l1.74,3.56Q887,551,894.66,564.93c5,9.29,10.25,18.49,15.39,27.74s10.21,18.57,14.57,28.26A169,169,0,0,1,935.17,651a176.45,176.45,0,0,1,4.56,31.5,278.63,278.63,0,0,1,0,31.79c-.6,10.58-1.47,21.14-2.77,31.65-2.53,21-6,41.9-9.93,62.69,3.58-20.85,6.76-41.78,9-62.8,1.19-10.51,2-21,2.48-31.59a278.28,278.28,0,0,0-.26-31.64,185.27,185.27,0,0,0-4.71-31.19A166.36,166.36,0,0,0,923,621.68c-4.35-9.59-9.42-18.86-14.58-28.08S898,575.18,892.91,565.88s-9.93-18.71-14.54-28.25l-1.74-3.57c-.57-1.2-1.09-2.42-1.64-3.63-1.07-2.43-2.21-4.83-3.21-7.29l-2.88-7.43c-.51-1.23-.91-2.49-1.33-3.75l-1.26-3.78a217.83,217.83,0,0,1-7.67-30.89,242,242,0,0,1-3.25-31.65,282.72,282.72,0,0,1,5-63.28c2-10.4,4.58-20.69,7.6-30.83A250.77,250.77,0,0,1,878.87,321.73Z"/><path class="cls-6" d="M695.83,360.75s-26.77,48.66-46.23,79.56-38.45,79.08-16.18,111.2l41.42,22.08-31.75-.91s19.45,28.43,42.76,50.85c38.21,36.74,95.39,60.1,108.52,69.84l27.74-6.09L817,707.36s70.08,47.81,119,128.1c0,0,17.69-107.85-42.34-187.59-48.91-65-93.44-66.07-165.7-125.56l-1.71,17.76-8.51-27S657.87,464.28,695.83,360.75Z"/><path class="cls-5" d="M695.83,360.75a354.16,354.16,0,0,0-25.93,70,242.56,242.56,0,0,0-6.46,36.74,175.42,175.42,0,0,0-.73,18.62,136.65,136.65,0,0,0,1.58,18.52,93.86,93.86,0,0,0,12.37,34.71c.77,1.34,1.7,2.58,2.54,3.87s1.81,2.49,2.77,3.7c1.9,2.42,4.06,4.67,6.15,7,4.1,4.67,8.65,8.91,13.12,13.23,18.34,16.82,39.32,30.47,61,42.66,10.83,6.16,21.8,12.08,32.7,18.17s21.73,12.34,32.17,19.23a271.58,271.58,0,0,1,30,22.6,202,202,0,0,1,25.75,27.28l2.86,3.72c.93,1.26,2,2.44,2.8,3.77l5.26,7.77c.43.66.89,1.29,1.3,2l1.2,2,2.39,4c1.59,2.7,3.23,5.36,4.6,8.18l4.28,8.34c1.38,2.81,2.57,5.7,3.86,8.55,2.67,5.66,4.72,11.57,7,17.4,8.49,23.52,13.84,48,17.64,72.67-4.12-24.59-9.79-49-18.56-72.33-2.29-5.79-4.36-11.67-7.07-17.29-1.31-2.82-2.51-5.69-3.9-8.48l-4.33-8.26c-1.37-2.8-3-5.43-4.63-8.1l-2.4-4-1.2-2c-.42-.66-.88-1.29-1.31-1.93l-5.28-7.69c-.85-1.3-1.87-2.47-2.81-3.71L881.63,698c-1-1.21-1.88-2.47-2.89-3.65l-3.08-3.5c-2.08-2.3-4-4.73-6.27-6.88s-4.34-4.45-6.56-6.62L856,671.07a271.7,271.7,0,0,0-29.8-22.38c-10.41-6.83-21.21-13-32.11-19.08s-21.89-12-32.76-18.11c-21.73-12.27-42.83-26.06-61.28-43.06-4.49-4.36-9.06-8.65-13.19-13.37-2.1-2.32-4.26-4.58-6.21-7.07-1-1.24-1.9-2.52-2.82-3.79s-1.8-2.59-2.59-4c-6.64-10.75-10.55-23-12.42-35.38a136.91,136.91,0,0,1-1.45-18.75,175.23,175.23,0,0,1,.87-18.75A239.81,239.81,0,0,1,669,430.51a355.37,355.37,0,0,1,26.87-69.76Z"/><path class="cls-6" d="M932.33,815.08s12.14-48.9,78.36-51.88c86.5-3.89,152.56-20.68,167.4-128.47L1146.7,633l31.39-13.87s-23.36-82.24,65.21-124.58c0,0-31.75,4.57-62.59,7.85s-86.65,12.71-93.22,71.35c-7,62.82-20.84,81.06-20.84,81.06l5,18.46-14.36-12.89S1038.67,681,1000,690.2,926.48,743.84,932.33,815.08Z"/><path class="cls-5" d="M1216.05,502.36a116.19,116.19,0,0,0-13.37,4.79q-6.56,2.78-12.81,6.14c-4.17,2.23-8.22,4.7-12.14,7.33-2,1.3-3.88,2.71-5.79,4.09l-2.8,2.18-1.39,1.09-1.35,1.15a127.64,127.64,0,0,0-10.37,9.63l-2.39,2.61-1.19,1.31-1.13,1.36-2.26,2.71-2.13,2.83c-1.46,1.85-2.71,3.85-4,5.8-.69,1-1.24,2-1.86,3l-1.79,3-1.63,3.13c-.53,1.06-1.12,2.08-1.57,3.17l-1.44,3.22-.71,1.61-.62,1.66c-.83,2.2-1.71,4.38-2.35,6.65l-1,3.37c-.33,1.13-.57,2.28-.86,3.42l-.84,3.43c-.24,1.15-.43,2.31-.65,3.47l-.64,3.47-.54,3.51c-1.45,9.38-3,18.75-4.86,28.07a200.74,200.74,0,0,1-7.38,27.58,105.64,105.64,0,0,1-5.75,13.14,75.71,75.71,0,0,1-7.85,12c-1.47,1.9-3.13,3.64-4.77,5.41l-2.6,2.49c-.85.85-1.81,1.57-2.71,2.37a83.09,83.09,0,0,1-11.77,8.23c-2,1.27-4.19,2.3-6.29,3.44l-3.24,1.54c-1.07.51-2.15,1-3.26,1.47-2.19.94-4.39,1.88-6.62,2.69-1.12.42-2.23.87-3.35,1.26l-3.38,1.16c-9,3.06-18.21,5.52-27.46,7.69-2.32.53-4.59,1.13-6.87,1.71-1.14.3-2.29.57-3.42.9l-3.37,1.06-3.38,1.05-3.31,1.23-3.31,1.24-3.23,1.42A114.23,114.23,0,0,0,974,743.14a110.51,110.51,0,0,0-19.7,20.2,119.39,119.39,0,0,0-7.81,11.81,121.9,121.9,0,0,0-6.3,12.7,116.66,116.66,0,0,0-4.78,13.36,91.49,91.49,0,0,0-3,13.87,92.23,92.23,0,0,1,2.79-13.94,119.42,119.42,0,0,1,4.57-13.48,123,123,0,0,1,6.11-12.87,119.89,119.89,0,0,1,7.66-12,111.49,111.49,0,0,1,19.7-20.61,115.91,115.91,0,0,1,24.39-14.82l3.27-1.46,3.33-1.29,3.34-1.28,3.41-1.1,3.4-1.09c1.15-.33,2.31-.61,3.46-.92,2.31-.59,4.62-1.21,6.92-1.74,9.2-2.19,18.34-4.67,27.27-7.73l3.34-1.16c1.11-.4,2.2-.84,3.3-1.26,2.22-.81,4.38-1.75,6.54-2.68,1.09-.45,2.16-1,3.22-1.46l3.18-1.53c2.06-1.13,4.18-2.15,6.17-3.4a80.66,80.66,0,0,0,11.48-8.08c.87-.78,1.81-1.48,2.64-2.31l2.52-2.44c1.58-1.72,3.19-3.42,4.61-5.27a73.57,73.57,0,0,0,7.7-11.72,104.75,104.75,0,0,0,5.68-12.87,198.84,198.84,0,0,0,7.39-27.3c1.89-9.26,3.45-18.6,4.93-28l.56-3.51.66-3.52c.22-1.18.42-2.35.67-3.52l.87-3.47c.31-1.16.56-2.33.91-3.47l1.09-3.41c.67-2.29,1.58-4.5,2.44-6.73l.65-1.67.74-1.63,1.49-3.25c.47-1.1,1.07-2.13,1.62-3.19l1.68-3.16,1.85-3.07c.63-1,1.21-2.06,1.9-3,1.36-2,2.65-4,4.14-5.84l2.18-2.83,2.31-2.73,1.16-1.36,1.21-1.31,2.44-2.61a124.55,124.55,0,0,1,10.56-9.6l1.38-1.13,1.42-1.08,2.85-2.14c2-1.36,3.89-2.75,5.9-4a138.57,138.57,0,0,1,12.32-7.16c4.22-2.17,8.53-4.16,12.93-5.93A116.65,116.65,0,0,1,1216.05,502.36Z"/><path class="cls-7" d="M994.59,266.91c-6.47-7.74,1.09-11.17-2.24-19-2.4-5.62-7.11-3.86-10.83-8.88-2.39-3.23-11.66-14-17.94-7.11-2.46-11-18.79-17.36-27.35-11.91-5.48,3.48-4.94,5.79-11.9,7-8.22,1.38-10.91,1.16-13.65,9.69-2.81,8.75-4.7,8-11,14.49-8.88,9.21-2,13.63.38,22.79,3.42,13.25-13.65,16.51-2.35,29.61,3.1,3.59,10.84,5.61,7,13.24-5.58,11.1,4.8,18,11.58,19.2,6,1.08,51.86,11.51,63.27-9.6,3-5.52-1.37-9.71,1.14-13.47,1.56-2.34,4-3.63,5.72-5.79,2.32-3,2.64-7.21,2.36-10.9-.26-3.33-1.21-6.74,1.63-9.17C998.81,279.85,997.82,270.77,994.59,266.91Z"/><path class="cls-8" d="M941.78,321.15c-10.94,0-32.41-14.51-32.41-32.41V264.37A32.4,32.4,0,0,1,941.78,232h0a32.4,32.4,0,0,1,32.4,32.4v24.37C974.18,306.64,953.24,321.15,941.78,321.15Z"/><path class="cls-7" d="M959.1,237.76c-2.73,12.1-11.77,13.23-21,13.83a11.75,11.75,0,0,0-9.37,5.21c-1.3,2.14-1.06,4.9-2.4,6.95s-3.94,2.49-5.15,4.84c-1,1.94-.9,4.66-.87,6.85.07,7.45-.3,10.33-5.12,15.51a14.92,14.92,0,0,0-2.88,16.32,18.15,18.15,0,0,1-3.68-13c.84-7.5-.33-13.51-.7-21.15-.75-15.63-2.11-33.78,22.13-39.91a49.41,49.41,0,0,1,25.41,0Z"/><path class="cls-7" d="M959.74,234.28c-8.08,6.21-3.32,17.79,2.15,24.15,3.81,4.43,5.67,5.5,5.26,11.69-.37,5.52.71,6.83,4,10.86,5.51,6.82,2.27,12.39.29,19.89,4.19-1.88,7.73-9.7,9.47-14.23,2.29-6,2.26-13.27,1-19.69-1.56-8.15-4.29-17.88-9.87-23.48-2.54-2.55-7.47-4.2-8.85-7.74Z"/><path class="cls-9" d="M990.47,493.76c-14.64,13.72-58.6,30.13-123.22,40.83.62-2.87,1.26-5.75,1.92-8.59,62.1-10.44,104.8-26.18,120.25-39.56Q990,490,990.47,493.76Z"/><path class="cls-7" d="M1027.29,814.07h-19.65c-6.2-32.31-18.78-65.12-26.53-89.94-3.29-10.53-5.93-38.32-9.65-52.87-5.06-19.77-17.92-52.67-22.82-74.9-11.49-52.14-13.38-61.71-13.38-61.71a13.8,13.8,0,0,1-10.53-.06c-12.34,49.95-32.92,93.68-37.61,112.25-4.83,19.18,1.37,41.48-.18,67.07s-5,100.16-5,100.16H862.78s-8.84-62.44-12.29-82.2c-4.88-28-4.77-32.3,1.17-66.42,2.21-12.81,3.44-55.52,10.2-101.34,4.7-31.82,13.95-66.27,21.82-91.32,0,0,45.63,15.83,103.6.94a370.88,370.88,0,0,1,5.75,47c2.5,44.76,5,98.48,6.59,117.09s8.92,33.22,16.29,63.08S1027.29,814.07,1027.29,814.07Z"/><path class="cls-10" d="M887,646.84c-4.84,19.18,1.36,41.48-.19,67.07-.76,12.53-2,36.82-3,58.33-.32-56.93-8.3-96.29-7.86-110.81.49-16.53,8-19.24,21.46-55.44,13.22-35.63,26.77-70.3,27.19-71.37C912.25,584.56,891.69,628.27,887,646.84Z"/><path class="cls-10" d="M996.78,772.44h0c-5.44-17.63-11.38-34.26-15.77-48.31-3.29-10.53-5.93-38.32-9.65-52.87-5.05-19.77-17.93-52.66-22.83-74.9-10.4-47.26-12.93-59.54-13.3-61.43,1.25,4.59,19.53,65.72,26.69,86.06,9.55,27.14,18.72,37.6,18.34,45S980.75,708.74,996.78,772.44Z"/><path class="cls-3" d="M844.08,862.19s17.32-21.8,26.27-24.88,21.66-2.51,24.45,3.22-28.52,23.54-34.45,24.17S844.08,862.19,844.08,862.19Z"/><path class="cls-11" d="M886,800.67c.48,4-.52,8.11.9,13.47,1.28,4.82,2.2,8.08,1,12.21s-6.23,10.41-7.84,16-6.79,16.47-15.32,20.87-25.07,1.16-26.49-1.81a12.51,12.51,0,0,1,1.42-12c2.85-3.75,11.76-9.82,13.57-18.22s2.2-17.58,3.62-19.78,11.18-4.4,15.44-1,6.29,2.16,8.53.13c1.85-1.67.82-5.79,1.79-8.63C883.12,800.38,885.82,799.33,886,800.67Z"/><path class="cls-12" d="M887.91,826.35c-1.16,4.14-6.22,10.41-7.83,16s-6.78,16.49-15.31,20.88-25.08,1.16-26.51-1.82a11,11,0,0,1-.91-5c1.64,3,18,6.09,26.44,1.74s12.92-12.35,14.85-17.8c2.6-7.34,7.79-13,9.71-19.41A13.44,13.44,0,0,1,887.91,826.35Z"/><path class="cls-3" d="M1045.34,862.19s-17.33-21.8-26.27-24.88-21.66-2.51-24.46,3.22,28.53,23.54,34.46,24.17S1045.34,862.19,1045.34,862.19Z"/><path class="cls-11" d="M1003.17,800.67c-.49,4,.51,8.11-.91,13.47-1.27,4.82-2.2,8.08-1,12.21s6.22,10.41,7.84,16,6.78,16.47,15.31,20.87,25.07,1.16,26.5-1.81a12.49,12.49,0,0,0-1.43-12c-2.84-3.75-11.76-9.82-13.57-18.22s-2.19-17.58-3.61-19.78-11.18-4.4-15.45-1-6.29,2.16-8.53.13c-1.84-1.67-.82-5.79-1.78-8.63C1006,800.38,1003.33,799.33,1003.17,800.67Z"/><path class="cls-12" d="M1001.23,826.35c1.17,4.14,6.23,10.41,7.84,16s6.78,16.49,15.31,20.88,25.08,1.16,26.5-1.82a11,11,0,0,0,.92-5c-1.65,3-18,6.09-26.45,1.74s-12.91-12.35-14.84-17.8c-2.61-7.34-7.79-13-9.71-19.41A13.61,13.61,0,0,0,1001.23,826.35Z"/><path class="cls-13" d="M993,482.81c-13.79,17.15-77.16,39.72-171.63,49.68-44,4.63-84.37,7.07-116.83,7.07-28.76,0-65.4-1.94-76.75-11.18a10.63,10.63,0,0,1-4.26-7.29c-.3-3,.35-6.72,7.44-11.51,9-6.1,26.72-12.47,52.51-18.94,36.42-9.12,83.44-16.94,129-21.46,26.69-2.64,51.47-4.68,73.64-6.07l.68,0-3.33,10.3c-21.25,1.37-44.79,3.33-70,5.83-45.11,4.46-91.6,12.19-127.57,21.2-42.52,10.66-50.68,18-52.15,19.85a3.46,3.46,0,0,0,.38.33c11.62,9.47,79.3,13.16,186.17,1.9,96.38-10.16,154.41-33,164.83-46a38.76,38.76,0,0,0,2-3.63l-1.65-8.55.85.25c6.32,1.89,9.48,4.71,9.95,8.86C996.62,476.51,995.52,479.67,993,482.81Z"/><path class="cls-8" d="M886.84,463.06l-1.23,3.81c-22,1.38-46.82,2-73.26,5C668,487.82,631,509.58,631,509.58c9-6.1,26.72-12.47,52.51-18.94,36.42-9.12,83.44-16.94,129-21.46,26.69-2.64,51.47-4.68,73.64-6.07Z"/><path class="cls-8" d="M633.74,520.25a2.72,2.72,0,0,0,.38.33c11.61,9.47,79.29,13.16,186.17,1.9,96.37-10.16,154.41-33,164.82-46a38.76,38.76,0,0,0,2-3.63l-1.64-8.54.85.24c3.18.95,6.16,9.26,3.89,12.09-13.79,17.15-76.36,40.51-171.63,49.68C635.28,544,633.74,520.25,633.74,520.25Z"/><path class="cls-14" d="M853,475.62c-12.61,1-25.81,2.21-39.51,3.58-45.1,4.46-91.6,12.19-127.56,21.2-42.36,10.61-50.62,17.92-52.14,19.82-1.46-.64-.7-2.92.5-4.35,2.6-2.58,10.61-7.23,48.05-17.23C718.17,489.06,765,482.87,810.15,479,825.07,477.66,839.4,476.55,853,475.62Z"/><path class="cls-14" d="M988.62,487.13c-20,16.44-80.52,36.21-167.24,45.36-44,4.63-84.37,7.07-116.83,7.07-28.75,0-65.4-1.94-76.75-11.18a10.63,10.63,0,0,1-4.26-7.29,9.3,9.3,0,0,1,0-2.35,11.09,11.09,0,0,0,4,6c11.25,9.34,47.88,11.66,76.63,11.94,32.45.32,72.88-1.74,116.89-5.93C907.69,522.47,968.31,503.37,988.62,487.13Z"/><path class="cls-15" d="M987.28,473.73c-58,14.89-103.6-.93-103.6-.93,5.43-17.2,10.28-30.29,12.81-35.86,6.2-13.69,8-27.26,4.53-35.14a109.57,109.57,0,0,1-4.95-15.15v0c15.91-16.48,10.53-54.29,9.77-59.19,4-.17,8.28-.13,12.48,0,1.12,3.86,8.38,26.91,22.46,26.91,13.91,0,22.43-22.19,23.91-26.44,4-.25,8-.44,11.76-.5-.29,3.2-3.54,43.18,14.87,57-4.32,19-12.42,18.49-12.88,36.28C978.09,433,983,450.25,987.28,473.73Z"/><path class="cls-16" d="M991.32,384.38c-4.33,19-12.42,18.49-12.89,36.28,0,.53,0,1,0,1.6-1.61-14.78-24.55-21.79-24.55-21.79,11.63,1.84,29.28-7.56,32-14.26a33.76,33.76,0,0,0,1.64-5.41l.08.09c.18.22.39.44.59.64a5.78,5.78,0,0,0,.49.51c.22.23.44.45.67.65s.64.59,1,.87A10.16,10.16,0,0,0,991.32,384.38Z"/><path class="cls-16" d="M928.79,400.08s-18.36,8.48-27.08,21c1.58-7.71,1.41-14.55-.7-19.31a109.5,109.5,0,0,1-4.94-15.15v0a28.56,28.56,0,0,0,3.7-4.79c1,5.65,3.21,11.09,7.56,13.59C917.53,401.32,928.79,400.08,928.79,400.08Z"/><path class="cls-16" d="M987.28,473.73a203.83,203.83,0,0,1-52.78,6.37c2.85-.24,33.47-3.24,40.31-16.92,5-10,4.31-31.51,4.28-32.19C980.53,442.12,984.07,456.19,987.28,473.73Z"/><path class="cls-16" d="M912.71,478.74c-18-2.13-29-5.94-29-5.94,5.43-17.2,10.28-30.29,12.81-35.86.12-.28.25-.56.37-.83-.06.68-7.45,20.84-3.47,30.82C895.28,471.69,907,476.26,912.71,478.74Z"/><path class="cls-8" d="M964.56,328.13c-1.69,4.73-10.14,26.23-23.84,26.23-14.08,0-21.34-23.05-22.46-26.91,2.72.09,5.39.22,7.91.37l1-13.13,29.42.11.84,13.6S962,328.24,964.56,328.13Z"/><path class="cls-13" d="M957.09,323.75c-5.37,3.5-11,5.55-15.31,5.55s-9.86-2.11-15.31-5.71l.56-7.79c5.27,3.39,10.72,5.36,14.75,5.36s9.6-1.93,14.81-5.26Z"/><path class="cls-13" d="M1109.1,452.14c3,3.76,4.33,8.8,6.52,11.84.09.13.18.25.29.38a8,8,0,0,0,5.2,2.74c-2.52-3.08-5.14-8-6.58-10.51A11.77,11.77,0,0,0,1109.1,452.14Z"/><path class="cls-17" d="M1105.69,451c2.28,3.54,3.57,7.74,5.48,10.39a7.75,7.75,0,0,0,4.74,3c-.11-.13-.2-.25-.29-.38-2.19-3-3.55-8.08-6.52-11.84h0A17.55,17.55,0,0,0,1105.69,451Z"/><path class="cls-8" d="M1123.55,469.14c-2.48-.43-7.57-10.22-10.08-13.51s-13-3.21-13-3.21c.09,3,1.49,4.89,2.65,6.82s-.19,5.43-1.81,5.05-3.8-3.7-5.49-7.11-7.37-11.18-10.33-12.48-22.79-.13-39.3-.13c-22.69,0-34.51-5-39.8-11.89s-14-53.89-14-53.89c-.32,2-.68,3.89-1.07,5.59C973.49,371,976,333.08,976.41,327.82c14.87,0,27.71,1.85,32.9,10,4.66,7.29,5.31,18.42,8.38,29.77,5.41,20,9.46,49.83,9.46,49.83,23.65,1.94,52.54,14.05,56.31,14.83s15.23,2,19.56,3.19,14,11.5,16,13.92,6.25,14.34,6.93,16.57S1126,469.59,1123.55,469.14Z"/><path class="cls-13" d="M992.39,378.79c-.32,2-.68,3.89-1.07,5.59a10.16,10.16,0,0,1-1-.82c-.34-.28-.67-.57-1-.87s-.45-.42-.67-.65a5.78,5.78,0,0,1-.49-.51c-.2-.2-.41-.42-.59-.64l-.08-.09a61.13,61.13,0,0,0,.51-19.93A108.67,108.67,0,0,1,992.39,378.79Z"/><path class="cls-13" d="M1103.18,462.8c-.4,1-1.12,1.67-1.89,1.49-1.62-.39-3.8-3.7-5.49-7.11s-7.37-11.18-10.33-12.48-22.78-.13-39.3-.13c-22.69,0-34.51-5-39.8-11.89C1002.9,428.2,998,406.48,995,392c0,0,8.8,31.41,16.16,37.9s28,11.63,47.3,11.84,22,1,24.44.54a8.61,8.61,0,0,0,3.68-1.45s.93,3.49,3.06,4.84,5.59,8,6.89,10.54S1100,464.32,1103.18,462.8Z"/><path class="cls-13" d="M1027.15,417.43a61,61,0,0,0-11.31,1s7.59-4.18,10.74-5Z"/><path class="cls-8" d="M896.07,386.63c-.87-3.3-1.38-5.64-1.38-5.64-2.85,24.3-9.24,42.26-13.51,50.2s-21.32,13.59-35.09,14.36-42.56-1.75-47.88-1-9.26,2.9-13.09,9.31c-2,3.35-7.85,12.55-8.78,12s-1.11-5.09.16-6.89,3-6.39-1.27-6.48a15,15,0,0,0-3.87.45c-.24.06-.51.12-.76.2l-.88.26c-.59.21-1.18.44-1.75.7h0a15.6,15.6,0,0,0-3.29,2c-.13.11-.27.23-.4.36s-.51.48-.74.72a8.4,8.4,0,0,0-1,1.35c-.06.13-.14.25-.2.38-1,1.7-2.35,4.23-3.87,6.62-.13.18-.24.35-.36.54s-.23.36-.36.53c-.23.35-.46.7-.71,1s-.36.49-.54.73-.34.46-.53.68c-1.35,1.64-2.65,2.76-3.72,2.73-1.91-.06,3.77-11.82,7.21-19.12,3.16-6.72,8.56-10.8,12.5-13.37s11.09-4.59,17.93-5.63,15.38-4.27,34.77-9.82a189.06,189.06,0,0,1,35-6.67c6.2-40.69,11.44-43.79,12.79-60.08,1.21-14.5,7.75-23.85,20.55-28,3.15-1,7.72-1.54,12.84-1.72C906.6,332.34,912,370.15,896.07,386.63Z"/><path class="cls-13" d="M899.77,381.84a28.56,28.56,0,0,1-3.7,4.79c-.87-3.3-1.38-5.64-1.38-5.64l4.51-16.8A68.9,68.9,0,0,0,899.77,381.84Z"/><path class="cls-13" d="M892.22,396.74c-3.21,16.3-7.73,28.34-11,34.45-4.27,8-21.33,13.59-35.1,14.36s-42.55-1.75-47.87-1-9.26,2.9-13.09,9.31c-2,3.35-7.85,12.55-8.78,12-.33-.19-.54-.86-.67-1.72,1.68.86,3-2.61,5.32-6.68,2.59-4.52,5.23-9.61,8.52-11.81s4-4.54,4-4.54,1.61.9,8.59,1.3,53.27-1,66.87-7.47C881,429.26,891.6,398.71,892.22,396.74Z"/><path class="cls-13" d="M859.66,417.23a40.22,40.22,0,0,1,11.5.59,30.77,30.77,0,0,0-10.88-4.6Z"/><path class="cls-13" d="M768,454.14c-3,3.77-4.33,8.81-6.52,11.85a3.37,3.37,0,0,1-.29.37,8,8,0,0,1-5.2,2.75c2.52-3.09,5.14-8,6.58-10.52A11.83,11.83,0,0,1,768,454.14Z"/><path class="cls-17" d="M771.36,453c-2.28,3.54-3.57,7.74-5.48,10.39a7.68,7.68,0,0,1-4.74,3,3.37,3.37,0,0,0,.29-.37c2.19-3,3.55-8.08,6.52-11.85h0A17.51,17.51,0,0,1,771.36,453Z"/><path class="cls-18" d="M614.46,757.24H595.13c4.19-4.94,4.86-12.07,1.53-19.63-4.36-9.91-19.8-10.32-27-10.32h0c-7.19,0-22.32.44-26.68,10.32-3.34,7.56-2.67,14.69,1.52,19.63H525.08a37.39,37.39,0,0,1,8.16-35.9c10.17-11,26.71-11.21,36.18-11.21h.17c9.49,0,26.62.25,36.73,11.21A37.43,37.43,0,0,1,614.46,757.24Z"/><path class="cls-3" d="M612.26,762.58c-5.94,10.91-9.91,17.15-7.27,23.1s12.71,26.82,3.3,43.23c-8.74,15.24-23.88,16.49-38.51,16.49h-.19c-14.58,0-29.6-1.31-38.32-16.49-9.44-16.41.64-37.29,3.28-43.23s-1.31-12.19-7.25-23.1a29.23,29.23,0,0,1-2.22-5.34h19.35a18,18,0,0,0,7.92,5.22c7.38,2.61,12.66-.41,17.24-.41s10.24,3,17.6.41a17.91,17.91,0,0,0,7.94-5.22h19.33A29.9,29.9,0,0,1,612.26,762.58Z"/><path class="cls-6" d="M639.82,715.92a5.89,5.89,0,0,1,6.85,4.74l3.87,21.26a5.88,5.88,0,0,1-4.74,6.85s-3.75.65-5,.91c-2.41.5-3.55,3-3,6.22.15.63,4.75,20.08,5.43,23.82,1,5.71,3.07,22.9,3.07,22.9.61,3.36,2.57,5.33,5.06,4.94,1.25-.19,5-.91,5-.91a5.89,5.89,0,0,1,6.85,4.74l3.87,21.26a5.88,5.88,0,0,1-4.74,6.85l-16.2,3L624.24,718.76Z"/><path class="cls-4" d="M623.6,840.57l-3.87-21.26a5.88,5.88,0,0,1,4.74-6.85s3-.59,4-.72c2.35-.3,4.74-2.69,4-6.6,0,0-3.93-17-5-22.8-1-5.55-3.23-21.66-3.53-23.86-.76-3.81-3.79-5.16-6.06-4.63-1,.24-4,.73-4,.73a5.89,5.89,0,0,1-6.85-4.74l-3.87-21.26a5.88,5.88,0,0,1,4.74-6.85l16.3-3,21.89,123.69-15.68,2.86A5.89,5.89,0,0,1,623.6,840.57Z"/><path class="cls-19" d="M1208.93,712.63V713h.41a1.68,1.68,0,1,0,0-3.36h-12.62a1.68,1.68,0,1,0,0,3.36h.22v-.38Z"/><path class="cls-18" d="M1225.42,761.77c-3.22-3.94-5.11-8-5.25-10.91v-.08a.61.61,0,0,0,0-.23h-34.65v.31c-.14,2.83-1.91,6.72-4.94,10.55l-.14,3.61a3.26,3.26,0,0,0,0,.53V836a7.62,7.62,0,0,0,4.81,7.08,8,8,0,0,0,1.72.47,66.83,66.83,0,0,0,11,1.69c1.64.11,3.3.17,5,.17a67.21,67.21,0,0,0,16-1.86,7.67,7.67,0,0,0,6.52-7.55V765.16Z"/><polygon class="cls-19" points="1208.96 720.15 1208.93 720.15 1208.93 713.01 1208.93 712.63 1196.94 712.63 1196.94 713.01 1196.94 720.22 1187.69 722.72 1218.44 722.72 1208.96 720.15"/><path class="cls-18" d="M1224.55,728.43a5.75,5.75,0,0,0-5.8-5.71h-31.13a5.76,5.76,0,0,0-5.8,5.71l-.27,7h43.18v2.75h-43.25v-.8l-.24,6.22h43.7Z"/><polygon class="cls-20" points="1181.48 735.39 1181.48 737.34 1181.55 735.39 1181.48 735.39"/><polygon class="cls-19" points="1224.73 738.14 1224.73 735.39 1181.55 735.39 1181.48 737.34 1181.48 738.14 1224.73 738.14"/><path class="cls-19" d="M1225,744.47a13.2,13.2,0,0,0-3.72,3.06s0,0,0,.05a3.33,3.33,0,0,0-1,1.86,3,3,0,0,0-.11,1.11h-34.68a3,3,0,0,0-.11-1.11,3.32,3.32,0,0,0-.94-1.86s0,0,0-.05a12.37,12.37,0,0,0-3.22-2.75l.06-1.22H1225Z"/></svg>